<svg xmlns="http://www.w3.org/2000/svg" viewBox="5 5 130 110" stroke="#000"><path fill="none" stroke-linecap="round" stroke-width="4" d="M10 30h40m-40 0h40m0 0 20 20M50 30l20 20m0 0v60m0-60v60m0 0H10m60 0H10m0 0V30m0 80V30"/><path fill="none"  stroke-linecap="round" stroke-width="2" d="M50 30v20m0-20v20m0 0h20m-20 0h20"/><path fill="none"  stroke-linecap="round" stroke-width="4" d="M110 10H90m20 0H90m0 0v40m0-40v40m0 0h40m-40 0h40m0 0V30m0 20V30M110 30l20-20m-20 20 20-20M120 10h10m-10 0h10m0 0v10m0-10v10"/><path fill="none"  stroke-linecap="round" stroke-width="8" d="M40.351 60.667v27m0-27v27M26.851 74.167h26.69m-26.69 0h26.69"/></svg>