<svg xmlns="http://www.w3.org/2000/svg" viewBox="5 5 120 120" stroke="#000"><g stroke-linecap="round"><path stroke-width="0" d="M30 20c0 .58-.05 1.17-.15 1.74-.1.57-.26 1.14-.45 1.68-.2.54-.45 1.08-.74 1.58s-.63.98-1 1.43c-.37.44-.79.86-1.23 1.23-.45.37-.93.71-1.43 1-.5.29-1.04.54-1.58.74-.54.19-1.11.35-1.68.45a10.136 10.136 0 0 1-3.48 0c-.57-.1-1.14-.26-1.68-.45-.54-.2-1.08-.45-1.58-.74s-.98-.63-1.43-1c-.44-.37-.86-.79-1.23-1.23-.37-.45-.71-.93-1-1.43-.29-.5-.54-1.04-.74-1.58-.19-.54-.35-1.11-.45-1.68a10.136 10.136 0 0 1 0-3.48c.1-.57.26-1.14.45-1.68.2-.54.45-1.08.74-1.58s.63-.98 1-1.43c.37-.44.79-.86 1.23-1.23.45-.37.93-.71 1.43-1 .5-.29 1.04-.54 1.58-.74.54-.19 1.11-.35 1.68-.45a10.136 10.136 0 0 1 3.48 0c.57.1 1.14.26 1.68.45.54.2 1.08.45 1.58.74s.98.63 1.43 1c.44.37.86.79 1.23 1.23.37.45.71.93 1 1.43.29.5.54 1.04.74 1.58.19.54.35 1.11.45 1.68.1.57.12 1.45.15 1.74.03.29.03-.29 0 0"/><path fill="none"  stroke-width="2" d="M30 20c0 .58-.05 1.17-.15 1.74-.1.57-.26 1.14-.45 1.68-.2.54-.45 1.08-.74 1.58s-.63.98-1 1.43c-.37.44-.79.86-1.23 1.23-.45.37-.93.71-1.43 1-.5.29-1.04.54-1.58.74-.54.19-1.11.35-1.68.45a10.136 10.136 0 0 1-3.48 0c-.57-.1-1.14-.26-1.68-.45-.54-.2-1.08-.45-1.58-.74s-.98-.63-1.43-1c-.44-.37-.86-.79-1.23-1.23-.37-.45-.71-.93-1-1.43-.29-.5-.54-1.04-.74-1.58-.19-.54-.35-1.11-.45-1.68a10.136 10.136 0 0 1 0-3.48c.1-.57.26-1.14.45-1.68.2-.54.45-1.08.74-1.58s.63-.98 1-1.43c.37-.44.79-.86 1.23-1.23.45-.37.93-.71 1.43-1 .5-.29 1.04-.54 1.58-.74.54-.19 1.11-.35 1.68-.45a10.136 10.136 0 0 1 3.48 0c.57.1 1.14.26 1.68.45.54.2 1.08.45 1.58.74s.98.63 1.43 1c.44.37.86.79 1.23 1.23.37.45.71.93 1 1.43.29.5.54 1.04.74 1.58.19.54.35 1.11.45 1.68.1.57.12 1.45.15 1.74.03.29.03-.29 0 0"/></g><g stroke-linecap="round"><path stroke-width="0" d="M110 20c0 .58-.05 1.17-.15 1.74-.1.57-.26 1.14-.45 1.68-.2.54-.45 1.08-.74 1.58s-.63.98-1 1.43c-.37.44-.79.86-1.23 1.23-.45.37-.93.71-1.43 1-.5.29-1.04.54-1.58.74-.54.19-1.11.35-1.68.45a10.136 10.136 0 0 1-3.48 0c-.57-.1-1.14-.26-1.68-.45-.54-.2-1.08-.45-1.58-.74s-.98-.63-1.43-1c-.44-.37-.86-.79-1.23-1.23-.37-.45-.71-.93-1-1.43-.29-.5-.54-1.04-.74-1.58-.19-.54-.35-1.11-.45-1.68a10.136 10.136 0 0 1 0-3.48c.1-.57.26-1.14.45-1.68.2-.54.45-1.08.74-1.58s.63-.98 1-1.43c.37-.44.79-.86 1.23-1.23.45-.37.93-.71 1.43-1 .5-.29 1.04-.54 1.58-.74.54-.19 1.11-.35 1.68-.45a10.136 10.136 0 0 1 3.48 0c.57.1 1.14.26 1.68.45.54.2 1.08.45 1.58.74s.98.63 1.43 1c.44.37.86.79 1.23 1.23.37.45.71.93 1 1.43.29.5.54 1.04.74 1.58.19.54.35 1.11.45 1.68.1.57.12 1.45.15 1.74.03.29.03-.29 0 0"/><path fill="none"  stroke-width="2" d="M110 20c0 .58-.05 1.17-.15 1.74-.1.57-.26 1.14-.45 1.68-.2.54-.45 1.08-.74 1.58s-.63.98-1 1.43c-.37.44-.79.86-1.23 1.23-.45.37-.93.71-1.43 1-.5.29-1.04.54-1.58.74-.54.19-1.11.35-1.68.45a10.136 10.136 0 0 1-3.48 0c-.57-.1-1.14-.26-1.68-.45-.54-.2-1.08-.45-1.58-.74s-.98-.63-1.43-1c-.44-.37-.86-.79-1.23-1.23-.37-.45-.71-.93-1-1.43-.29-.5-.54-1.04-.74-1.58-.19-.54-.35-1.11-.45-1.68a10.136 10.136 0 0 1 0-3.48c.1-.57.26-1.14.45-1.68.2-.54.45-1.08.74-1.58s.63-.98 1-1.43c.37-.44.79-.86 1.23-1.23.45-.37.93-.71 1.43-1 .5-.29 1.04-.54 1.58-.74.54-.19 1.11-.35 1.68-.45a10.136 10.136 0 0 1 3.48 0c.57.1 1.14.26 1.68.45.54.2 1.08.45 1.58.74s.98.63 1.43 1c.44.37.86.79 1.23 1.23.37.45.71.93 1 1.43.29.5.54 1.04.74 1.58.19.54.35 1.11.45 1.68.1.57.12 1.45.15 1.74.03.29.03-.29 0 0"/></g><g stroke-linecap="round"><path stroke-width="0" d="M70 60c0 .58-.05 1.17-.15 1.74-.1.57-.26 1.14-.45 1.68-.2.54-.45 1.08-.74 1.58s-.63.98-1 1.43c-.37.44-.79.86-1.23 1.23-.45.37-.93.71-1.43 1-.5.29-1.04.54-1.58.74-.54.19-1.11.35-1.68.45a10.136 10.136 0 0 1-3.48 0c-.57-.1-1.14-.26-1.68-.45-.54-.2-1.08-.45-1.58-.74s-.98-.63-1.43-1c-.44-.37-.86-.79-1.23-1.23-.37-.45-.71-.93-1-1.43-.29-.5-.54-1.04-.74-1.58-.19-.54-.35-1.11-.45-1.68a10.136 10.136 0 0 1 0-3.48c.1-.57.26-1.14.45-1.68.2-.54.45-1.08.74-1.58s.63-.98 1-1.43c.37-.44.79-.86 1.23-1.23.45-.37.93-.71 1.43-1 .5-.29 1.04-.54 1.58-.74.54-.19 1.11-.35 1.68-.45a10.136 10.136 0 0 1 3.48 0c.57.1 1.14.26 1.68.45.54.2 1.08.45 1.58.74s.98.63 1.43 1c.44.37.86.79 1.23 1.23.37.45.71.93 1 1.43.29.5.54 1.04.74 1.58.19.54.35 1.11.45 1.68.1.57.12 1.45.15 1.74.03.29.03-.29 0 0"/><path fill="none"  stroke-width="2" d="M70 60c0 .58-.05 1.17-.15 1.74-.1.57-.26 1.14-.45 1.68-.2.54-.45 1.08-.74 1.58s-.63.98-1 1.43c-.37.44-.79.86-1.23 1.23-.45.37-.93.71-1.43 1-.5.29-1.04.54-1.58.74-.54.19-1.11.35-1.68.45a10.136 10.136 0 0 1-3.48 0c-.57-.1-1.14-.26-1.68-.45-.54-.2-1.08-.45-1.58-.74s-.98-.63-1.43-1c-.44-.37-.86-.79-1.23-1.23-.37-.45-.71-.93-1-1.43-.29-.5-.54-1.04-.74-1.58-.19-.54-.35-1.11-.45-1.68a10.136 10.136 0 0 1 0-3.48c.1-.57.26-1.14.45-1.68.2-.54.45-1.08.74-1.58s.63-.98 1-1.43c.37-.44.79-.86 1.23-1.23.45-.37.93-.71 1.43-1 .5-.29 1.04-.54 1.58-.74.54-.19 1.11-.35 1.68-.45a10.136 10.136 0 0 1 3.48 0c.57.1 1.14.26 1.68.45.54.2 1.08.45 1.58.74s.98.63 1.43 1c.44.37.86.79 1.23 1.23.37.45.71.93 1 1.43.29.5.54 1.04.74 1.58.19.54.35 1.11.45 1.68.1.57.12 1.45.15 1.74.03.29.03-.29 0 0"/></g><g stroke-linecap="round"><path stroke-width="0" d="M50 100c0 .58-.05 1.17-.15 1.74-.1.57-.26 1.14-.45 1.68-.2.54-.45 1.08-.74 1.58s-.63.98-1 1.43c-.37.44-.79.86-1.23 1.23-.45.37-.93.71-1.43 1-.5.29-1.04.54-1.58.74-.54.19-1.11.35-1.68.45a10.136 10.136 0 0 1-3.48 0c-.57-.1-1.14-.26-1.68-.45-.54-.2-1.08-.45-1.58-.74s-.98-.63-1.43-1c-.44-.37-.86-.79-1.23-1.23-.37-.45-.71-.93-1-1.43-.29-.5-.54-1.04-.74-1.58-.19-.54-.35-1.11-.45-1.68a10.136 10.136 0 0 1 0-3.48c.1-.57.26-1.14.45-1.68.2-.54.45-1.08.74-1.58s.63-.98 1-1.43c.37-.44.79-.86 1.23-1.23.45-.37.93-.71 1.43-1 .5-.29 1.04-.54 1.58-.74.54-.19 1.11-.35 1.68-.45a10.136 10.136 0 0 1 3.48 0c.57.1 1.14.26 1.68.45.54.2 1.08.45 1.58.74s.98.63 1.43 1c.44.37.86.79 1.23 1.23.37.45.71.93 1 1.43.29.5.54 1.04.74 1.58.19.54.35 1.11.45 1.68.1.57.12 1.45.15 1.74.03.29.03-.29 0 0"/><path fill="none"  stroke-width="2" d="M50 100c0 .58-.05 1.17-.15 1.74-.1.57-.26 1.14-.45 1.68-.2.54-.45 1.08-.74 1.58s-.63.98-1 1.43c-.37.44-.79.86-1.23 1.23-.45.37-.93.71-1.43 1-.5.29-1.04.54-1.58.74-.54.19-1.11.35-1.68.45a10.136 10.136 0 0 1-3.48 0c-.57-.1-1.14-.26-1.68-.45-.54-.2-1.08-.45-1.58-.74s-.98-.63-1.43-1c-.44-.37-.86-.79-1.23-1.23-.37-.45-.71-.93-1-1.43-.29-.5-.54-1.04-.74-1.58-.19-.54-.35-1.11-.45-1.68a10.136 10.136 0 0 1 0-3.48c.1-.57.26-1.14.45-1.68.2-.54.45-1.08.74-1.58s.63-.98 1-1.43c.37-.44.79-.86 1.23-1.23.45-.37.93-.71 1.43-1 .5-.29 1.04-.54 1.58-.74.54-.19 1.11-.35 1.68-.45a10.136 10.136 0 0 1 3.48 0c.57.1 1.14.26 1.68.45.54.2 1.08.45 1.58.74s.98.63 1.43 1c.44.37.86.79 1.23 1.23.37.45.71.93 1 1.43.29.5.54 1.04.74 1.58.19.54.35 1.11.45 1.68.1.57.12 1.45.15 1.74.03.29.03-.29 0 0"/></g><path fill="none"  stroke-linecap="round" stroke-width="4" d="M120 100c0 1.16-.1 2.33-.3 3.47-.2 1.14-.51 2.28-.91 3.37-.39 1.09-.89 2.16-1.47 3.16s-1.25 1.97-2 2.86c-.74.88-1.58 1.72-2.46 2.46-.89.75-1.86 1.42-2.86 2-1 .58-2.07 1.08-3.16 1.47-1.09.4-2.23.71-3.37.91a20.157 20.157 0 0 1-6.94 0c-1.14-.2-2.28-.51-3.37-.91-1.09-.39-2.16-.89-3.16-1.47s-1.97-1.25-2.86-2c-.88-.74-1.72-1.58-2.46-2.46-.75-.89-1.42-1.86-2-2.86-.58-1-1.08-2.07-1.47-3.16-.4-1.09-.71-2.23-.91-3.37a20.157 20.157 0 0 1 0-6.94c.2-1.14.51-2.28.91-3.37.39-1.09.89-2.16 1.47-3.16s1.25-1.97 2-2.86c.74-.88 1.58-1.72 2.46-2.46.89-.75 1.86-1.42 2.86-2 1-.58 2.07-1.08 3.16-1.47 1.09-.4 2.23-.71 3.37-.91a20.157 20.157 0 0 1 6.94 0c1.14.2 2.28.51 3.37.91 1.09.39 2.16.89 3.16 1.47s1.97 1.25 2.86 2c.88.74 1.72 1.58 2.46 2.46.75.89 1.42 1.86 2 2.86.58 1 1.08 2.07 1.47 3.16.4 1.09.71 2.23.91 3.37.2 1.14.25 2.89.3 3.47.05.58.05-.58 0 0"/><g stroke-linecap="round"><path fill="none"  stroke-width="2" d="M30 20h60m-60 0h60"/><path fill-rule="evenodd" stroke-width="0" d="m90 20-13.59 6.34V13.66L90 20"/><path fill="none"  stroke-width="2" d="M90 20c-4.72 2.2-9.44 4.4-13.59 6.34M90 20c-3.43 1.6-6.87 3.2-13.59 6.34m0 0V13.66m0 12.68V13.66m0 0c3.22 1.5 6.43 3 13.59 6.34m-13.59-6.34C80.68 15.65 84.94 17.64 90 20m0 0s0 0 0 0m0 0s0 0 0 0"/></g><g stroke-linecap="round"><path fill="none"  stroke-width="2" d="M110 20h10m-10 0h10m0 0v40m0-40v40m0 0c-12.96.09-25.92.18-49 .33m49-.33c-10.52.07-21.04.14-49 .33"/><path fill-rule="evenodd" stroke-width="0" d="m71 60.33 13.55-6.43.09 12.68L71 60.33"/><path fill="none"  stroke-width="2" d="M71 60.33c3.9-1.85 7.81-3.7 13.55-6.43M71 60.33c3.71-1.76 7.41-3.51 13.55-6.43m0 0c.02 3.11.04 6.21.09 12.68m-.09-12.68c.03 4.43.06 8.85.09 12.68m0 0c-3.61-1.65-7.22-3.3-13.64-6.25m13.64 6.25c-2.93-1.34-5.86-2.68-13.64-6.25m0 0s0 0 0 0m0 0s0 0 0 0"/></g><g stroke-linecap="round"><path fill="none"  stroke-width="2" d="M50 60H10m40 0H10m0 0v40m0-40v40m0 0h20m-20 0h20"/><path fill-rule="evenodd" stroke-width="0" d="m30 100-13.59 6.34V93.66L30 100"/><path fill="none"  stroke-width="2" d="m30 100-13.59 6.34M30 100c-2.91 1.36-5.82 2.71-13.59 6.34m0 0V93.66m0 12.68V93.66m0 0c3.8 1.77 7.6 3.54 13.59 6.34m-13.59-6.34c3.14 1.47 6.28 2.93 13.59 6.34m0 0s0 0 0 0m0 0s0 0 0 0"/></g><g stroke-linecap="round"><path fill="none"  stroke-width="2" d="M52 100.007c6.41 0 12.82 0 28-.01m-28 .01c11.19 0 22.37-.01 28-.01"/><path fill-rule="evenodd" stroke-width="0" d="m80 99.997-12.69 5.92v-11.83L80 99.997"/><path fill="none"  stroke-width="2" d="M80 99.997c-2.9 1.36-5.81 2.71-12.69 5.92M80 99.997c-5.07 2.37-10.14 4.73-12.69 5.92m0 0v-11.83m0 11.83v-11.83m0 0c2.93 1.36 5.85 2.73 12.69 5.91m-12.69-5.91c3.85 1.79 7.7 3.59 12.69 5.91m0 0s0 0 0 0m0 0s0 0 0 0"/></g></svg>