<svg xmlns="http://www.w3.org/2000/svg" viewBox="100 100 500 400"><path fill-rule="evenodd" d="M414.57 183.49a11.194 11.194 0 0 0-10.344 6.914 11.21 11.21 0 0 0-.851 4.285v74.086h-110.09c-5.57-47.172-45.852-83.945-94.48-83.945-52.418 0-95.2 42.715-95.2 95.145 0 52.43 42.782 95.141 95.2 95.141 48.629 0 88.91-36.773 94.48-83.945h110.09v74.145c0 1.465.293 2.93.851 4.285a11.184 11.184 0 0 0 10.344 6.91H585.2c1.465 0 2.93-.292 4.285-.85a11.184 11.184 0 0 0 6.91-10.344v-170.63c0-1.466-.293-2.93-.851-4.286a11.246 11.246 0 0 0-2.426-3.633c-1.035-1.035-2.277-1.867-3.633-2.43s-2.82-.851-4.285-.851z"/></svg>