<?xml version="1.0" encoding="utf-8"?>
<!-- Generator: Adobe Illustrator 27.2.0, SVG Export Plug-In . SVG Version: 6.00 Build 0)  -->
<svg version="1.1" id="Layer_1" xmlns="http://www.w3.org/2000/svg" xmlns:xlink="http://www.w3.org/1999/xlink" x="0px" y="0px"
	 viewBox="0 0 448 512" style="enable-background:new 0 0 448 512;" xml:space="preserve">
<style type="text/css">
	.st0{stroke:#000000;stroke-width:2;stroke-miterlimit:10;}
</style>
<g>
	<g>
		<path class="st0" d="M355.8,234.1"/>
	</g>
	<g>
		<path d="M32.3,139.7l28.8,24.2l63.5-71.7L95.7,67c-7.2-6.3-18.2-5.6-24.5,1.6l-40.6,46.6C24.3,122.4,25,133.3,32.3,139.7z"/>
		<path d="M61.2,165.3l-29.6-24.9c-3.7-3.3-5.9-7.8-6.3-12.7c-0.3-4.9,1.3-9.6,4.5-13.2L70.5,68c6.7-7.6,18.3-8.4,25.9-1.7L126,92.1
			L61.2,165.3z M32.9,138.9l28,23.6l62.2-70.2l-28-24.6c-6.8-5.9-17.1-5.2-23.1,1.5l-40.6,46.6c-2.9,3.3-4.3,7.5-4,11.8
			C27.6,132,29.6,136,32.9,138.9z"/>
	</g>
	<g>
		<polygon points="218.7,240.1 212.3,168.6 197.2,155.4 133.7,228.1 148.9,241.3 		"/>
		<path d="M148.5,242.3l-16.2-14.1l64.8-74.2l16.2,14.1l6.5,73L148.5,242.3z M135.1,228l14.1,12.3l68.4-1.2l-6.2-70.1l-14.1-12.3
			L135.1,228z"/>
	</g>
	<g>
		<polygon points="192.6,151.6 129.1,224.3 66.2,168.4 129.6,96.7 		"/>
		<path d="M129.2,225.7l-64.5-57.2l64.8-73.2l64.5,56.2L129.2,225.7z M67.6,168.3l61.5,54.6l62.2-71.2l-61.5-53.6L67.6,168.3z"/>
	</g>
	<g>
		<path d="M109.7,381.6c-23.7-22.2-40-49.3-48.9-78.2c8.2-0.9,22.4-3.6,30.1-12.3c-12.6-12.5-25.3-25-37.9-37.5c0-0.1,0-0.3,0-0.4
			l-23.6-22c-6,60.7,15.5,123.7,63.7,168.8s112.5,62.4,172.7,52.4l-24.1-22.6C194.8,432.3,146.9,416.4,109.7,381.6z"/>
		<path d="M232.6,456.1c-19.6,0-39.2-2.8-57.9-8.3c-30.9-9.1-58.6-24.9-82.3-47.1C68.7,378.6,51.1,352,40,321.8
			c-10.6-28.8-14.6-60.2-11.6-90.7l0.2-2L54,252.8v0.4c6.2,6.1,12.4,12.3,18.6,18.4c6.3,6.3,12.7,12.5,19,18.8l0.7,0.7l-0.6,0.7
			c-7.2,8.1-19.8,11.3-29.5,12.5c9.2,29.2,25.9,55.6,48.3,76.6l0,0c35.8,33.5,82.4,50.5,131.3,47.9l0.4,0l25.9,24.3l-2,0.3
			C255,455.2,243.8,456.1,232.6,456.1z M30.2,233.3c-5.6,62.5,17.5,122.9,63.6,166c46,43.1,107.8,62.1,169.8,52.5l-22.3-20.9
			c-49.2,2.5-96.2-14.7-132.3-48.5l0,0c-22.9-21.5-39.9-48.7-49.2-78.6l-0.4-1.2l1.2-0.1c9.3-1,21.6-3.8,28.8-11.3
			c-6.1-6-12.2-12.1-18.3-18.1c-6.3-6.2-12.6-12.5-18.9-18.7L52,254v-0.4L30.2,233.3z"/>
	</g>
	<g>
		<path d="M368.8,105.4c-56-52.4-133.5-67.2-201.3-45.5l21,19.6c56.1-13.2,117.7,1.1,163.1,43.7c33,30.9,51.7,71.2,55.9,112.7
			c-0.2-0.4-0.3-0.6-0.3-0.6s-25.1-0.1-36.5,12.7c11.8,11.6,23.5,23.3,35.3,34.9v0.1l2.4,2.3c0.4,0.4,0.9,0.9,1.3,1.3l0,0l17.7,16.6
			C444.7,234.1,424.8,157.7,368.8,105.4z"/>
		<path d="M428,305.1L409,287.3l-1.3-1.3l-2.7-2.6v-0.1c-5.8-5.7-11.5-11.4-17.3-17.1c-5.9-5.8-11.8-11.7-17.7-17.5l-0.7-0.7
			l0.6-0.7c10.5-11.8,31.7-12.9,36.4-13c-4.7-42.1-24.3-81.3-55.4-110.4c-43.5-40.9-104.2-57.1-162.2-43.5l-0.5,0.1l-22.6-21.1
			l1.6-0.5c70.5-22.6,148-5,202.3,45.7c54.3,50.7,76.9,126.9,58.9,198.8L428,305.1z M407,282.6l3.4,3.3l16.4,15.4
			c17.1-70.7-5.3-145.3-58.7-195.2l0,0c-53.3-49.9-129.3-67.4-198.7-45.8l19.4,18.1c58.5-13.6,119.6,2.9,163.5,44.1
			c31.9,29.8,51.8,70.1,56.2,113.3l0.5,5.4l-2.5-4.9c-3.8,0.1-24.3,1.1-34.5,11.7c5.7,5.6,11.3,11.2,17,16.8
			c5.9,5.8,11.7,11.6,17.6,17.4L407,282.6L407,282.6z"/>
	</g>
	<polygon points="425.2,382.2 302.7,283.9 299.4,437.6 340.9,383.8 382.3,456.5 398,447.5 359.4,379.8 	"/>
</g>
</svg>
