<svg xmlns="http://www.w3.org/2000/svg" viewBox="0 0 64 64">
  <path 
       d="m 24.000085,1.5001668 c -0.386664,0 -0.771381,0.00992 -1.153418,0.029456 -0.382035,0.019538 -0.761505,0.048738 -1.138431,0.087333 -0.376928,0.038595 -0.751077,0.086489 -1.122412,0.1436604 -0.371337,0.057172 -0.740095,0.1231708 -1.105359,0.1984375 -0.365266,0.075267 -0.72701,0.1598168 -1.085722,0.2526978 -0.358713,0.092881 -0.714405,0.1943596 -1.066085,0.304374 C 16.976978,2.6261398 16.62896,2.7444758 16.284794,2.8711426 15.940628,2.9978093 15.600354,3.132931 15.264185,3.275769 14.928014,3.4186072 14.596073,3.5694093 14.26838,3.7279378 13.940685,3.8864665 13.617667,4.0523606 13.29893,4.2260986 12.980192,4.3998368 12.66565,4.5812681 12.356352,4.7697347 12.047052,4.9582013 11.74261,5.1540648 11.443229,5.356779 11.143849,5.5594932 10.849575,5.7692003 10.560596,5.9856812 10.271615,6.2021619 9.9881012,6.4251244 9.7100016,6.654891 9.4319021,6.8846574 9.1592182,7.1213204 8.8924805,7.3638916 8.6257427,7.6064628 8.3649942,7.8552043 8.1100993,8.1100993 7.8552043,8.3649942 7.6064628,8.6257427 7.3638916,8.8924805 7.1213204,9.1592182 6.8846574,9.4319021 6.654891,9.7100016 6.4251244,9.9881012 6.2021619,10.271615 5.9856812,10.560596 5.7692003,10.849575 5.5594932,11.143849 5.356779,11.443229 5.1540648,11.74261 4.9582013,12.047052 4.7697347,12.356352 4.5812681,12.66565 4.3998368,12.980192 4.2260986,13.29893 4.0523606,13.617667 3.8864665,13.940685 3.7279378,14.26838 3.5694093,14.596073 3.4186072,14.928014 3.275769,15.264185 3.132931,15.600354 2.9978093,15.940628 2.8711426,16.284794 2.7444758,16.62896 2.6261398,16.976978 2.5161255,17.328658 c -0.1100144,0.35168 -0.2114932,0.707372 -0.3043742,1.066085 -0.092881,0.358712 -0.177431,0.720456 -0.2526978,1.085722 -0.075267,0.365264 -0.1412659,0.734022 -0.1984375,1.105359 -0.057171,0.371335 -0.1050652,0.745484 -0.1436604,1.122412 -0.038595,0.376926 -0.067795,0.756396 -0.087333,1.138431 -0.019538,0.382037 -0.029456,0.766754 -0.029456,1.153418 0,0.386665 0.00992,0.770865 0.029456,1.152902 0.019538,0.382035 0.048738,0.762022 0.087333,1.138948 0.038595,0.376927 0.086489,0.751076 0.1436604,1.122412 0.057172,0.371337 0.1231708,0.739578 0.1984375,1.104842 0.075267,0.365266 0.1598168,0.727526 0.2526978,1.086239 0.092881,0.358713 0.1943598,0.713888 0.3043742,1.065568 0.1100143,0.35168 0.2283503,0.699698 0.3550171,1.043864 0.1266667,0.344166 0.2617884,0.684439 0.4046264,1.02061 0.1428382,0.336169 0.2936403,0.668627 0.4521688,0.996321 0.1585287,0.327695 0.3244228,0.650712 0.4981608,0.96945 0.1737382,0.318738 0.3551695,0.632763 0.5436361,0.942061 0.1884666,0.3093 0.3843301,0.613742 0.5870443,0.913123 0.2027142,0.299381 0.4124213,0.593654 0.6289022,0.882633 0.2164807,0.288981 0.4394432,0.573012 0.6692098,0.851111 0.2297664,0.2781 0.4664294,0.550267 0.7090006,0.817005 0.2425712,0.266737 0.4913127,0.528002 0.7462077,0.782898 0.2548949,0.254894 0.5156434,0.503637 0.7823812,0.746207 0.2667377,0.242572 0.5394216,0.478717 0.8175211,0.708484 0.2780996,0.229767 0.5616134,0.453246 0.8505944,0.669727 0.288979,0.216481 0.583253,0.426188 0.882633,0.628902 0.299381,0.202714 0.603823,0.398577 0.913123,0.587044 0.309298,0.188467 0.62384,0.369381 0.942578,0.54312 0.318737,0.173737 0.641755,0.340148 0.96945,0.498677 0.327693,0.158529 0.659634,0.309331 0.995805,0.452169 0.336169,0.142838 0.676443,0.277443 1.020609,0.40411 0.344166,0.126665 0.692184,0.24552 1.043864,0.355533 0.304779,0.09534 0.613889,0.181052 0.923975,0.26355 0.08249,0.310063 0.168215,0.618701 0.263549,0.923458 0.110015,0.351679 0.228351,0.699699 0.355018,1.043864 0.126665,0.344165 0.261788,0.684439 0.404626,1.02061 0.142838,0.336169 0.29364,0.668111 0.452169,0.995804 0.158528,0.327694 0.324423,0.65123 0.498161,0.969967 0.173736,0.318737 0.355169,0.632763 0.543636,0.942061 0.188465,0.309299 0.38433,0.613743 0.587044,0.913123 0.202714,0.29938 0.412422,0.593654 0.628902,0.882633 0.216481,0.288981 0.439444,0.573013 0.66921,0.851111 0.229766,0.2781 0.465913,0.550267 0.708484,0.817005 0.242571,0.266736 0.491831,0.528003 0.746724,0.782898 0.254895,0.254893 0.515645,0.503637 0.782381,0.746207 0.266738,0.242571 0.539422,0.478718 0.817522,0.708484 0.278098,0.229766 0.561614,0.453246 0.850594,0.669727 0.288979,0.216479 0.583253,0.426188 0.882633,0.628902 0.29938,0.202714 0.603824,0.398578 0.913123,0.587044 0.309298,0.188467 0.623324,0.369383 0.942061,0.543119 0.318737,0.173738 0.642273,0.34015 0.969967,0.498678 0.327693,0.158528 0.659634,0.309331 0.995805,0.452169 0.336169,0.142838 0.676444,0.277443 1.020609,0.40411 0.344165,0.126665 0.692185,0.245519 1.043864,0.355533 0.351679,0.110015 0.707372,0.211494 1.066085,0.304375 0.358711,0.09288 0.720457,0.176914 1.085722,0.252181 0.365263,0.07527 0.734022,0.141782 1.105359,0.198954 0.371335,0.05717 0.745485,0.105065 1.122412,0.14366 0.376925,0.0386 0.756397,0.0678 1.138431,0.08733 0.382036,0.01954 0.766755,0.02946 1.153418,0.02946 0.386665,0 0.770866,-0.0099 1.152902,-0.02946 0.382034,-0.01954 0.762023,-0.04874 1.138948,-0.08733 0.376927,-0.0386 0.751077,-0.08649 1.122412,-0.14366 0.371336,-0.05717 0.739579,-0.123689 1.104842,-0.198954 0.365265,-0.07527 0.727526,-0.159302 1.086239,-0.252181 0.358713,-0.09288 0.713889,-0.19436 1.065568,-0.304375 0.351679,-0.110014 0.699699,-0.228868 1.043864,-0.355533 0.344165,-0.126667 0.684439,-0.261272 1.02061,-0.40411 0.336169,-0.142838 0.668111,-0.293641 0.995804,-0.452169 0.327694,-0.158528 0.65123,-0.32494 0.969967,-0.498678 0.318737,-0.173736 0.632763,-0.354652 0.942061,-0.543119 0.309299,-0.188466 0.613743,-0.38433 0.913123,-0.587044 0.29938,-0.202714 0.593654,-0.412423 0.882633,-0.628902 0.288981,-0.216481 0.573013,-0.439961 0.851111,-0.669727 0.2781,-0.229766 0.550267,-0.465913 0.817005,-0.708484 0.266736,-0.24257 0.528003,-0.491314 0.782898,-0.746207 0.254893,-0.254895 0.503637,-0.516162 0.746207,-0.782898 0.242571,-0.266738 0.478718,-0.538905 0.708484,-0.817005 0.229766,-0.278098 0.453246,-0.56213 0.669727,-0.851111 0.216479,-0.288979 0.426188,-0.583253 0.628902,-0.882633 0.202714,-0.29938 0.398578,-0.603824 0.587044,-0.913123 0.188467,-0.309298 0.369383,-0.623324 0.543119,-0.942061 0.173738,-0.318737 0.34015,-0.642273 0.498678,-0.969967 0.158528,-0.327693 0.309331,-0.659635 0.452169,-0.995804 0.142838,-0.336171 0.277443,-0.676445 0.40411,-1.02061 0.126665,-0.344165 0.245519,-0.692185 0.355533,-1.043864 0.110015,-0.351679 0.211494,-0.706855 0.304375,-1.065568 0.09288,-0.358713 0.176914,-0.720974 0.252181,-1.086239 0.07527,-0.365263 0.141782,-0.733506 0.198954,-1.104842 0.05717,-0.371335 0.105065,-0.745485 0.14366,-1.122412 0.0386,-0.376925 0.0678,-0.756914 0.08733,-1.138948 0.01954,-0.382036 0.02946,-0.766237 0.02946,-1.152902 0,-0.386663 -0.0099,-0.771382 -0.02946,-1.153418 -0.01954,-0.382034 -0.04874,-0.761506 -0.08733,-1.138431 -0.0386,-0.376927 -0.08649,-0.751077 -0.14366,-1.122412 -0.05717,-0.371337 -0.123689,-0.740096 -0.198954,-1.105359 -0.07527,-0.365265 -0.159302,-0.727011 -0.252181,-1.085722 -0.09288,-0.358713 -0.19436,-0.714406 -0.304375,-1.066085 -0.110014,-0.351679 -0.228868,-0.699699 -0.355533,-1.043864 -0.126667,-0.344165 -0.261272,-0.68444 -0.40411,-1.020609 -0.142838,-0.336171 -0.293641,-0.668112 -0.452169,-0.995805 -0.158528,-0.327694 -0.32494,-0.65123 -0.498678,-0.969967 -0.173736,-0.318737 -0.354652,-0.632763 -0.543119,-0.942061 -0.188466,-0.309299 -0.38433,-0.613743 -0.587044,-0.913123 -0.202714,-0.29938 -0.412423,-0.593654 -0.628902,-0.882633 -0.216481,-0.28898 -0.439961,-0.572496 -0.669727,-0.850594 -0.229766,-0.2781 -0.465913,-0.550784 -0.708484,-0.817522 -0.24257,-0.266736 -0.491314,-0.527486 -0.746207,-0.782381 -0.254895,-0.254893 -0.516162,-0.504153 -0.782898,-0.746724 -0.266738,-0.242571 -0.538905,-0.478718 -0.817005,-0.708484 -0.278098,-0.229766 -0.56213,-0.452729 -0.851111,-0.66921 -0.288979,-0.21648 -0.583253,-0.426188 -0.882633,-0.628902 -0.29938,-0.202714 -0.603824,-0.398579 -0.913123,-0.587044 -0.309298,-0.188467 -0.623324,-0.3699 -0.942061,-0.543636 -0.318737,-0.173738 -0.642273,-0.339633 -0.969967,-0.498161 -0.327693,-0.158529 -0.659635,-0.309331 -0.995804,-0.452169 -0.336171,-0.142838 -0.676445,-0.277961 -1.02061,-0.404626 -0.344165,-0.126667 -0.692185,-0.245003 -1.043864,-0.355018 -0.304757,-0.09534 -0.613395,-0.181056 -0.923458,-0.263549 -0.0825,-0.310086 -0.168207,-0.619196 -0.26355,-0.923975 -0.110013,-0.35168 -0.228868,-0.699698 -0.355533,-1.043864 -0.126667,-0.344166 -0.261272,-0.68444 -0.40411,-1.020609 -0.142838,-0.336171 -0.29364,-0.668112 -0.452169,-0.995805 -0.158529,-0.327695 -0.32494,-0.650713 -0.498677,-0.96945 -0.173739,-0.318738 -0.354653,-0.63328 -0.54312,-0.942578 -0.188467,-0.3093 -0.38433,-0.613742 -0.587044,-0.913123 C 42.440654,11.143873 42.230971,10.849575 42.01449,10.560596 41.798009,10.271615 41.57453,9.9881012 41.344763,9.7100016 41.114996,9.4319021 40.878851,9.1592182 40.636279,8.8924805 40.393709,8.6257427 40.144966,8.3649942 39.890072,8.1100993 39.635176,7.8552043 39.373911,7.6064628 39.107174,7.3638916 38.840436,7.1213204 38.568269,6.8846574 38.290169,6.654891 38.01207,6.4251244 37.728039,6.2021619 37.439058,5.9856812 37.150079,5.7692003 36.855806,5.5594932 36.556425,5.356779 36.257044,5.1540648 35.952602,4.9582013 35.643302,4.7697347 35.334004,4.5812681 35.019979,4.3998368 34.701241,4.2260986 34.382503,4.0523606 34.059486,3.8864665 33.731791,3.7279378 33.404097,3.5694093 33.071639,3.4186072 32.73547,3.275769 32.399299,3.132931 32.059026,2.9978093 31.71486,2.8711426 31.370694,2.7444758 31.022676,2.6261398 30.670996,2.5161255 30.319316,2.4061111 29.964141,2.3046323 29.605428,2.2117513 29.246715,2.1188703 28.884455,2.0343203 28.519189,1.9590535 28.153925,1.8837868 27.785684,1.8177876 27.414347,1.760616 27.043011,1.7034446 26.668862,1.6555508 26.291935,1.6169556 25.915009,1.5783603 25.535022,1.5491605 25.152987,1.5296224 24.77095,1.5100843 24.38675,1.5001668 24.000085,1.5001668 Z m 0,8.9803302 c 0.469976,0 0.934121,0.02347 1.39113,0.06925 0.457009,0.04578 0.9069,0.113715 1.348755,0.203088 0.441854,0.08937 0.875666,0.199951 1.300179,0.330729 0.424513,0.130778 0.839386,0.281656 1.244368,0.451652 0.404984,0.169996 0.800124,0.359348 1.183391,0.566374 0.383265,0.207026 0.754782,0.431992 1.114144,0.673861 0.359361,0.241867 0.706461,0.500623 1.039729,0.775146 0.33327,0.274523 0.653092,0.564725 0.958081,0.869714 0.304991,0.304991 0.595192,0.624813 0.869715,0.958081 0.274523,0.33327 0.533279,0.679852 0.775146,1.039214 0.241868,0.359361 0.466835,0.731395 0.673861,1.11466 0.05671,0.104988 0.101038,0.217336 0.155029,0.324011 0.143108,0.282755 0.2874,0.564818 0.410828,0.858863 0.169995,0.40498 0.320875,0.820375 0.451652,1.244885 0.130777,0.42451 0.241357,0.858327 0.330729,1.300179 0.06349,0.31387 0.103045,0.636404 0.144694,0.958081 0.01698,0.131165 0.04565,0.258303 0.05891,0.390674 0.04578,0.457004 0.06925,0.921159 0.06925,1.391129 0,0.469972 -0.02347,0.934125 -0.06925,1.39113 -0.04578,0.457005 -0.114233,0.906904 -0.203605,1.348755 -0.0012,0.006 -0.0034,0.01159 -0.0047,0.01757 -0.08873,0.435644 -0.197073,0.863853 -0.326078,1.282609 -0.130776,0.424507 -0.281659,0.839392 -0.451652,1.244368 -0.169993,0.404978 -0.358834,0.80013 -0.565857,1.183391 -0.207023,0.38326 -0.431996,0.754787 -0.673861,1.114144 -0.241863,0.359356 -0.500627,0.706465 -0.775146,1.039729 -0.274519,0.333266 -0.564729,0.653097 -0.869715,0.958081 -0.304984,0.304986 -0.624815,0.595196 -0.958081,0.869715 -0.333264,0.274519 -0.680373,0.533283 -1.039729,0.775146 -0.359357,0.241865 -0.730884,0.466838 -1.114144,0.673861 -0.383261,0.207023 -0.778413,0.395864 -1.183391,0.565857 -0.404976,0.169993 -0.819861,0.320876 -1.244368,0.451652 -0.418756,0.129005 -0.846965,0.237349 -1.282609,0.326078 -0.006,0.0012 -0.01158,0.0034 -0.01757,0.0047 -0.441848,0.08937 -0.891753,0.157826 -1.348755,0.203605 -0.457002,0.04578 -0.921162,0.06925 -1.39113,0.06925 -0.469966,0 -0.934129,-0.02347 -1.391129,-0.06925 -0.13237,-0.01326 -0.25951,-0.04193 -0.390674,-0.05891 -0.321672,-0.04165 -0.644215,-0.08121 -0.958081,-0.144694 -0.441846,-0.08937 -0.875675,-0.199954 -1.300179,-0.330729 -0.424504,-0.130776 -0.839911,-0.28166 -1.244885,-0.451652 -0.294041,-0.123427 -0.576112,-0.267722 -0.858863,-0.410828 -0.106675,-0.05399 -0.219023,-0.09832 -0.324011,-0.155029 -0.383265,-0.207026 -0.755299,-0.431993 -1.11466,-0.673861 -0.359362,-0.241867 -0.705944,-0.500623 -1.039214,-0.775146 -0.333268,-0.274523 -0.65309,-0.564724 -0.958081,-0.869715 -0.304989,-0.304989 -0.595191,-0.624811 -0.869714,-0.958081 -0.274523,-0.333268 -0.533279,-0.680368 -0.775146,-1.039729 -0.241869,-0.359362 -0.466835,-0.730879 -0.673861,-1.114144 -0.207026,-0.383267 -0.396378,-0.778407 -0.566374,-1.183391 -0.169996,-0.404982 -0.320874,-0.819855 -0.451652,-1.244368 -0.130778,-0.424513 -0.241356,-0.858325 -0.330729,-1.300179 -0.08937,-0.441855 -0.157308,-0.891746 -0.203088,-1.348755 -0.04578,-0.457009 -0.06925,-0.921154 -0.06925,-1.39113 0,-0.469974 0.02347,-0.934121 0.06925,-1.391129 0.04578,-0.457009 0.113715,-0.9069 0.203088,-1.348755 0.08937,-0.441855 0.199951,-0.875666 0.330729,-1.300179 0.130778,-0.424513 0.281656,-0.839903 0.451652,-1.244885 0.169996,-0.404984 0.359348,-0.799607 0.566374,-1.182874 0.207026,-0.383265 0.431992,-0.755299 0.673861,-1.11466 0.241867,-0.359362 0.500623,-0.705944 0.775146,-1.039214 0.274523,-0.333268 0.564725,-0.65309 0.869714,-0.958081 0.304991,-0.304989 0.624813,-0.595191 0.958081,-0.869714 0.33327,-0.274523 0.679852,-0.533279 1.039214,-0.775146 0.359361,-0.241869 0.731395,-0.466835 1.11466,-0.673861 0.383267,-0.207026 0.77789,-0.396378 1.182874,-0.566374 0.404982,-0.169996 0.820372,-0.320874 1.244885,-0.451652 0.424513,-0.130778 0.858324,-0.241356 1.300179,-0.330729 0.441855,-0.08937 0.891746,-0.157308 1.348755,-0.203088 0.457008,-0.04578 0.921155,-0.06925 1.391129,-0.06925 z m 22.143868,17.466118 c 0.106518,0.05392 0.218661,0.0984 0.323495,0.155029 0.383266,0.207026 0.755299,0.431992 1.114661,0.673861 0.359361,0.241867 0.70646,0.500623 1.039729,0.775146 0.33327,0.274523 0.652574,0.564725 0.957565,0.869714 0.304989,0.304991 0.595708,0.624813 0.870231,0.958081 0.274523,0.33327 0.533279,0.679852 0.775146,1.039214 0.241868,0.35936 0.466835,0.731395 0.673861,1.11466 0.207026,0.383267 0.395861,0.77789 0.565857,1.182874 0.169996,0.404982 0.320874,0.820372 0.451652,1.244885 0.130778,0.424513 0.241356,0.858324 0.330729,1.300179 0.08937,0.441855 0.157825,0.891746 0.203605,1.348755 0.04578,0.457008 0.06925,0.921155 0.06925,1.391129 0,0.469976 -0.02347,0.934121 -0.06925,1.39113 -0.04578,0.457009 -0.114232,0.9069 -0.203605,1.348755 -0.08937,0.441853 -0.199951,0.875666 -0.330729,1.300179 -0.130778,0.424512 -0.281656,0.839386 -0.451652,1.244368 -0.169996,0.404984 -0.358831,0.799607 -0.565857,1.182874 -0.207026,0.383266 -0.431993,0.755299 -0.673861,1.114661 -0.241867,0.359361 -0.500623,0.70646 -0.775146,1.039729 -0.274523,0.33327 -0.565242,0.652574 -0.870231,0.957565 -0.304991,0.304989 -0.624295,0.595708 -0.957565,0.870231 -0.333269,0.274523 -0.680368,0.533279 -1.039729,0.775146 -0.359362,0.241868 -0.731395,0.466835 -1.114661,0.673861 -0.383267,0.207026 -0.77789,0.395861 -1.182874,0.565857 -0.404982,0.169996 -0.819856,0.320874 -1.244368,0.451652 -0.424513,0.130778 -0.858326,0.241356 -1.300179,0.330729 -0.441855,0.08937 -0.891746,0.157825 -1.348755,0.203605 -0.457009,0.04578 -0.921154,0.06925 -1.39113,0.06925 -0.469974,0 -0.934121,-0.02347 -1.391129,-0.06925 -0.457009,-0.04578 -0.9069,-0.114232 -1.348755,-0.203605 -0.441855,-0.08937 -0.875666,-0.199951 -1.300179,-0.330729 -0.424513,-0.130778 -0.839903,-0.281656 -1.244885,-0.451652 -0.404984,-0.169996 -0.799607,-0.358831 -1.182874,-0.565857 -0.383265,-0.207026 -0.7553,-0.431993 -1.11466,-0.673861 -0.359362,-0.241867 -0.705944,-0.500623 -1.039214,-0.775146 -0.333268,-0.274523 -0.65309,-0.565242 -0.958081,-0.870231 -0.304989,-0.304991 -0.595191,-0.624295 -0.869714,-0.957565 -0.274523,-0.333269 -0.533279,-0.680368 -0.775146,-1.039729 -0.241869,-0.359362 -0.466835,-0.731395 -0.673861,-1.114661 -0.05663,-0.104834 -0.101113,-0.216977 -0.155029,-0.323495 0.190968,-0.03418 0.383268,-0.06434 0.572574,-0.103352 0.365262,-0.07527 0.72753,-0.159301 1.086239,-0.252181 0.358709,-0.09288 0.713892,-0.194361 1.065568,-0.304375 0.351676,-0.110012 0.699702,-0.228869 1.043864,-0.355533 0.344162,-0.126666 0.684443,-0.261274 1.02061,-0.40411 0.336165,-0.142837 0.668631,-0.293642 0.996321,-0.452169 0.327691,-0.158527 0.650716,-0.324942 0.96945,-0.498677 0.318734,-0.173737 0.632767,-0.354655 0.942061,-0.54312 0.309296,-0.188464 0.613746,-0.384332 0.913123,-0.587044 0.299377,-0.202712 0.593657,-0.412424 0.882633,-0.628902 0.288978,-0.216479 0.573016,-0.439963 0.851111,-0.669727 0.278097,-0.229764 0.55027,-0.465915 0.817005,-0.708484 0.266733,-0.242567 0.528005,-0.491316 0.782898,-0.746207 0.254891,-0.254893 0.50364,-0.516165 0.746207,-0.782898 0.242569,-0.266735 0.47872,-0.538908 0.708484,-0.817005 0.229764,-0.278095 0.453248,-0.562133 0.669727,-0.851111 0.216478,-0.288976 0.42619,-0.583256 0.628902,-0.882633 0.202712,-0.299377 0.39858,-0.603827 0.587044,-0.913123 0.188465,-0.309294 0.369383,-0.623327 0.54312,-0.942061 0.173735,-0.318734 0.34015,-0.641759 0.498677,-0.96945 0.158527,-0.32769 0.309332,-0.660156 0.452169,-0.996321 0.142836,-0.336167 0.277444,-0.676448 0.40411,-1.02061 0.126664,-0.344162 0.245521,-0.692188 0.355533,-1.043864 0.110014,-0.351676 0.211495,-0.706859 0.304375,-1.065568 0.09288,-0.358709 0.176915,-0.720977 0.252181,-1.086239 0.03901,-0.189306 0.06917,-0.381606 0.103352,-0.572574 z" 
  />
</svg>
