<svg xmlns="http://www.w3.org/2000/svg" viewBox="100 80 500 400"><path d="M164.27 110.96h158.32v-28H136.27v170.87h28zM377.42 110.96h158.32v142.87h28V82.96H377.42zM535.73 449.04H377.41v28h186.32V306.17h-28zM164.27 306.16h-28v170.87h186.32v-28H164.27z"/><path d="M197.86 220.36v119.3c0 42.34 34.445 76.789 76.793 76.789h150.68c42.348 0 76.793-34.445 76.793-76.789l.004-119.3c0-42.34-34.445-76.789-76.793-76.789h-150.69c-42.348-.004-76.793 34.445-76.793 76.789zm276.27 0v119.3c0 26.902-21.887 48.789-48.793 48.789l-150.69-.004c-26.906 0-48.793-21.887-48.793-48.789v-119.29c0-26.902 21.887-48.789 48.793-48.789h150.68c26.91-.004 48.797 21.88 48.797 48.79z"/></svg>