<svg xmlns="http://www.w3.org/2000/svg" viewBox="0 0 250 160" stroke="#000"><path fill="none"  stroke-linecap="round" stroke-width="4" d="M10 30h70m-70 0h70M10 20h70m-70 0h70M60 55c0 .87-.08 1.75-.23 2.6-.15.86-.38 1.71-.67 2.53-.3.82-.68 1.62-1.11 2.37-.43.75-.94 1.48-1.5 2.14-.56.67-1.18 1.29-1.85 1.85-.66.56-1.39 1.07-2.14 1.5-.75.43-1.55.81-2.37 1.11-.82.29-1.67.52-2.53.67-.85.15-1.73.23-2.6.23-.87 0-1.75-.08-2.6-.23-.86-.15-1.71-.38-2.53-.67-.82-.3-1.62-.68-2.37-1.11-.75-.43-1.48-.94-2.14-1.5-.67-.56-1.29-1.18-1.85-1.85-.56-.66-1.07-1.39-1.5-2.14-.43-.75-.81-1.55-1.11-2.37-.29-.82-.52-1.67-.67-2.53-.15-.85-.23-1.73-.23-2.6 0-.87.08-1.75.23-2.6.15-.86.38-1.71.67-2.53.3-.82.68-1.62 1.11-2.37.43-.75.94-1.48 1.5-2.14.56-.67 1.18-1.29 1.85-1.85.66-.56 1.39-1.07 2.14-1.5.75-.43 1.55-.81 2.37-1.11.82-.29 1.67-.52 2.53-.67.85-.15 1.73-.23 2.6-.23.87 0 1.75.08 2.6.23.86.15 1.71.38 2.53.67.82.3 1.62.68 2.37 1.11.75.43 1.48.94 2.14 1.5.67.56 1.29 1.18 1.85 1.85.56.66 1.07 1.39 1.5 2.14.43.75.81 1.55 1.11 2.37.29.82.52 1.67.67 2.53.15.85.19 2.17.23 2.6.04.43.04-.43 0 0M26 110c4.05 4.62 8.09 9.25 14 16m-14-16 14 16m0 0-14 14m14-14-14 14m0 0-16-14m16 14c-3.54-3.1-7.09-6.2-16-14m0 0 16-16m-16 16 16-16M50 110h30m-30 0h30M50 140h30m-30 0h30M160 30h70m-70 0h70M160 20h70m-70 0h70M210 55c0 .87-.08 1.75-.23 2.6-.15.86-.38 1.71-.67 2.53-.3.82-.68 1.62-1.11 2.37-.43.75-.94 1.48-1.5 2.14-.56.67-1.18 1.29-1.85 1.85-.66.56-1.39 1.07-2.14 1.5-.75.43-1.55.81-2.37 1.11-.82.29-1.67.52-2.53.67-.85.15-1.73.23-2.6.23-.87 0-1.75-.08-2.6-.23-.86-.15-1.71-.38-2.53-.67-.82-.3-1.62-.68-2.37-1.11-.75-.43-1.48-.94-2.14-1.5-.67-.56-1.29-1.18-1.85-1.85-.56-.66-1.07-1.39-1.5-2.14-.43-.75-.81-1.55-1.11-2.37-.29-.82-.52-1.67-.67-2.53-.15-.85-.23-1.73-.23-2.6 0-.87.08-1.75.23-2.6.15-.86.38-1.71.67-2.53.3-.82.68-1.62 1.11-2.37.43-.75.94-1.48 1.5-2.14.56-.67 1.18-1.29 1.85-1.85.66-.56 1.39-1.07 2.14-1.5.75-.43 1.55-.81 2.37-1.11.82-.29 1.67-.52 2.53-.67.85-.15 1.73-.23 2.6-.23.87 0 1.75.08 2.6.23.86.15 1.71.38 2.53.67.82.3 1.62.68 2.37 1.11.75.43 1.48.94 2.14 1.5.67.56 1.29 1.18 1.85 1.85.56.66 1.07 1.39 1.5 2.14.43.75.81 1.55 1.11 2.37.29.82.52 1.67.67 2.53.15.85.19 2.17.23 2.6.04.43.04-.43 0 0M176 110c4.53 5.17 9.05 10.34 14 16m-14-16c5.5 6.28 10.99 12.56 14 16m0 0-14 14m14-14-14 14m0 0-16-14m16 14c-5.47-4.79-10.94-9.57-16-14m0 0 16-16m-16 16 16-16M200 110h30m-30 0h30M200 140h30m-30 0h30M150 10h90m-90 0h90m0 0v70m0-70v70m0 0h-90m90 0h-90m0 0V10m0 70V10M150 100h90m-90 0h90m0 0v50m0-50v50m0 0h-90m90 0h-90m0 0v-50m0 50v-50"/><g fill-rule="evenodd" stroke-linecap="round"><path stroke-width="0" d="m100 20 31.17 59.33-28.84 60L100 20"/><path fill="none"  stroke-width="4" d="M100 20c11.09 21.12 22.19 42.24 31.17 59.33M100 20c9.23 17.58 18.47 35.16 31.17 59.33m0 0c-8.1 16.84-16.19 33.68-28.84 60m28.84-60c-10.41 21.65-20.81 43.3-28.84 60m0 0C101.45 94.2 100.57 49.07 100 20m2.33 119.33c-.57-29.27-1.15-58.55-2.33-119.33m0 0s0 0 0 0m0 0s0 0 0 0"/></g></svg>