<?xml version="1.0" encoding="UTF-8"?>
<svg viewBox="100 80 500 400" xmlns="http://www.w3.org/2000/svg">
 <g>
  <path d="m164.27 110.96h158.32v-28h-186.32v170.87h28z"/>
  <path d="m377.42 110.96h158.32v142.87h28v-170.87h-186.32z"/>
  <path d="m535.73 449.04h-158.32v28h186.32v-170.87h-28z"/>
  <path d="m164.27 306.16h-28v170.87h186.32v-28h-158.32z"/>
  <path d="m197.86 220.36v119.3c0 42.34 34.445 76.789 76.793 76.789h150.68c42.348 0 76.793-34.445 76.793-76.789l0.003907-119.3c0-42.34-34.445-76.789-76.793-76.789h-150.69c-42.348-0.003906-76.793 34.445-76.793 76.789zm276.27 0v119.3c0 26.902-21.887 48.789-48.793 48.789l-150.69-0.003906c-26.906 0-48.793-21.887-48.793-48.789v-119.29c0-26.902 21.887-48.789 48.793-48.789h150.68c26.91-0.003906 48.797 21.879 48.797 48.789z"/>
 </g>
</svg>
