<svg xmlns="http://www.w3.org/2000/svg" viewBox="5 5 170 70" stroke="#000"><path fill="none"  stroke-linecap="round" stroke-width="4" d="M10 10h60m-60 0h60m0 0v60m0-60v60m0 0H10m60 0H10m0 0V10m0 60V10M141 10c6.47 6.91 12.94 13.83 29 31m-29-31c9.29 9.93 18.57 19.86 29 31m0 0-29 29m29-29-29 29m0 0c-10.49-9.82-20.99-19.64-31-29m31 29c-7.35-6.88-14.71-13.76-31-29m0 0 31-31m-31 31 31-31"/><g stroke-linecap="round"><path fill="none"  stroke-width="4" d="M80 40h20m-20 0h20"/><path fill-rule="evenodd" stroke-width="0" d="m100 40-9.06 4.23v-8.46L100 40"/><path fill="none"  stroke-width="4" d="M100 40c-3.14 1.47-6.29 2.93-9.06 4.23M100 40c-3.13 1.46-6.27 2.92-9.06 4.23m0 0v-8.46m0 8.46v-8.46m0 0c3.38 1.58 6.76 3.16 9.06 4.23m-9.06-4.23c2.17 1.02 4.34 2.03 9.06 4.23m0 0s0 0 0 0m0 0s0 0 0 0"/></g></svg>