<svg version="1.1" xmlns="http://www.w3.org/2000/svg" viewBox="0 0 72.75819749055177 80.03703336574608" width="72.75819749055177" height="80.03703336574608">
  <!-- svg-source:excalidraw -->
  
  <defs>
    <style class="style-fonts">
      @font-face {
        font-family: "Virgil";
        src: url("https://excalidraw.com/Virgil.woff2");
      }
      @font-face {
        font-family: "Cascadia";
        src: url("https://excalidraw.com/Cascadia.woff2");
      }
    </style>
    
  </defs>
  <g stroke-linecap="round"><g transform="translate(4 4) rotate(0 12.71901889991409 17.183109917454658)"><path d="M0 0 C0 7.02, 0 14.05, 0 34.37 M0 34.37 C7.62 34.37, 15.24 34.37, 25.44 34.37" stroke="black" stroke-width="4.5" fill="none" stroke-dasharray="1.5 10"></path></g></g><mask></mask><g stroke-linecap="round"><g transform="translate(51.379765518092086 61.93633577499986) rotate(0 5.684341886080802e-14 7.050348795373111)"><path d="M0 0 C0 4.06, 0 8.11, 0 14.1" stroke="black" stroke-width="4.5" fill="none" stroke-dasharray="1.5 10"></path></g></g><mask></mask><g stroke-linecap="round" transform="translate(34.0013341989918 20.987787610339183) rotate(0 17.378431645779926 17.378431645779983)"><path d="M34.76 17.38 C34.76 18.38, 34.67 19.41, 34.49 20.4 C34.32 21.39, 34.05 22.38, 33.71 23.32 C33.36 24.27, 32.93 25.2, 32.43 26.07 C31.93 26.94, 31.34 27.78, 30.69 28.55 C30.04 29.32, 29.32 30.04, 28.55 30.69 C27.78 31.34, 26.94 31.93, 26.07 32.43 C25.2 32.93, 24.27 33.36, 23.32 33.71 C22.38 34.05, 21.39 34.32, 20.4 34.49 C19.41 34.67, 18.38 34.76, 17.38 34.76 C16.37 34.76, 15.35 34.67, 14.36 34.49 C13.37 34.32, 12.38 34.05, 11.43 33.71 C10.49 33.36, 9.56 32.93, 8.69 32.43 C7.82 31.93, 6.98 31.34, 6.21 30.69 C5.44 30.04, 4.71 29.32, 4.07 28.55 C3.42 27.78, 2.83 26.94, 2.33 26.07 C1.83 25.2, 1.39 24.27, 1.05 23.32 C0.7 22.38, 0.44 21.39, 0.26 20.4 C0.09 19.41, 0 18.38, 0 17.38 C0 16.37, 0.09 15.35, 0.26 14.36 C0.44 13.37, 0.7 12.38, 1.05 11.43 C1.39 10.49, 1.83 9.56, 2.33 8.69 C2.83 7.82, 3.42 6.98, 4.07 6.21 C4.71 5.44, 5.44 4.71, 6.21 4.07 C6.98 3.42, 7.82 2.83, 8.69 2.33 C9.56 1.83, 10.49 1.39, 11.43 1.05 C12.38 0.7, 13.37 0.44, 14.36 0.26 C15.35 0.09, 16.37 0, 17.38 0 C18.38 0, 19.41 0.09, 20.4 0.26 C21.39 0.44, 22.38 0.7, 23.32 1.05 C24.27 1.39, 25.2 1.83, 26.07 2.33 C26.94 2.83, 27.78 3.42, 28.55 4.07 C29.32 4.71, 30.04 5.44, 30.69 6.21 C31.34 6.98, 31.93 7.82, 32.43 8.69 C32.93 9.56, 33.36 10.49, 33.71 11.43 C34.05 12.38, 34.32 13.37, 34.49 14.36 C34.67 15.35, 34.71 16.88, 34.76 17.38 C34.8 17.88, 34.8 16.88, 34.76 17.38" stroke="black" stroke-width="4" fill="none"></path></g><g stroke-linecap="round"><g transform="translate(41.72257566145686 38.36621939788711) rotate(0 9.65718949485347 0)"><path d="M0 0 C4.11 0, 8.22 0, 19.31 0 M0 0 C6.95 0, 13.9 0, 19.31 0" stroke="black" stroke-width="4" fill="none"></path></g></g><mask></mask><g stroke-linecap="round"><g transform="translate(41.72257587602678 38.36622004108449) rotate(89.99999999999994 9.65718949485347 0)"><path d="M0 0 C5.31 0, 10.62 0, 19.31 0 M0 0 C4.56 0, 9.13 0, 19.31 0" stroke="black" stroke-width="4" fill="none"></path></g></g><mask></mask></svg>