<svg xmlns="http://www.w3.org/2000/svg" viewBox="5 5 170 70" stroke="#000"><path fill="none"  stroke-linecap="round" stroke-width="4" d="M10 10h60m-60 0h60m0 0v60m0-60v60m0 0H10m60 0H10m0 0V10m0 60V10"/><g stroke-linecap="round"><path fill="none"  stroke-width="4" d="M70 40h40m-40 0h40"/><path fill-rule="evenodd" stroke-width="0" d="m110 40-13.59 6.34V33.66L110 40"/><path fill="none"  stroke-width="4" d="M110 40c-4.72 2.2-9.43 4.4-13.59 6.34M110 40c-4.7 2.19-9.4 4.38-13.59 6.34m0 0V33.66m0 12.68V33.66m0 0c5.07 2.37 10.14 4.73 13.59 6.34m-13.59-6.34c3.25 1.52 6.51 3.04 13.59 6.34m0 0s0 0 0 0m0 0s0 0 0 0"/></g><path fill="none"  stroke-linecap="round" stroke-width="4" d="M110 10h60m-60 0h60m0 0v60m0-60v60m0 0h-60m60 0h-60m0 0V10m0 60V10"/></svg>