<svg xmlns="http://www.w3.org/2000/svg" viewBox="0 0 170.322 103.335" stroke="#000"><path fill="none"  stroke-linecap="round" stroke-width="4" d="M10 30c11.75.1 23.5.19 41 .33M10 30c8.59.07 17.17.14 41 .33M10 50c15.52.13 31.04.25 41 .33M10 50c13.91.11 27.82.23 41 .33M10 70c15.43.13 30.87.25 41 .33M10 70c8.24.07 16.47.13 41 .33"/><g fill-rule="evenodd" stroke-linecap="round"><path stroke-width="0" d="m90 30 9.33 19.67L90 70V60H70V40h20V30"/><path fill="none"  stroke-width="4" d="M90 30c2.84 5.99 5.68 11.98 9.33 19.67M90 30c2.52 5.31 5.04 10.63 9.33 19.67m0 0C97.01 54.73 94.69 59.79 90 70m9.33-20.33C97.4 53.88 95.47 58.09 90 70m0 0V60m0 10V60m0 0H70m20 0H70m0 0V40m0 20V40m0 0h20m-20 0h20m0 0V30m0 10V30m0 0s0 0 0 0m0 0s0 0 0 0"/></g><path fill="none"  stroke-linecap="round" stroke-width="4" d="m123.787 39.591 13.742-24.59m-13.742 24.59 13.742-24.59m0 0c1.863-3.335 4.462-4.071 7.797-2.208M137.529 15c1.863-3.334 4.462-4.07 7.797-2.207m0 0 9.995 5.586m-9.995-5.586 9.995 5.586m0 0c3.335 1.863 4.07 4.462 2.207 7.797m-2.207-7.797c3.335 1.863 4.07 4.462 2.207 7.797m0 0-13.741 24.591m13.741-24.591-13.741 24.591m0 0c-1.864 3.335-4.463 4.07-7.798 2.207m7.798-2.207c-1.864 3.335-4.463 4.07-7.798 2.207m0 0-9.995-5.585m9.995 5.585-9.995-5.585m0 0c-3.335-1.864-4.07-4.463-2.207-7.798m2.207 7.798c-3.335-1.864-4.07-4.463-2.207-7.798M102.795 77.158l13.742-24.591m-13.742 24.59 13.742-24.59m0 0c1.863-3.335 4.462-4.07 7.797-2.207m-7.797 2.207c1.863-3.335 4.462-4.07 7.797-2.207m0 0 9.995 5.585m-9.995-5.585 9.995 5.585m0 0c3.335 1.864 4.07 4.463 2.207 7.797m-2.207-7.797c3.335 1.864 4.07 4.463 2.207 7.797m0 0-13.742 24.591m13.742-24.59-13.742 24.59m0 0c-1.863 3.335-4.462 4.07-7.797 2.207m7.797-2.207c-1.863 3.335-4.462 4.07-7.797 2.207m0 0-9.995-5.585m9.995 5.585-9.995-5.585m0 0c-3.335-1.864-4.07-4.463-2.207-7.797m2.207 7.797c-3.335-1.864-4.07-4.463-2.207-7.797"/><g stroke-linecap="round"><path fill="#fff" stroke-width="0" d="m119.734 61.096 11.366-20.34 7.865 4.396-11.366 20.34"/><path fill="none" stroke="transparent" stroke-width="4" d="m119.734 61.096 11.366-20.34m-11.366 20.34 11.366-20.34m0 0c1.64.918 3.29 1.84 7.865 4.396m-7.865-4.396 7.865 4.396m0 0-11.366 20.34m11.366-20.34-11.366 20.34m0 0-7.865-4.396m7.865 4.395-7.865-4.395"/></g><g stroke-linecap="round"><path stroke-width="0" d="m118.676 68.759 18.727-33.513 2.95 1.65-18.726 33.512"/><path fill="none"  stroke-width="4" d="m118.676 68.759 18.727-33.513M118.676 68.76l18.727-33.513m0 0 2.95 1.65m-2.95-1.65 2.95 1.65m0 0-18.726 33.512m18.726-33.513c-6.907 12.361-13.82 24.73-18.726 33.513m0 0-2.951-1.65m2.95 1.65-2.95-1.65"/></g></svg>