<svg xmlns="http://www.w3.org/2000/svg" viewBox="0 0 170 90" stroke="#000"><path fill="none"  stroke-linecap="round" stroke-width="4" d="M100 10h40m-40 0h40m0 0 20 20m-20-20 20 20m0 0v50m0-50v50m0 0h-60m60 0h-60m0 0V10m0 70V10M140 10v20m0-20v20m0 0h20m-20 0h20M110 40c11.87.13 23.73.26 31 .33M110 40c6.44.07 12.89.14 31 .33M110 50c10.03.11 20.05.22 31 .33M110 50l31 .33M110 60c9.93.11 19.86.21 31 .33M110 60c11.38.12 22.75.24 31 .33M10 20c8.88.1 17.77.19 31 .33M10 20c6.49.07 12.98.14 31 .33M10 40c11.73.13 23.47.25 31 .33M10 40c10.52.11 21.04.23 31 .33M10 60c11.67.13 23.34.25 31 .33M10 60c6.23.07 12.46.13 31 .33"/><g fill-rule="evenodd" stroke-linecap="round"><path stroke-width="0" d="m80 20 9.33 19.67L80 60V50H60V30h20V20"/><path fill="none"  stroke-width="4" d="M80 20c2.84 5.99 5.68 11.98 9.33 19.67M80 20c2.52 5.31 5.04 10.63 9.33 19.67m0 0C87.01 44.73 84.69 49.79 80 60m9.33-20.33C87.4 43.88 85.47 48.09 80 60m0 0V50m0 10V50m0 0H60m20 0H60m0 0V30m0 20V30m0 0h20m-20 0h20m0 0V20m0 10V20m0 0s0 0 0 0m0 0s0 0 0 0"/></g></svg>