<svg xmlns="http://www.w3.org/2000/svg" viewBox="0 0 170 160" stroke="#000"><text y="47.436" font-family="Helvetica, Segoe UI Emoji" font-size="52.832" style="white-space:pre" transform="translate(68.667 52.333)">MD</text><path fill="none"  stroke-linecap="round" stroke-width="8" d="M60 150c34.92.23 69.85.47 99.33.67M60 150c25.08.17 50.16.34 99.33.67m0 0c.31-36.8.62-73.6 1-120m-1 120 1-120m0 0c-4.15-4.45-8.3-8.9-18.66-20m18.66 20c-6.97-7.48-13.95-14.95-18.66-20m0 0c-18.65-.08-37.31-.15-82-.34m82 .34c-24.26-.1-48.51-.2-82-.34m0 0c.11 47.28.22 94.55.33 139.67m-.33-139.67c.1 44.54.21 89.07.33 139.67M30 10v40m0-40v40M10 30h40m-40 0h40"/><path fill="none"  stroke-linecap="round" stroke-width="4" d="M140 10v20m0-20v20m0 0h20m-20 0h20"/></svg>