<svg xmlns="http://www.w3.org/2000/svg" xml:space="preserve" viewBox="24 26 68 68" stroke="#000"><path fill="none" stroke="#000" stroke-miterlimit="10" stroke-width="3.553" d="m58.069 43.384-17.008 29.01"/><path fill="none" stroke="#000" stroke-miterlimit="10" stroke-width="3.501" d="m58.068 43.384 17.008 29.01"/><path fill="#000" d="M52.773 77.084a3.564 3.564 0 0 1-3.553 3.553H36.999a3.564 3.564 0 0 1-3.553-3.553v-9.379a3.564 3.564 0 0 1 3.553-3.553h12.222a3.564 3.564 0 0 1 3.553 3.553v9.379zM67.762 48.074a3.564 3.564 0 0 1-3.553 3.553H51.988a3.564 3.564 0 0 1-3.553-3.553v-9.379a3.564 3.564 0 0 1 3.553-3.553H64.21a3.564 3.564 0 0 1 3.553 3.553v9.379zM82.752 77.084a3.564 3.564 0 0 1-3.553 3.553H66.977a3.564 3.564 0 0 1-3.553-3.553v-9.379a3.564 3.564 0 0 1 3.553-3.553h12.222a3.564 3.564 0 0 1 3.553 3.553v9.379z"/></svg>