<svg xmlns="http://www.w3.org/2000/svg" viewBox="120 30 500 500" stroke="#000"><path d="M365.4 56a224.009 224.009 0 0 0-158.39 65.609 223.994 223.994 0 0 0 0 316.78 224.001 224.001 0 0 0 158.39 65.609c59.41 0 116.39-23.602 158.39-65.609a223.99 223.99 0 0 0 65.605-158.39c0-39.32-10.348-77.949-30.008-112s-47.938-62.328-81.992-81.988a224 224 0 0 0-112-30.012zm92.398 243.6h-72.801v72.801l.004-.004a19.602 19.602 0 0 1-39.2 0v-72.8h-72.8v.003a19.6 19.6 0 0 1-16.974-9.8 19.59 19.59 0 0 1 0-19.603c3.5-6.062 9.97-9.8 16.973-9.8h72.801v-72.802.004a19.602 19.602 0 0 1 39.2 0V260.4h72.8v-.004a19.604 19.604 0 0 1 16.974 29.403 19.604 19.604 0 0 1-16.973 9.801z"/></svg>