<svg version="1.1" xmlns="http://www.w3.org/2000/svg" viewBox="0 0 283.93418372214 239.1795575189555" width="283.93418372214" height="239.1795575189555">
  <!-- svg-source:excalidraw -->
  
  <defs>
    <style class="style-fonts">
      @font-face {
        font-family: "Virgil";
        src: url("https://excalidraw.com/Virgil.woff2");
      }
      @font-face {
        font-family: "Cascadia";
        src: url("https://excalidraw.com/Cascadia.woff2");
      }
    </style>
    
  </defs>
  <g stroke-linecap="round" transform="translate(52.85551050925886 56.36638403027743) rotate(0.8593783029558545 43.48273513741214 35.98973416941489)"><path d="M17.99 0 M17.99 0 C28.66 -0.63, 41.36 0.92, 68.97 0 M17.99 0 C34.12 0.33, 51.07 -0.54, 68.97 0 M68.97 0 C80.69 -1.77, 85.82 6.4, 86.97 17.99 M68.97 0 C79.61 -1.44, 87.94 6.52, 86.97 17.99 M86.97 17.99 C88.93 32.96, 87.14 45.27, 86.97 53.98 M86.97 17.99 C86.01 30.8, 85.75 42.34, 86.97 53.98 M86.97 53.98 C85.03 67.66, 80.04 72.14, 68.97 71.98 M86.97 53.98 C89.22 64.35, 82.21 73.68, 68.97 71.98 M68.97 71.98 C49.41 70.16, 31.69 70.2, 17.99 71.98 M68.97 71.98 C55.98 71.64, 40.12 72.48, 17.99 71.98 M17.99 71.98 C4.4 71.58, -0.82 64.75, 0 53.98 M17.99 71.98 C6.67 71.32, -1.01 64.21, 0 53.98 M0 53.98 C0.5 40.53, -0.81 28.94, 0 17.99 M0 53.98 C-1.22 40.52, -0.06 26.78, 0 17.99 M0 17.99 C0.98 7.14, 7.33 1.98, 17.99 0 M0 17.99 C2.03 6.73, 8.24 1.54, 17.99 0" stroke="#1e1e1e" stroke-width="4" fill="none"/></g><g stroke-linecap="round" transform="translate(147.11399988336427 113.13121402267868) rotate(0.8593783029558545 43.630512483189186 40.36848449707031)"><path d="M53.78 0.57 C61.1 1.79, 70.29 6.91, 75.6 12.35 C80.91 17.8, 84.41 26.07, 85.64 33.25 C86.87 40.42, 85.82 48.78, 82.98 55.41 C80.13 62.05, 74.99 68.76, 68.55 73.04 C62.11 77.33, 52.22 80.68, 44.36 81.14 C36.51 81.6, 28 79.75, 21.42 75.79 C14.84 71.83, 8.26 63.92, 4.89 57.38 C1.52 50.83, 0.37 43.6, 1.19 36.52 C2.01 29.43, 4.94 20.73, 9.81 14.87 C14.67 9.01, 22.47 3.64, 30.38 1.35 C38.29 -0.93, 52.45 0.99, 57.27 1.14 C62.1 1.3, 59.58 1.7, 59.32 2.3 M62.9 2.45 C70.22 4.91, 76.73 13.3, 80.95 19.37 C85.17 25.43, 88.43 31.87, 88.21 38.84 C87.99 45.8, 84.18 54.81, 79.64 61.13 C75.1 67.45, 68.11 73.63, 60.95 76.77 C53.79 79.92, 44.32 80.71, 36.67 79.98 C29.02 79.26, 20.61 77.29, 15.05 72.44 C9.5 67.58, 5.8 58.04, 3.34 50.87 C0.89 43.69, -1.4 36.23, 0.3 29.38 C2.01 22.53, 7.56 14.75, 13.58 9.78 C19.61 4.81, 28.4 0.65, 36.45 -0.47 C44.49 -1.58, 57.87 2.49, 61.86 3.08 C65.86 3.67, 60.68 2.56, 60.41 3.09" stroke="#1e1e1e" stroke-width="4" fill="none"/></g><g stroke-linecap="round" transform="translate(5.2459533007365735 11.190990694805294) rotate(0.5856996206716383 135.98335430222178 104.05759429336354)"><path d="M94.91 5.9 C108.43 0.88, 125.77 -0.41, 141.17 -0.13 C156.58 0.15, 173.09 2.92, 187.34 7.57 C201.59 12.22, 215.04 19.93, 226.65 27.76 C238.27 35.59, 249.59 44.16, 257.04 54.53 C264.49 64.89, 269.29 77.89, 271.34 89.96 C273.38 102.02, 272.62 115.26, 269.32 126.91 C266.03 138.57, 259.95 150.06, 251.57 159.92 C243.18 169.77, 231.22 178.73, 219.02 186.04 C206.82 193.35, 193 200.15, 178.37 203.78 C163.74 207.4, 146.78 208.5, 131.24 207.81 C115.71 207.11, 99.61 203.93, 85.17 199.61 C70.72 195.3, 56.15 189.7, 44.57 181.93 C32.99 174.16, 22.85 163.54, 15.7 153 C8.55 142.46, 3.67 130.46, 1.67 118.7 C-0.34 106.93, 0.55 94.03, 3.67 82.43 C6.79 70.83, 12.39 59.03, 20.39 49.1 C28.39 39.17, 37.95 30.5, 51.66 22.85 C65.37 15.21, 92.78 6.37, 102.64 3.23 C112.5 0.08, 110.32 2.21, 110.83 3.97 M139.04 -0.61 C153.99 -1.94, 170.38 3.23, 184.61 7.37 C198.84 11.5, 212.78 16.8, 224.4 24.22 C236.03 31.63, 246.72 41.39, 254.33 51.85 C261.95 62.32, 267.79 74.98, 270.08 87.03 C272.38 99.09, 271.05 112.3, 268.11 124.19 C265.17 136.09, 259.93 148.21, 252.45 158.39 C244.96 168.57, 235.29 178.17, 223.21 185.27 C211.13 192.37, 194.87 197.18, 179.98 200.97 C165.08 204.76, 149.44 208.18, 133.85 208 C118.26 207.82, 100.8 204.27, 86.46 199.9 C72.12 195.52, 59.19 189.3, 47.81 181.75 C36.44 174.19, 25.64 164.79, 18.21 154.56 C10.77 144.34, 5.94 132.1, 3.19 120.41 C0.44 108.73, -0.83 96.05, 1.7 84.47 C4.23 72.89, 10.47 61.35, 18.38 50.94 C26.29 40.53, 37.04 29.55, 49.16 22.01 C61.27 14.47, 76.39 9.38, 91.08 5.73 C105.76 2.08, 129.5 0.63, 137.27 0.12 C145.04 -0.4, 137.85 1.14, 137.71 2.62" stroke="#1e1e1e" stroke-width="4" fill="none"/></g><g stroke-linecap="round" transform="translate(1.7905912091116818 5.283328760911331) rotate(0.5856996206716383 136.65593120651866 108.6892476821487)"><path d="M127.29 -0.33 C141.87 -2.98, 158.34 0.51, 173.34 4.02 C188.34 7.53, 204.67 13.59, 217.29 20.74 C229.91 27.89, 240.49 36.67, 249.06 46.91 C257.63 57.15, 264.8 70.16, 268.72 82.16 C272.65 94.17, 274.04 106.65, 272.61 118.94 C271.19 131.24, 267.01 144.68, 260.19 155.95 C253.37 167.21, 242.96 177.83, 231.68 186.55 C220.4 195.27, 206.71 203.18, 192.5 208.27 C178.29 213.36, 161.9 216.36, 146.42 217.1 C130.93 217.84, 114.42 216.14, 99.61 212.71 C84.8 209.28, 70.33 203.56, 57.56 196.53 C44.79 189.51, 31.78 180.81, 22.98 170.57 C14.18 160.34, 8.57 147.34, 4.77 135.1 C0.96 122.85, -1.38 109.33, 0.15 97.13 C1.67 84.92, 7.11 72.88, 13.94 61.87 C20.77 50.87, 30.01 39.66, 41.13 31.07 C52.25 22.49, 63.65 15.61, 80.65 10.37 C97.65 5.13, 130.06 0.85, 143.12 -0.39 C156.17 -1.63, 159.02 1.19, 158.96 2.94 M196.74 11.4 C210.76 15.15, 223.43 24.32, 234.27 33.29 C245.12 42.26, 255.48 53.88, 261.79 65.21 C268.09 76.53, 271.23 88.97, 272.08 101.25 C272.94 113.52, 270.93 127.19, 266.91 138.86 C262.9 150.53, 257.1 161.18, 248 171.28 C238.91 181.37, 225.39 192.09, 212.34 199.44 C199.29 206.8, 184.67 212.47, 169.72 215.41 C154.77 218.35, 138.01 218.59, 122.64 217.09 C107.27 215.59, 91.39 211.64, 77.49 206.4 C63.6 201.16, 50.39 194.67, 39.26 185.67 C28.14 176.67, 17.4 163.95, 10.72 152.39 C4.04 140.83, 0.3 128.56, -0.8 116.28 C-1.9 104.01, -0.54 90.84, 4.1 78.74 C8.74 66.64, 17.75 53.82, 27.04 43.67 C36.33 33.53, 47 24.5, 59.84 17.87 C72.69 11.23, 88.98 6.76, 104.12 3.86 C119.27 0.97, 135.29 -0.7, 150.7 0.49 C166.11 1.68, 189.39 9.12, 196.57 11 C203.75 12.89, 194.76 10.12, 193.77 11.82" stroke="#1e1e1e" stroke-width="4" fill="none"/></g><g stroke-linecap="round" transform="translate(-0.002655080338939797 2.141755020233063) rotate(0.5856996206716383 140.60383770065928 112.35786993832149)"><path d="M187.99 6.43 C203.08 8.86, 216.88 17.47, 229.01 25.54 C241.15 33.61, 252.53 43.9, 260.8 54.83 C269.07 65.76, 275.6 78.53, 278.66 91.12 C281.72 103.71, 281.88 117.77, 279.15 130.36 C276.43 142.94, 270.08 155.29, 262.29 166.66 C254.49 178.02, 244.47 189.98, 232.38 198.54 C220.29 207.1, 204.95 213.67, 189.76 218.02 C174.56 222.37, 157.29 224.59, 141.21 224.65 C125.13 224.71, 108.41 222.61, 93.28 218.38 C78.16 214.16, 62.61 207.36, 50.46 199.31 C38.32 191.27, 28.46 181.11, 20.43 170.14 C12.4 159.17, 5.36 146.17, 2.3 133.49 C-0.76 120.82, -0.43 106.71, 2.09 94.1 C4.6 81.49, 9.52 68.89, 17.37 57.83 C25.22 46.78, 36.88 36.21, 49.17 27.77 C61.46 19.33, 76.02 11.86, 91.12 7.21 C106.22 2.55, 120.6 -1.18, 139.79 -0.15 C158.98 0.87, 192.7 9.38, 206.27 13.34 C219.85 17.31, 222.46 22.03, 221.22 23.65 M177.75 2.71 C192.95 4.33, 209.8 12.16, 223.14 20 C236.48 27.84, 248.76 39.06, 257.78 49.73 C266.79 60.4, 273.23 71.71, 277.21 84.02 C281.19 96.32, 283.16 110.65, 281.65 123.58 C280.14 136.51, 275.25 150.01, 268.14 161.61 C261.03 173.21, 250.43 184.42, 239 193.19 C227.58 201.95, 214.22 208.95, 199.58 214.2 C184.94 219.44, 167.2 223.45, 151.16 224.64 C135.11 225.84, 118.9 224.8, 103.31 221.34 C87.71 217.89, 70.51 211.45, 57.57 203.91 C44.64 196.36, 34.56 186.84, 25.67 176.07 C16.78 165.29, 8.14 151.51, 4.21 139.27 C0.28 127.04, 0.7 115.14, 2.12 102.66 C3.53 90.18, 6.14 75.93, 12.71 64.39 C19.28 52.85, 29.99 42.35, 41.53 33.43 C53.08 24.52, 67.47 16.49, 81.96 10.9 C96.45 5.32, 112.7 0.87, 128.48 -0.08 C144.25 -1.03, 168.58 3.92, 176.64 5.19 C184.71 6.47, 177.38 5.89, 176.87 7.58" stroke="#1e1e1e" stroke-width="4" fill="none"/></g><g stroke-linecap="round" transform="translate(0.14124013090022913 0.0023575005441784924) rotate(0.5856996206716383 135.98335430222176 115.28083223427303)"><path d="M192.27 11.06 C206.53 14.58, 220.96 23.41, 232.1 32.62 C243.25 41.84, 252.77 54.45, 259.15 66.36 C265.54 78.27, 269.08 91.18, 270.42 104.09 C271.76 117, 271.07 131.02, 267.19 143.83 C263.32 156.64, 255.82 170.2, 247.15 180.95 C238.48 191.71, 227.87 200.91, 215.18 208.36 C202.5 215.8, 185.95 221.85, 171.05 225.61 C156.15 229.37, 141.13 231.86, 125.77 230.93 C110.41 230, 93.07 225.56, 78.92 220.04 C64.77 214.53, 51.68 207.04, 40.85 197.83 C30.03 188.62, 20.6 176.71, 13.95 164.77 C7.3 152.83, 2.54 139.26, 0.96 126.2 C-0.62 113.15, 0.68 99.18, 4.47 86.45 C8.26 73.72, 15.05 60.8, 23.71 49.84 C32.37 38.89, 43.69 28.28, 56.42 20.74 C69.16 13.2, 85.13 8.02, 100.14 4.58 C115.15 1.14, 129.23 -1.71, 146.51 0.09 C163.79 1.89, 192.93 11.72, 203.8 15.38 C214.66 19.05, 212.72 20.51, 211.69 22.08 M121.96 -0.21 C136.66 -3.13, 155.33 -0.15, 170.47 3.15 C185.61 6.45, 200.3 11.98, 212.78 19.6 C225.27 27.22, 236.29 38.42, 245.38 48.88 C254.48 59.34, 262.8 70.03, 267.36 82.35 C271.92 94.67, 274.1 109.23, 272.75 122.79 C271.4 136.36, 266.01 151.8, 259.25 163.74 C252.49 175.69, 242.94 185.37, 232.19 194.48 C221.43 203.59, 208.69 212.34, 194.71 218.41 C180.74 224.49, 163.5 229.74, 148.33 230.94 C133.17 232.15, 118.45 229.01, 103.73 225.65 C89 222.3, 73.22 218.06, 59.98 210.84 C46.74 203.61, 33.25 193.19, 24.29 182.3 C15.33 171.41, 10.01 158.21, 6.24 145.49 C2.47 132.77, 0.83 119.01, 1.68 105.96 C2.52 92.91, 5.42 78.87, 11.32 67.19 C17.22 55.51, 26.11 45.29, 37.07 35.87 C48.03 26.45, 62.84 16.71, 77.09 10.69 C91.33 4.66, 115.17 1.03, 122.53 -0.28 C129.88 -1.59, 121.14 0.68, 121.22 2.83" stroke="#1e1e1e" stroke-width="4" fill="none"/></g><g stroke-linecap="round" transform="translate(7.977771782235834 19.8041687441264) rotate(0.5856996206716383 135.98335430222178 104.05759429336354)"><path d="M180.22 6 C194.73 8.04, 208.98 14.99, 220.87 22.3 C232.77 29.62, 243.54 39.57, 251.58 49.91 C259.62 60.25, 265.99 72.7, 269.1 84.35 C272.2 96, 272.57 108.26, 270.2 119.81 C267.83 131.37, 262.37 143.13, 254.9 153.68 C247.43 164.24, 237.07 175.14, 225.37 183.14 C213.67 191.14, 199.04 197.61, 184.7 201.7 C170.37 205.8, 154.88 207.55, 139.36 207.72 C123.84 207.89, 106.21 206.41, 91.59 202.7 C76.96 198.99, 63.55 192.89, 51.62 185.47 C39.68 178.05, 28.28 168.41, 19.98 158.17 C11.68 147.93, 4.92 135.55, 1.81 124.05 C-1.3 112.55, -1.13 100.85, 1.32 89.15 C3.78 77.45, 9.06 64.31, 16.53 53.87 C24 43.43, 34.44 34.35, 46.14 26.5 C57.83 18.65, 72.39 11.27, 86.71 6.79 C101.03 2.3, 115.97 -0.26, 132.05 -0.41 C148.13 -0.55, 173.86 4.21, 183.19 5.91 C192.51 7.62, 188.76 8.21, 188 9.84 M116.59 1.99 C131.18 -1.56, 150.48 -0.84, 165.52 1.49 C180.56 3.81, 194.01 9.49, 206.83 15.93 C219.66 22.38, 232.83 31.06, 242.47 40.17 C252.12 49.28, 259.84 59.46, 264.69 70.6 C269.53 81.74, 272.1 95.04, 271.56 106.99 C271.03 118.93, 267.37 131.18, 261.49 142.28 C255.62 153.38, 246.86 164.79, 236.34 173.59 C225.82 182.38, 211.76 189.69, 198.38 195.05 C184.99 200.41, 171.03 204.02, 156.05 205.73 C141.07 207.44, 124 207.48, 108.5 205.31 C92.99 203.14, 76.35 199.02, 63.01 192.71 C49.67 186.39, 38 176.74, 28.43 167.4 C18.87 158.07, 10.52 147.64, 5.62 136.69 C0.71 125.75, -1.79 113.77, -0.99 101.73 C-0.19 89.69, 4.25 75.66, 10.42 64.46 C16.59 53.26, 25.66 43.25, 36.02 34.52 C46.39 25.8, 58.94 17.7, 72.6 12.11 C86.25 6.52, 110.26 2.29, 117.97 0.98 C125.68 -0.33, 118.59 2.54, 118.86 4.26" stroke="#1e1e1e" stroke-width="4" fill="none"/></g><g stroke-linecap="round" transform="translate(4.522409690610971 13.896506810232495) rotate(0.5856996206716383 136.65593120651866 108.6892476821487)"><path d="M110.55 1.47 C124.47 -2.54, 142.17 -0.86, 157.53 1.29 C172.9 3.45, 189.06 8.35, 202.74 14.38 C216.42 20.41, 229.44 28.3, 239.63 37.48 C249.81 46.66, 258.33 57.76, 263.87 69.48 C269.42 81.2, 272.68 95.22, 272.89 107.78 C273.1 120.34, 270.09 133.34, 265.12 144.84 C260.14 156.33, 252.89 167.25, 243.06 176.76 C233.22 186.28, 219.43 195.48, 206.13 201.95 C192.83 208.41, 178.41 213.22, 163.28 215.57 C148.15 217.92, 131 218.1, 115.37 216.05 C99.75 214, 83.2 209.17, 69.51 203.29 C55.82 197.4, 43.34 190.07, 33.24 180.75 C23.14 171.42, 14.45 158.94, 8.9 147.34 C3.35 135.73, 0.17 123.52, -0.04 111.12 C-0.25 98.72, 2.69 84.8, 7.64 72.92 C12.6 61.03, 20.06 49.52, 29.7 39.81 C39.35 30.11, 48.89 21.33, 65.5 14.7 C82.12 8.07, 115.94 2.2, 129.41 0.04 C142.87 -2.12, 146.31 -0.03, 146.29 1.73 M200.81 11.43 C214.81 15.19, 225.8 25.98, 236.02 35.26 C246.24 44.54, 256.05 55.91, 262.13 67.11 C268.22 78.31, 271.76 90.24, 272.52 102.47 C273.28 114.7, 271.36 128.58, 266.71 140.49 C262.06 152.41, 254.15 164, 244.62 173.95 C235.1 183.89, 222.83 193.49, 209.56 200.15 C196.29 206.8, 179.9 211.37, 165 213.86 C150.11 216.35, 135.26 216.61, 120.19 215.08 C105.11 213.54, 88.73 210.04, 74.56 204.63 C60.38 199.23, 45.9 191.79, 35.16 182.64 C24.42 173.49, 16.13 161.15, 10.12 149.72 C4.12 138.29, -0.05 126.13, -0.87 114.09 C-1.69 102.05, 0.29 89.49, 5.21 77.49 C10.13 65.48, 18.82 52.11, 28.64 42.06 C38.46 32.02, 51.03 23.81, 64.15 17.23 C77.26 10.64, 92.14 5.29, 107.31 2.57 C122.49 -0.16, 139.57 -0.92, 155.18 0.89 C170.79 2.7, 193.67 11.21, 200.97 13.43 C208.27 15.64, 200.22 12.99, 198.95 14.16" stroke="#1e1e1e" stroke-width="4" fill="none"/></g><g stroke-linecap="round" transform="translate(2.729163401160349 10.754933069554227) rotate(0.5856996206716383 140.60383770065928 112.35786993832149)"><path d="M176.06 3.7 C191.32 5.32, 207.5 13.53, 220.71 20.87 C233.93 28.21, 246.15 37.42, 255.35 47.72 C264.55 58.02, 271.77 70.16, 275.93 82.67 C280.09 95.18, 281.72 109.85, 280.31 122.78 C278.9 135.71, 274.1 148.87, 267.47 160.27 C260.84 171.68, 251.86 182.25, 240.54 191.22 C229.21 200.2, 213.97 208.59, 199.52 214.12 C185.07 219.66, 169.65 223.3, 153.85 224.44 C138.06 225.58, 120.48 224.37, 104.74 220.98 C89.01 217.6, 72.65 211.32, 59.43 204.13 C46.21 196.94, 34.53 188.29, 25.41 177.85 C16.3 167.4, 8.9 153.88, 4.74 141.48 C0.58 129.08, -0.96 116.24, 0.44 103.46 C1.85 90.68, 6.57 76.61, 13.19 64.81 C19.8 53.02, 28.98 41.85, 40.12 32.69 C51.26 23.53, 65.27 15.26, 80.01 9.86 C94.75 4.47, 110.58 0.96, 128.58 0.32 C146.57 -0.33, 176.28 4.01, 187.96 5.99 C199.64 7.96, 199.19 10.35, 198.65 12.17 M184.7 6.1 C199.5 8.51, 215.45 17.16, 228.04 24.95 C240.64 32.74, 251.89 42.02, 260.26 52.84 C268.62 63.65, 275.1 77.16, 278.23 89.82 C281.35 102.48, 281.52 116.02, 279.01 128.79 C276.49 141.55, 271.01 155.18, 263.14 166.39 C255.27 177.6, 243.55 187.79, 231.8 196.02 C220.04 204.25, 207.18 211.05, 192.61 215.75 C178.04 220.44, 160.72 223.61, 144.35 224.18 C127.98 224.74, 109.76 223.3, 94.39 219.14 C79.01 214.98, 64.62 207.23, 52.11 199.22 C39.59 191.21, 27.71 181.68, 19.29 171.06 C10.87 160.44, 4.44 148.25, 1.59 135.5 C-1.27 122.75, -0.66 107.42, 2.15 94.56 C4.96 81.7, 10.75 69.46, 18.46 58.32 C26.17 47.18, 36.38 36.2, 48.42 27.74 C60.45 19.28, 75.54 11.98, 90.65 7.56 C105.76 3.14, 123.09 1.47, 139.07 1.22 C155.06 0.96, 178.9 5.1, 186.57 6.01 C194.24 6.93, 185.78 4.89, 185.1 6.68" stroke="#1e1e1e" stroke-width="4" fill="none"/></g><g stroke-linecap="round" transform="translate(2.873058612399518 8.615535549865285) rotate(0.5856996206716383 135.98335430222176 115.28083223427303)"><path d="M100.96 4.56 C114.71 -0.36, 132.62 -0.49, 148.03 0.53 C163.44 1.54, 179.43 4.9, 193.43 10.64 C207.43 16.38, 221.15 25.45, 232.03 34.94 C242.9 44.44, 252.05 55.87, 258.67 67.59 C265.29 79.3, 270.44 92.22, 271.72 105.21 C273.01 118.2, 270.37 132.74, 266.38 145.52 C262.38 158.29, 256.52 171.13, 247.75 181.87 C238.99 192.6, 226.78 202.53, 213.81 209.93 C200.84 217.33, 185 222.79, 169.94 226.29 C154.89 229.78, 138.82 232.04, 123.49 230.89 C108.16 229.73, 91.99 224.99, 77.99 219.36 C63.99 213.74, 50.36 206.47, 39.48 197.14 C28.61 187.8, 19.38 175.45, 12.74 163.35 C6.11 151.25, 1.16 137.72, -0.31 124.55 C-1.78 111.38, -0.38 96.95, 3.91 84.32 C8.2 71.68, 16.47 59.47, 25.44 48.74 C34.4 38, 43.44 27.78, 57.72 19.9 C72.01 12.02, 100.27 4.36, 111.16 1.47 C122.05 -1.42, 122.52 0.45, 123.08 2.54 M99.25 4.23 C112.99 -1.06, 130.82 -1.91, 146.34 -0.99 C161.86 -0.08, 178.26 4.15, 192.37 9.72 C206.48 15.29, 220.03 23.1, 231 32.44 C241.98 41.78, 251.73 53.9, 258.23 65.76 C264.73 77.62, 268.25 90.72, 270.01 103.6 C271.77 116.48, 272.33 130.25, 268.79 143.04 C265.24 155.82, 257.9 169.18, 248.74 180.3 C239.58 191.42, 226.69 202.16, 213.84 209.74 C201 217.32, 186.64 222.29, 171.66 225.78 C156.68 229.28, 139.54 231.46, 123.97 230.73 C108.39 230.01, 92.05 227.1, 78.21 221.44 C64.36 215.78, 51.59 206.2, 40.91 196.76 C30.23 187.32, 20.79 176.59, 14.13 164.8 C7.47 153, 2.44 139.12, 0.96 126.01 C-0.52 112.89, 1.16 98.62, 5.24 86.11 C9.32 73.6, 16.67 61.75, 25.44 50.94 C34.22 40.13, 45.45 29.31, 57.87 21.26 C70.3 13.21, 92.68 5.12, 99.99 2.66 C107.3 0.2, 101.3 4.6, 101.73 6.48" stroke="#1e1e1e" stroke-width="4" fill="none"/></g></svg>