<svg xmlns="http://www.w3.org/2000/svg" viewBox="0 0 410 190" stroke="#000"><path fill="none"  stroke-linecap="round" stroke-width="4" d="M45 10h70m-70 0h70m0 0v60m0-60v60m0 0H45m70 0H45m0 0V10m0 60V10M60 90h40m-40 0h40m0 0v40m0-40v40m0 0H60m40 0H60m0 0V90m0 40V90"/><text x="30" y="14" font-family="Helvetica, Segoe UI Emoji" font-size="16" style="white-space:pre" text-anchor="middle" transform="translate(50 31)">test</text><text x="15" y="14" font-family="Helvetica, Segoe UI Emoji" font-size="16" style="white-space:pre" text-anchor="middle" transform="translate(65 101)">test</text><path fill="none"  stroke-linecap="round" stroke-width="4" d="M10 150h140m-140 0h140m0 0v28m0-28v28m0 0H10m140 0H10m0 0v-28m0 28v-28"/><text x="65" y="14" font-family="Helvetica, Segoe UI Emoji" font-size="16" style="white-space:pre" text-anchor="middle" transform="translate(15 155)">test</text><g fill-rule="evenodd" stroke-linecap="round"><path stroke-width="0" d="M180 10v170l60-90-60-80"/><path fill="none"  stroke-width="4" d="M180 10v170m0-170v170m0 0c21.15-31.72 42.3-63.45 60-90m-60 90c19.35-29.03 38.7-58.05 60-90m0 0c-19.42-25.89-38.84-51.78-60-80m60 80c-20.43-27.24-40.86-54.47-60-80m0 0s0 0 0 0m0 0s0 0 0 0"/></g><path fill="none"  stroke-linecap="round" stroke-width="4" d="M260 10h140m-140 0h140m0 0v60m0-60v60m0 0H260m140 0H260m0 0V10m0 60V10M260 90h140m-140 0h140m0 0v40m0-40v40m0 0H260m140 0H260m0 0V90m0 40V90"/><text x="30" y="14" font-family="Helvetica, Segoe UI Emoji" font-size="16" style="white-space:pre" text-anchor="middle" transform="translate(300 31)">test</text><text x="15" y="14" font-family="Helvetica, Segoe UI Emoji" font-size="16" style="white-space:pre" text-anchor="middle" transform="translate(315 101)">test</text><path fill="none"  stroke-linecap="round" stroke-width="4" d="M260 150h140m-140 0h140m0 0v28m0-28v28m0 0H260m140 0H260m0 0v-28m0 28v-28"/><text x="65" y="14" font-family="Helvetica, Segoe UI Emoji" font-size="16" style="white-space:pre" text-anchor="middle" transform="translate(265 155)">test</text></svg>