<svg xmlns="http://www.w3.org/2000/svg" viewBox="0 0 260 160" stroke="#000"><path fill="none"  stroke-linecap="round" stroke-width="4" d="M10 10h80m-80 0h80m0 0v40m0-40v40m0 0H10m80 0H10m0 0V10m0 40V10M10 110h20m-20 0h20m0 0v40m0-40v40m0 0H10m20 0H10m0 0v-40m0 40v-40M10 60h40m-40 0h40m0 0v40m0-40v40m0 0H10m40 0H10m0 0V60m0 40V60"/><g fill-rule="evenodd" stroke-linecap="round"><path stroke-width="0" d="m110.167 10-.17 140 40-70-39.83-70"/><path fill="none"  stroke-width="4" d="M110.167 10c-.04 37.8-.09 75.6-.17 140m.17-140c-.03 28.29-.07 56.58-.17 140m0 0c13.69-23.95 27.38-47.9 40-70m-40 70c15.92-27.85 31.83-55.69 40-70m0 0c-14.45-25.41-28.91-50.81-39.83-70m39.83 70c-10.22-17.96-20.44-35.92-39.83-70m0 0s0 0 0 0m0 0s0 0 0 0"/></g><path fill="none"  stroke-linecap="round" stroke-width="4" d="M170 10h80m-80 0h80m0 0v40m0-40v40m0 0h-80m80 0h-80m0 0V10m0 40V10M170 110h80m-80 0h80m0 0v40m0-40v40m0 0h-80m80 0h-80m0 0v-40m0 40v-40M170 60h80m-80 0h80m0 0v40m0-40v40m0 0h-80m80 0h-80m0 0V60m0 40V60"/></svg>