<svg xmlns="http://www.w3.org/2000/svg" viewBox="0 0 210 180" stroke="#000"><path fill="none"  stroke-linecap="round" stroke-width="4" d="M10 10h190M10 10h190m0 0v40m0-40v40m0 0H10m190 0H10m0 0V10m0 40V10M10 70h80m-80 0h80m0 0v40m0-40v40m0 0H10m80 0H10m0 0V70m0 40V70M120 70h80m-80 0h80m0 0v40m0-40v40m0 0h-80m80 0h-80m0 0V70m0 40V70M10 130h50m-50 0h50m0 0v40m0-40v40m0 0H10m50 0H10m0 0v-40m0 40v-40M80 130h50m-50 0h50m0 0v40m0-40v40m0 0H80m50 0H80m0 0v-40m0 40v-40M150 130h50m-50 0h50m0 0v40m0-40v40m0 0h-50m50 0h-50m0 0v-40m0 40v-40"/></svg>