<svg xmlns="http://www.w3.org/2000/svg" viewBox="0 0 520 190" stroke="#000"><path fill="none"  stroke-linecap="round" stroke-width="4" d="M100 10h40m-40 0h40m0 0v80m0-80v80m0 0h-40m40 0h-40m0 0V10m0 80V10M160 10h50m-50 0h50m0 0v30m0-30v30m0 0h-50m50 0h-50m0 0V10m0 30V10"/><text x="15" y="14" font-family="Helvetica, Segoe UI Emoji" font-size="16" style="white-space:pre" text-anchor="middle" transform="translate(105 41)">test</text><text x="20" y="14" font-family="Helvetica, Segoe UI Emoji" font-size="16" style="white-space:pre" text-anchor="middle" transform="translate(165 16)">test</text><path fill="none"  stroke-linecap="round" stroke-width="4" d="M10 10h70m-70 0h70m0 0v170m0-170v170m0 0H10m70 0H10m0 0V10m0 170V10"/><text x="30" y="14" font-family="Helvetica, Segoe UI Emoji" font-size="16" style="white-space:pre" text-anchor="middle" transform="translate(15 86)">test</text><g fill-rule="evenodd" stroke-linecap="round"><path stroke-width="0" d="M230 10v170l60-90-60-80"/><path fill="none"  stroke-width="4" d="M230 10v170m0-170v170m0 0c21.15-31.72 42.3-63.45 60-90m-60 90c19.35-29.03 38.7-58.05 60-90m0 0c-19.42-25.89-38.84-51.78-60-80m60 80c-20.43-27.24-40.86-54.47-60-80m0 0s0 0 0 0m0 0s0 0 0 0"/></g><path fill="none"  stroke-linecap="round" stroke-width="4" d="M400 10h40m-40 0h40m0 0v170m0-170v170m0 0h-40m40 0h-40m0 0V10m0 170V10M460 10h50m-50 0h50m0 0v170m0-170v170m0 0h-50m50 0h-50m0 0V10m0 170V10"/><text x="15" y="14" font-family="Helvetica, Segoe UI Emoji" font-size="16" style="white-space:pre" text-anchor="middle" transform="translate(405 41)">test</text><text x="20" y="14" font-family="Helvetica, Segoe UI Emoji" font-size="16" style="white-space:pre" text-anchor="middle" transform="translate(465 16)">test</text><path fill="none"  stroke-linecap="round" stroke-width="4" d="M310 10h70m-70 0h70m0 0v170m0-170v170m0 0h-70m70 0h-70m0 0V10m0 170V10"/><text x="30" y="14" font-family="Helvetica, Segoe UI Emoji" font-size="16" style="white-space:pre" text-anchor="middle" transform="translate(315 86)">test</text></svg>