<svg xmlns="http://www.w3.org/2000/svg" viewBox="0 0 180 190"><path fill="none"  stroke-linecap="round" stroke-width="4" d="M10 180V10m0 170V10m0 0h40m-40 0h40m0 0v170m0-170v170m0 0H10m40 0H10M70 180v-70m0 70v-70m0 0h40m-40 0h40m0 0v70m0-70v70m0 0H70m40 0H70M70 80V10m0 70V10m0 0h40m-40 0h40m0 0v70m0-70v70m0 0H70m40 0H70M130 50V10m0 40V10m0 0h40m-40 0h40m0 0v40m0-40v40m0 0h-40m40 0h-40M130 115V75m0 40V75m0 0h40m-40 0h40m0 0v40m0-40v40m0 0h-40m40 0h-40M130 180v-40m0 40v-40m0 0h40m-40 0h40m0 0v40m0-40v40m0 0h-40m40 0h-40"/></svg>