<svg xmlns="http://www.w3.org/2000/svg" viewBox="0 0 210 150" stroke="#000"><path fill="none"  stroke-linecap="round" stroke-width="4" d="M10 10h60m-60 0h60m0 0v40m0-40v40m0 0H10m60 0H10m0 0V10m0 40V10M120 10h80m-80 0h80m0 0v40m0-40v40m0 0h-80m80 0h-80m0 0V10m0 40V10M150 100h50m-50 0h50m0 0v40m0-40v40m0 0h-50m50 0h-50m0 0v-40m0 40v-40M10 100h90m-90 0h90m0 0v40m0-40v40m0 0H10m90 0H10m0 0v-40m0 40v-40"/><g stroke-linecap="round"><path fill="none"  stroke-width="4" d="M70 30h48m-48 0h48"/><path fill-rule="evenodd" stroke-width="0" d="m70 30 13.59-6.34v12.68L70 30"/><path fill="none"  stroke-width="4" d="M70 30c4.1-1.91 8.2-3.82 13.59-6.34M70 30c4.27-1.99 8.55-3.99 13.59-6.34m0 0v12.68m0-12.68v12.68m0 0C80.71 35 77.84 33.65 70 30m13.59 6.34L70 30m0 0s0 0 0 0m0 0s0 0 0 0"/><g><path fill-rule="evenodd" stroke-width="0" d="m118 30-13.59 6.34V23.66L118 30"/><path fill="none"  stroke-width="4" d="M118 30c-4.1 1.91-8.2 3.82-13.59 6.34M118 30c-4.27 1.99-8.55 3.99-13.59 6.34m0 0V23.66m0 12.68V23.66m0 0C107.29 25 110.16 26.35 118 30m-13.59-6.34L118 30m0 0s0 0 0 0m0 0s0 0 0 0"/></g></g><g stroke-linecap="round"><path fill="none"  stroke-width="4" d="M100 120h48m-48 0h48"/><path fill-rule="evenodd" stroke-width="0" d="m100 120 13.59-6.34v12.68L100 120"/><path fill="none"  stroke-width="4" d="m100 120 13.59-6.34M100 120c2.9-1.35 5.79-2.7 13.59-6.34m0 0v12.68m0-12.68v12.68m0 0c-4.35-2.03-8.7-4.06-13.59-6.34m13.59 6.34c-3.08-1.44-6.16-2.87-13.59-6.34m0 0s0 0 0 0m0 0s0 0 0 0"/><g><path fill-rule="evenodd" stroke-width="0" d="m148 120-13.59 6.34v-12.68L148 120"/><path fill="none"  stroke-width="4" d="m148 120-13.59 6.34M148 120c-2.9 1.35-5.79 2.7-13.59 6.34m0 0v-12.68m0 12.68v-12.68m0 0c4.35 2.03 8.7 4.06 13.59 6.34m-13.59-6.34c3.08 1.44 6.16 2.87 13.59 6.34m0 0s0 0 0 0m0 0s0 0 0 0"/></g></g><g stroke-linecap="round"><path fill="none"  stroke-width="4" d="M180 50v48m0-48v48"/><path fill-rule="evenodd" stroke-width="0" d="m180 50 6.34 13.59h-12.68L180 50"/><path fill="none"  stroke-width="4" d="M180 50c1.31 2.81 2.62 5.61 6.34 13.59M180 50l6.34 13.59m0 0h-12.68m12.68 0h-12.68m0 0c2.03-4.34 4.05-8.69 6.34-13.59m-6.34 13.59c1.94-4.15 3.88-8.31 6.34-13.59m0 0s0 0 0 0m0 0s0 0 0 0"/><g><path fill-rule="evenodd" stroke-width="0" d="m180 98-6.34-13.59h12.68L180 98"/><path fill="none"  stroke-width="4" d="M180 98c-1.31-2.81-2.62-5.61-6.34-13.59M180 98l-6.34-13.59m0 0h12.68m-12.68 0h12.68m0 0c-2.03 4.34-4.05 8.69-6.34 13.59m6.34-13.59c-1.94 4.15-3.88 8.31-6.34 13.59m0 0s0 0 0 0m0 0s0 0 0 0"/></g></g></svg>