<svg xmlns="http://www.w3.org/2000/svg" viewBox="0 0 460 290" stroke="#000"><path fill="none"  stroke-linecap="round" stroke-width="4" d="M10 10h60m-60 0h60m0 0v60m0-60v60m0 0H10m60 0H10m0 0V10m0 60V10M90 80h60m-60 0h60m0 0v60m0-60v60m0 0H90m60 0H90m0 0V80m0 60V80M50 50h50m-50 0h50m0 0v60m0-60v60m0 0H50m50 0H50m0 0V50m0 60V50M130 150h30m-30 0h30m0 0v60m0-60v60m0 0h-30m30 0h-30m0 0v-60m0 60v-60"/><g fill-rule="evenodd" stroke-linecap="round"><path stroke-width="0" d="m190.583 10-.58 269.33 81.66-130L190.583 10"/><path fill="none"  stroke-width="4" d="M190.583 10c-.2 94.2-.41 188.39-.58 269.33m.58-269.33c-.18 81.45-.35 162.91-.58 269.33m0 0c28.12-44.76 56.24-89.53 81.66-130m-81.66 130c19.55-31.13 39.11-62.26 81.66-130m0 0c-21.28-36.56-42.55-73.13-81.08-139.33m81.08 139.33c-30.5-52.42-61.01-104.84-81.08-139.33m0 0s0 0 0 0m0 0s0 0 0 0"/></g><path fill="none"  stroke-linecap="round" stroke-width="4" d="M300 10h60m-60 0h60m0 0v60m0-60v60m0 0h-60m60 0h-60m0 0V10m0 60V10M380 150h60m-60 0h60m0 0v60m0-60v60m0 0h-60m60 0h-60m0 0v-60m0 60v-60M340 80h50m-50 0h50m0 0v60m0-60v60m0 0h-50m50 0h-50m0 0V80m0 60V80M420 220h30m-30 0h30m0 0v60m0-60v60m0 0h-30m30 0h-30m0 0v-60m0 60v-60"/></svg>