<svg xmlns="http://www.w3.org/2000/svg" viewBox="0 0 220 200" stroke="#000"><path fill="none"  stroke-linecap="round" stroke-width="4" d="M140 40c0 1.74-.15 3.5-.46 5.21-.3 1.71-.76 3.42-1.35 5.05-.59 1.63-1.34 3.24-2.21 4.74a30.18 30.18 0 0 1-3 4.28 29.393 29.393 0 0 1-3.7 3.7 30.18 30.18 0 0 1-4.28 3c-1.5.87-3.11 1.62-4.74 2.21-1.63.59-3.34 1.05-5.05 1.35-1.71.31-3.47.46-5.21.46-1.74 0-3.5-.15-5.21-.46-1.71-.3-3.42-.76-5.05-1.35-1.63-.59-3.24-1.34-4.74-2.21a30.18 30.18 0 0 1-4.28-3 29.393 29.393 0 0 1-3.7-3.7 30.18 30.18 0 0 1-3-4.28c-.87-1.5-1.62-3.11-2.21-4.74-.59-1.63-1.05-3.34-1.35-5.05C80.15 43.5 80 41.74 80 40c0-1.74.15-3.5.46-5.21.3-1.71.76-3.42 1.35-5.05.59-1.63 1.34-3.24 2.21-4.74.87-1.5 1.88-2.95 3-4.28 1.11-1.33 2.37-2.59 3.7-3.7a30.18 30.18 0 0 1 4.28-3c1.5-.87 3.11-1.62 4.74-2.21 1.63-.59 3.34-1.05 5.05-1.35 1.71-.31 3.47-.46 5.21-.46 1.74 0 3.5.15 5.21.46 1.71.3 3.42.76 5.05 1.35 1.63.59 3.24 1.34 4.74 2.21 1.5.87 2.95 1.88 4.28 3 1.33 1.11 2.59 2.37 3.7 3.7a30.18 30.18 0 0 1 3 4.28c.87 1.5 1.62 3.11 2.21 4.74.59 1.63 1.05 3.34 1.35 5.05.31 1.71.38 4.34.46 5.21.08.87.08-.87 0 0M210 40c0 1.74-.15 3.5-.46 5.21-.3 1.71-.76 3.42-1.35 5.05-.59 1.63-1.34 3.24-2.21 4.74a30.18 30.18 0 0 1-3 4.28 29.393 29.393 0 0 1-3.7 3.7 30.18 30.18 0 0 1-4.28 3c-1.5.87-3.11 1.62-4.74 2.21-1.63.59-3.34 1.05-5.05 1.35-1.71.31-3.47.46-5.21.46-1.74 0-3.5-.15-5.21-.46-1.71-.3-3.42-.76-5.05-1.35-1.63-.59-3.24-1.34-4.74-2.21a30.18 30.18 0 0 1-4.28-3 29.393 29.393 0 0 1-3.7-3.7 30.18 30.18 0 0 1-3-4.28c-.87-1.5-1.62-3.11-2.21-4.74-.59-1.63-1.05-3.34-1.35-5.05-.31-1.71-.46-3.47-.46-5.21 0-1.74.15-3.5.46-5.21.3-1.71.76-3.42 1.35-5.05.59-1.63 1.34-3.24 2.21-4.74.87-1.5 1.88-2.95 3-4.28 1.11-1.33 2.37-2.59 3.7-3.7a30.18 30.18 0 0 1 4.28-3c1.5-.87 3.11-1.62 4.74-2.21 1.63-.59 3.34-1.05 5.05-1.35 1.71-.31 3.47-.46 5.21-.46 1.74 0 3.5.15 5.21.46 1.71.3 3.42.76 5.05 1.35 1.63.59 3.24 1.34 4.74 2.21 1.5.87 2.95 1.88 4.28 3 1.33 1.11 2.59 2.37 3.7 3.7a30.18 30.18 0 0 1 3 4.28c.87 1.5 1.62 3.11 2.21 4.74.59 1.63 1.05 3.34 1.35 5.05.31 1.71.38 4.34.46 5.21.08.87.08-.87 0 0M70 40c0 1.74-.15 3.5-.46 5.21-.3 1.71-.76 3.42-1.35 5.05-.59 1.63-1.34 3.24-2.21 4.74a30.18 30.18 0 0 1-3 4.28 29.393 29.393 0 0 1-3.7 3.7 30.18 30.18 0 0 1-4.28 3c-1.5.87-3.11 1.62-4.74 2.21-1.63.59-3.34 1.05-5.05 1.35-1.71.31-3.47.46-5.21.46-1.74 0-3.5-.15-5.21-.46-1.71-.3-3.42-.76-5.05-1.35-1.63-.59-3.24-1.34-4.74-2.21a30.18 30.18 0 0 1-4.28-3 29.393 29.393 0 0 1-3.7-3.7 30.18 30.18 0 0 1-3-4.28c-.87-1.5-1.62-3.11-2.21-4.74-.59-1.63-1.05-3.34-1.35-5.05C10.15 43.5 10 41.74 10 40c0-1.74.15-3.5.46-5.21.3-1.71.76-3.42 1.35-5.05.59-1.63 1.34-3.24 2.21-4.74.87-1.5 1.88-2.95 3-4.28 1.11-1.33 2.37-2.59 3.7-3.7a30.18 30.18 0 0 1 4.28-3c1.5-.87 3.11-1.62 4.74-2.21 1.63-.59 3.34-1.05 5.05-1.35C36.5 10.15 38.26 10 40 10c1.74 0 3.5.15 5.21.46 1.71.3 3.42.76 5.05 1.35 1.63.59 3.24 1.34 4.74 2.21 1.5.87 2.95 1.88 4.28 3 1.33 1.11 2.59 2.37 3.7 3.7a30.18 30.18 0 0 1 3 4.28c.87 1.5 1.62 3.11 2.21 4.74.59 1.63 1.05 3.34 1.35 5.05.31 1.71.38 4.34.46 5.21.08.87.08-.87 0 0M110 160c0 1.74-.15 3.5-.46 5.21-.3 1.71-.76 3.42-1.35 5.05-.59 1.63-1.34 3.24-2.21 4.74a30.18 30.18 0 0 1-3 4.28 29.393 29.393 0 0 1-3.7 3.7 30.18 30.18 0 0 1-4.28 3c-1.5.87-3.11 1.62-4.74 2.21-1.63.59-3.34 1.05-5.05 1.35-1.71.31-3.47.46-5.21.46-1.74 0-3.5-.15-5.21-.46-1.71-.3-3.42-.76-5.05-1.35-1.63-.59-3.24-1.34-4.74-2.21a30.18 30.18 0 0 1-4.28-3 29.393 29.393 0 0 1-3.7-3.7 30.18 30.18 0 0 1-3-4.28c-.87-1.5-1.62-3.11-2.21-4.74-.59-1.63-1.05-3.34-1.35-5.05-.31-1.71-.46-3.47-.46-5.21 0-1.74.15-3.5.46-5.21.3-1.71.76-3.42 1.35-5.05.59-1.63 1.34-3.24 2.21-4.74.87-1.5 1.88-2.95 3-4.28 1.11-1.33 2.37-2.59 3.7-3.7a30.18 30.18 0 0 1 4.28-3c1.5-.87 3.11-1.62 4.74-2.21 1.63-.59 3.34-1.05 5.05-1.35 1.71-.31 3.47-.46 5.21-.46 1.74 0 3.5.15 5.21.46 1.71.3 3.42.76 5.05 1.35 1.63.59 3.24 1.34 4.74 2.21 1.5.87 2.95 1.88 4.28 3 1.33 1.11 2.59 2.37 3.7 3.7a30.18 30.18 0 0 1 3 4.28c.87 1.5 1.62 3.11 2.21 4.74.59 1.63 1.05 3.34 1.35 5.05.31 1.71.38 4.34.46 5.21.08.87.08-.87 0 0"/><path fill="none"  stroke-linecap="round" stroke-width="4" d="M140 160c0 1.74-.15 3.5-.46 5.21-.3 1.71-.76 3.42-1.35 5.05-.59 1.63-1.34 3.24-2.21 4.74a30.18 30.18 0 0 1-3 4.28 29.393 29.393 0 0 1-3.7 3.7 30.18 30.18 0 0 1-4.28 3c-1.5.87-3.11 1.62-4.74 2.21-1.63.59-3.34 1.05-5.05 1.35-1.71.31-3.47.46-5.21.46-1.74 0-3.5-.15-5.21-.46-1.71-.3-3.42-.76-5.05-1.35-1.63-.59-3.24-1.34-4.74-2.21a30.18 30.18 0 0 1-4.28-3 29.393 29.393 0 0 1-3.7-3.7 30.18 30.18 0 0 1-3-4.28c-.87-1.5-1.62-3.11-2.21-4.74-.59-1.63-1.05-3.34-1.35-5.05-.31-1.71-.46-3.47-.46-5.21 0-1.74.15-3.5.46-5.21.3-1.71.76-3.42 1.35-5.05.59-1.63 1.34-3.24 2.21-4.74.87-1.5 1.88-2.95 3-4.28 1.11-1.33 2.37-2.59 3.7-3.7a30.18 30.18 0 0 1 4.28-3c1.5-.87 3.11-1.62 4.74-2.21 1.63-.59 3.34-1.05 5.05-1.35 1.71-.31 3.47-.46 5.21-.46 1.74 0 3.5.15 5.21.46 1.71.3 3.42.76 5.05 1.35 1.63.59 3.24 1.34 4.74 2.21 1.5.87 2.95 1.88 4.28 3 1.33 1.11 2.59 2.37 3.7 3.7a30.18 30.18 0 0 1 3 4.28c.87 1.5 1.62 3.11 2.21 4.74.59 1.63 1.05 3.34 1.35 5.05.31 1.71.38 4.34.46 5.21.08.87.08-.87 0 0"/><path fill="none"  stroke-linecap="round" stroke-width="4" d="M180 160c0 1.74-.15 3.5-.46 5.21-.3 1.71-.76 3.42-1.35 5.05-.59 1.63-1.34 3.24-2.21 4.74a30.18 30.18 0 0 1-3 4.28 29.393 29.393 0 0 1-3.7 3.7 30.18 30.18 0 0 1-4.28 3c-1.5.87-3.11 1.62-4.74 2.21-1.63.59-3.34 1.05-5.05 1.35-1.71.31-3.47.46-5.21.46-1.74 0-3.5-.15-5.21-.46-1.71-.3-3.42-.76-5.05-1.35-1.63-.59-3.24-1.34-4.74-2.21a30.18 30.18 0 0 1-4.28-3 29.393 29.393 0 0 1-3.7-3.7 30.18 30.18 0 0 1-3-4.28c-.87-1.5-1.62-3.11-2.21-4.74-.59-1.63-1.05-3.34-1.35-5.05-.31-1.71-.46-3.47-.46-5.21 0-1.74.15-3.5.46-5.21.3-1.71.76-3.42 1.35-5.05.59-1.63 1.34-3.24 2.21-4.74.87-1.5 1.88-2.95 3-4.28 1.11-1.33 2.37-2.59 3.7-3.7a30.18 30.18 0 0 1 4.28-3c1.5-.87 3.11-1.62 4.74-2.21 1.63-.59 3.34-1.05 5.05-1.35 1.71-.31 3.47-.46 5.21-.46 1.74 0 3.5.15 5.21.46 1.71.3 3.42.76 5.05 1.35 1.63.59 3.24 1.34 4.74 2.21 1.5.87 2.95 1.88 4.28 3 1.33 1.11 2.59 2.37 3.7 3.7a30.18 30.18 0 0 1 3 4.28c.87 1.5 1.62 3.11 2.21 4.74.59 1.63 1.05 3.34 1.35 5.05.31 1.71.38 4.34.46 5.21.08.87.08-.87 0 0"/><g fill-rule="evenodd" stroke-linecap="round"><path stroke-width="0" d="M100 80v20H60l50 20 50-20h-40V80h-20"/><path fill="none"  stroke-width="4" d="M100 80v20m0-20v20m0 0H60m40 0H60m0 0c19.35 7.74 38.69 15.48 50 20m-50-20c11.1 4.44 22.19 8.88 50 20m0 0c19.11-7.64 38.21-15.29 50-20m-50 20c12.95-5.18 25.89-10.36 50-20m0 0h-40m40 0h-40m0 0V80m0 20V80m0 0h-20m20 0h-20m0 0s0 0 0 0m0 0s0 0 0 0"/></g></svg>