<svg xmlns="http://www.w3.org/2000/svg" viewBox="0 0 130 130" stroke="#000"><path fill="none"  stroke-linecap="round" stroke-width="4" d="M120 65a55.086 55.086 0 0 1-1.87 14.24c-.62 2.31-1.4 4.6-2.32 6.81-.91 2.21-1.98 4.38-3.18 6.45-1.2 2.07-2.54 4.08-4 5.98-1.45 1.9-3.05 3.72-4.74 5.41a54.136 54.136 0 0 1-5.41 4.74c-1.9 1.46-3.91 2.8-5.98 4-2.07 1.2-4.24 2.27-6.45 3.18-2.21.92-4.5 1.7-6.81 2.32A55.086 55.086 0 0 1 65 120a55.086 55.086 0 0 1-14.24-1.87c-2.31-.62-4.6-1.4-6.81-2.32-2.21-.91-4.38-1.98-6.45-3.18-2.07-1.2-4.08-2.54-5.98-4-1.9-1.45-3.72-3.05-5.41-4.74a54.136 54.136 0 0 1-4.74-5.41c-1.46-1.9-2.8-3.91-4-5.98-1.2-2.07-2.27-4.24-3.18-6.45-.92-2.21-1.7-4.5-2.32-6.81A55.086 55.086 0 0 1 10 65a55.086 55.086 0 0 1 1.87-14.24c.62-2.31 1.4-4.6 2.32-6.81.91-2.21 1.98-4.38 3.18-6.45 1.2-2.07 2.54-4.08 4-5.98 1.45-1.9 3.05-3.72 4.74-5.41 1.69-1.69 3.51-3.29 5.41-4.74 1.9-1.46 3.91-2.8 5.98-4 2.07-1.2 4.24-2.27 6.45-3.18 2.21-.92 4.5-1.7 6.81-2.32A55.086 55.086 0 0 1 65 10a55.086 55.086 0 0 1 14.24 1.87c2.31.62 4.6 1.4 6.81 2.32 2.21.91 4.38 1.98 6.45 3.18 2.07 1.2 4.08 2.54 5.98 4 1.9 1.45 3.72 3.05 5.41 4.74 1.69 1.69 3.29 3.51 4.74 5.41 1.46 1.9 2.8 3.91 4 5.98 1.2 2.07 2.27 4.24 3.18 6.45.92 2.21 1.7 4.5 2.32 6.81.62 2.32 1.09 4.69 1.4 7.06.31 2.37.39 5.98.47 7.18.08 1.2.08-1.2 0 0"/><path fill="none"  stroke-linecap="round" stroke-width="4" d="M110 70c0 1.9-.14 3.81-.41 5.69-.27 1.88-.68 3.76-1.21 5.58-.53 1.82-1.21 3.62-1.99 5.35-.79 1.72-1.71 3.41-2.74 5.01a41.072 41.072 0 0 1-3.42 4.56c-1.24 1.44-2.6 2.8-4.04 4.04a41.072 41.072 0 0 1-4.56 3.42c-1.6 1.03-3.29 1.95-5.01 2.74-1.73.78-3.53 1.46-5.35 1.99-1.82.53-3.7.94-5.58 1.21S71.9 110 70 110c-1.9 0-3.81-.14-5.69-.41-1.88-.27-3.76-.68-5.58-1.21-1.82-.53-3.62-1.21-5.35-1.99-1.72-.79-3.41-1.71-5.01-2.74a41.072 41.072 0 0 1-4.56-3.42c-1.44-1.24-2.8-2.6-4.04-4.04a41.072 41.072 0 0 1-3.42-4.56c-1.03-1.6-1.95-3.29-2.74-5.01-.78-1.73-1.46-3.53-1.99-5.35-.53-1.82-.94-3.7-1.21-5.58A40.12 40.12 0 0 1 30 70c0-1.9.14-3.81.41-5.69.27-1.88.68-3.76 1.21-5.58.53-1.82 1.21-3.62 1.99-5.35.79-1.72 1.71-3.41 2.74-5.01 1.03-1.59 2.18-3.13 3.42-4.56 1.24-1.44 2.6-2.8 4.04-4.04 1.43-1.24 2.97-2.39 4.56-3.42 1.6-1.03 3.29-1.95 5.01-2.74 1.73-.78 3.53-1.46 5.35-1.99 1.82-.53 3.7-.94 5.58-1.21S68.1 30 70 30c1.9 0 3.81.14 5.69.41 1.88.27 3.76.68 5.58 1.21 1.82.53 3.62 1.21 5.35 1.99 1.72.79 3.41 1.71 5.01 2.74 1.59 1.03 3.13 2.18 4.56 3.42 1.44 1.24 2.8 2.6 4.04 4.04 1.24 1.43 2.39 2.97 3.42 4.56 1.03 1.6 1.95 3.29 2.74 5.01.78 1.73 1.46 3.53 1.99 5.35.53 1.82.94 3.7 1.21 5.58s.34 4.74.41 5.69c.07.95.07-.95 0 0"/><path fill="none"  stroke-linecap="round" stroke-width="4" d="M100 75c0 1.45-.13 2.92-.38 4.34-.25 1.43-.63 2.85-1.13 4.21a24.875 24.875 0 0 1-4.34 7.52c-.93 1.11-1.97 2.15-3.08 3.08a24.875 24.875 0 0 1-7.52 4.34c-1.36.5-2.78.88-4.21 1.13-1.42.25-2.89.38-4.34.38-1.45 0-2.92-.13-4.34-.38-1.43-.25-2.85-.63-4.21-1.13a24.875 24.875 0 0 1-7.52-4.34c-1.11-.93-2.15-1.97-3.08-3.08a24.875 24.875 0 0 1-4.34-7.52c-.5-1.36-.88-2.78-1.13-4.21-.25-1.42-.38-2.89-.38-4.34 0-1.45.13-2.92.38-4.34.25-1.43.63-2.85 1.13-4.21a24.875 24.875 0 0 1 4.34-7.52c.93-1.11 1.97-2.15 3.08-3.08a24.875 24.875 0 0 1 7.52-4.34c1.36-.5 2.78-.88 4.21-1.13 1.42-.25 2.89-.38 4.34-.38 1.45 0 2.92.13 4.34.38 1.43.25 2.85.63 4.21 1.13a24.875 24.875 0 0 1 7.52 4.34c1.11.93 2.15 1.97 3.08 3.08a24.875 24.875 0 0 1 4.34 7.52c.5 1.36.88 2.78 1.13 4.21.25 1.42.32 3.62.38 4.34.06.72.06-.72 0 0"/></svg>