<svg xmlns="http://www.w3.org/2000/svg" viewBox="0 0 220 180" stroke="#000"><path fill="none"  stroke-linecap="round" stroke-width="4" d="M50 30c0 1.16-.1 2.33-.3 3.47-.2 1.14-.51 2.28-.91 3.37-.39 1.09-.89 2.16-1.47 3.16s-1.25 1.97-2 2.86c-.74.88-1.58 1.72-2.46 2.46-.89.75-1.86 1.42-2.86 2-1 .58-2.07 1.08-3.16 1.47-1.09.4-2.23.71-3.37.91a20.157 20.157 0 0 1-6.94 0c-1.14-.2-2.28-.51-3.37-.91-1.09-.39-2.16-.89-3.16-1.47s-1.97-1.25-2.86-2c-.88-.74-1.72-1.58-2.46-2.46-.75-.89-1.42-1.86-2-2.86-.58-1-1.08-2.07-1.47-3.16-.4-1.09-.71-2.23-.91-3.37a20.157 20.157 0 0 1 0-6.94c.2-1.14.51-2.28.91-3.37.39-1.09.89-2.16 1.47-3.16s1.25-1.97 2-2.86c.74-.88 1.58-1.72 2.46-2.46.89-.75 1.86-1.42 2.86-2 1-.58 2.07-1.08 3.16-1.47 1.09-.4 2.23-.71 3.37-.91a20.157 20.157 0 0 1 6.94 0c1.14.2 2.28.51 3.37.91 1.09.39 2.16.89 3.16 1.47s1.97 1.25 2.86 2c.88.74 1.72 1.58 2.46 2.46.75.89 1.42 1.86 2 2.86.58 1 1.08 2.07 1.47 3.16.4 1.09.71 2.23.91 3.37.2 1.14.25 2.89.3 3.47.05.58.05-.58 0 0M50 90c0 1.16-.1 2.33-.3 3.47-.2 1.14-.51 2.28-.91 3.37-.39 1.09-.89 2.16-1.47 3.16s-1.25 1.97-2 2.86c-.74.88-1.58 1.72-2.46 2.46-.89.75-1.86 1.42-2.86 2-1 .58-2.07 1.08-3.16 1.47-1.09.4-2.23.71-3.37.91a20.157 20.157 0 0 1-6.94 0c-1.14-.2-2.28-.51-3.37-.91-1.09-.39-2.16-.89-3.16-1.47s-1.97-1.25-2.86-2c-.88-.74-1.72-1.58-2.46-2.46-.75-.89-1.42-1.86-2-2.86-.58-1-1.08-2.07-1.47-3.16-.4-1.09-.71-2.23-.91-3.37a20.157 20.157 0 0 1 0-6.94c.2-1.14.51-2.28.91-3.37.39-1.09.89-2.16 1.47-3.16s1.25-1.97 2-2.86c.74-.88 1.58-1.72 2.46-2.46.89-.75 1.86-1.42 2.86-2 1-.58 2.07-1.08 3.16-1.47 1.09-.4 2.23-.71 3.37-.91a20.157 20.157 0 0 1 6.94 0c1.14.2 2.28.51 3.37.91 1.09.39 2.16.89 3.16 1.47s1.97 1.25 2.86 2c.88.74 1.72 1.58 2.46 2.46.75.89 1.42 1.86 2 2.86.58 1 1.08 2.07 1.47 3.16.4 1.09.71 2.23.91 3.37.2 1.14.25 2.89.3 3.47.05.58.05-.58 0 0M50 150c0 1.16-.1 2.33-.3 3.47-.2 1.14-.51 2.28-.91 3.37-.39 1.09-.89 2.16-1.47 3.16s-1.25 1.97-2 2.86c-.74.88-1.58 1.72-2.46 2.46-.89.75-1.86 1.42-2.86 2-1 .58-2.07 1.08-3.16 1.47-1.09.4-2.23.71-3.37.91a20.157 20.157 0 0 1-6.94 0c-1.14-.2-2.28-.51-3.37-.91-1.09-.39-2.16-.89-3.16-1.47s-1.97-1.25-2.86-2c-.88-.74-1.72-1.58-2.46-2.46-.75-.89-1.42-1.86-2-2.86-.58-1-1.08-2.07-1.47-3.16-.4-1.09-.71-2.23-.91-3.37a20.157 20.157 0 0 1 0-6.94c.2-1.14.51-2.28.91-3.37.39-1.09.89-2.16 1.47-3.16s1.25-1.97 2-2.86c.74-.88 1.58-1.72 2.46-2.46.89-.75 1.86-1.42 2.86-2 1-.58 2.07-1.08 3.16-1.47 1.09-.4 2.23-.71 3.37-.91a20.157 20.157 0 0 1 6.94 0c1.14.2 2.28.51 3.37.91 1.09.39 2.16.89 3.16 1.47s1.97 1.25 2.86 2c.88.74 1.72 1.58 2.46 2.46.75.89 1.42 1.86 2 2.86.58 1 1.08 2.07 1.47 3.16.4 1.09.71 2.23.91 3.37.2 1.14.25 2.89.3 3.47.05.58.05-.58 0 0M210 30c0 1.16-.1 2.33-.3 3.47-.2 1.14-.51 2.28-.91 3.37-.39 1.09-.89 2.16-1.47 3.16s-1.25 1.97-2 2.86c-.74.88-1.58 1.72-2.46 2.46-.89.75-1.86 1.42-2.86 2-1 .58-2.07 1.08-3.16 1.47-1.09.4-2.23.71-3.37.91a20.157 20.157 0 0 1-6.94 0c-1.14-.2-2.28-.51-3.37-.91-1.09-.39-2.16-.89-3.16-1.47s-1.97-1.25-2.86-2c-.88-.74-1.72-1.58-2.46-2.46-.75-.89-1.42-1.86-2-2.86-.58-1-1.08-2.07-1.47-3.16-.4-1.09-.71-2.23-.91-3.37a20.157 20.157 0 0 1 0-6.94c.2-1.14.51-2.28.91-3.37.39-1.09.89-2.16 1.47-3.16s1.25-1.97 2-2.86c.74-.88 1.58-1.72 2.46-2.46.89-.75 1.86-1.42 2.86-2 1-.58 2.07-1.08 3.16-1.47 1.09-.4 2.23-.71 3.37-.91a20.157 20.157 0 0 1 6.94 0c1.14.2 2.28.51 3.37.91 1.09.39 2.16.89 3.16 1.47s1.97 1.25 2.86 2c.88.74 1.72 1.58 2.46 2.46.75.89 1.42 1.86 2 2.86.58 1 1.08 2.07 1.47 3.16.4 1.09.71 2.23.91 3.37.2 1.14.25 2.89.3 3.47.05.58.05-.58 0 0"/><path fill="none"  stroke-linecap="round" stroke-width="4" d="M210 50c0 1.16-.1 2.33-.3 3.47-.2 1.14-.51 2.28-.91 3.37-.39 1.09-.89 2.16-1.47 3.16s-1.25 1.97-2 2.86c-.74.88-1.58 1.72-2.46 2.46-.89.75-1.86 1.42-2.86 2-1 .58-2.07 1.08-3.16 1.47-1.09.4-2.23.71-3.37.91a20.157 20.157 0 0 1-6.94 0c-1.14-.2-2.28-.51-3.37-.91-1.09-.39-2.16-.89-3.16-1.47s-1.97-1.25-2.86-2c-.88-.74-1.72-1.58-2.46-2.46-.75-.89-1.42-1.86-2-2.86-.58-1-1.08-2.07-1.47-3.16-.4-1.09-.71-2.23-.91-3.37a20.157 20.157 0 0 1 0-6.94c.2-1.14.51-2.28.91-3.37.39-1.09.89-2.16 1.47-3.16s1.25-1.97 2-2.86c.74-.88 1.58-1.72 2.46-2.46.89-.75 1.86-1.42 2.86-2 1-.58 2.07-1.08 3.16-1.47 1.09-.4 2.23-.71 3.37-.91a20.157 20.157 0 0 1 6.94 0c1.14.2 2.28.51 3.37.91 1.09.39 2.16.89 3.16 1.47s1.97 1.25 2.86 2c.88.74 1.72 1.58 2.46 2.46.75.89 1.42 1.86 2 2.86.58 1 1.08 2.07 1.47 3.16.4 1.09.71 2.23.91 3.37.2 1.14.25 2.89.3 3.47.05.58.05-.58 0 0"/><path fill="none"  stroke-linecap="round" stroke-width="4" d="M210 70c0 1.16-.1 2.33-.3 3.47-.2 1.14-.51 2.28-.91 3.37-.39 1.09-.89 2.16-1.47 3.16s-1.25 1.97-2 2.86c-.74.88-1.58 1.72-2.46 2.46-.89.75-1.86 1.42-2.86 2-1 .58-2.07 1.08-3.16 1.47-1.09.4-2.23.71-3.37.91a20.157 20.157 0 0 1-6.94 0c-1.14-.2-2.28-.51-3.37-.91-1.09-.39-2.16-.89-3.16-1.47s-1.97-1.25-2.86-2c-.88-.74-1.72-1.58-2.46-2.46-.75-.89-1.42-1.86-2-2.86-.58-1-1.08-2.07-1.47-3.16-.4-1.09-.71-2.23-.91-3.37a20.157 20.157 0 0 1 0-6.94c.2-1.14.51-2.28.91-3.37.39-1.09.89-2.16 1.47-3.16s1.25-1.97 2-2.86c.74-.88 1.58-1.72 2.46-2.46.89-.75 1.86-1.42 2.86-2 1-.58 2.07-1.08 3.16-1.47 1.09-.4 2.23-.71 3.37-.91a20.157 20.157 0 0 1 6.94 0c1.14.2 2.28.51 3.37.91 1.09.39 2.16.89 3.16 1.47s1.97 1.25 2.86 2c.88.74 1.72 1.58 2.46 2.46.75.89 1.42 1.86 2 2.86.58 1 1.08 2.07 1.47 3.16.4 1.09.71 2.23.91 3.37.2 1.14.25 2.89.3 3.47.05.58.05-.58 0 0"/><g fill-rule="evenodd" stroke-linecap="round"><path stroke-width="0" d="m90 10 .42 159.67L130 90 90 10"/><path fill="none"  stroke-width="4" d="M90 10c.15 58.07.3 116.15.42 159.67M90 10c.17 63.53.33 127.06.42 159.67m0 0C102.36 145.63 114.3 121.6 130 90m-39.58 79.67c15.02-30.25 30.05-60.5 39.58-79.67m0 0c-10.06-20.11-20.11-40.23-40-80m40 80c-12.71-25.43-25.43-50.85-40-80m0 0s0 0 0 0m0 0s0 0 0 0"/></g></svg>