<svg xmlns="http://www.w3.org/2000/svg" viewBox="0 0 642.8 373.7" stroke="currentColor"><path stroke-linecap="round" stroke-width="4" d="M5 5h633M5 5h633m0 0v364m0-364v364m0 0H5m633 0H5m0 0V5m0 364V5m242 0v364m0-364v364M5 144h242M5 144h242M154 5v139m0-139v139m0-53h93m-93 0h93m-57 0v53m0-53v53m-36-33h36m-36 0h36m-14-20v20m0-20v20m0-8h14m-14 0h14"/><path stroke-linecap="round" stroke-width="12" d="m638 5-5 57m5-57-5 57m0 0-14 55m14-55-14 55m0 0-24 53m24-53-24 53m0 0-32 49m32-49-32 49m0 0-40 43m40-43-40 43m0 0-46 37m46-37-46 37m0 0-53 30m53-30-53 30m0 0-56 22m56-22-56 22m0 0-60 13m60-13-60 13m0 0-61 5m61-5-61 5m0 0s0 0 0 0m0 0s0 0 0 0m0 0-38-3m38 3-38-3m0 0-37-8m37 8-37-8m0 0-35-14m35 14-35-14m0 0-32-18m32 18-32-18m0 0-29-23m29 23-29-23m0 0-25-27m25 27-25-27m0 0-20-30m20 30-20-30m0 0-14-33m14 33-14-33m0 0-9-34m9 34-9-34m0 0-3-35m3 35-3-35m0 0s0 0 0 0m0 0s0 0 0 0m0 0 2-22m-2 22 2-22m0 0 5-21m-5 21 5-21m0 0 9-20m-9 20 9-20m0 0 13-19M21 81l13-19m0 0 15-16M34 62l15-16m0 0 18-14M49 46l18-14m0 0 20-12M67 32c4-3 8-6 20-12m0 0 21-8m-21 8 21-8m0 0 23-5m-23 5 23-5m0 0 23-2m-23 2 23-2m0 0s0 0 0 0m0 0s0 0 0 0m0 0 15 1m-15-1 15 1m0 0 14 3m-14-3 14 3m0 0 13 5m-13-5 13 5m0 0 13 7m-13-7 13 7m0 0 11 9m-11-9 11 9m0 0 9 10m-9-10 9 10m0 0 8 12m-8-12 8 12m0 0 5 12m-5-12 5 12m0 0 4 13m-4-13 4 13m0 0 1 14m-1-14 1 14m0 0s0 0 0 0m0 0s0 0 0 0m0 0-1 8m1-8-1 8m0 0-2 8m2-8-2 8m0 0-4 8m4-8-4 8m0 0-4 7m4-7-4 7m0 0-6 6m6-6-6 6m0 0-7 6m7-6-7 6m0 0-7 4m7-4-7 4m0 0-9 3m9-3-9 3m0 0-8 2m8-2-8 2m0 0-9 1m9-1-9 1m0 0s0 0 0 0m0 0s0 0 0 0m0 0h-6m6 0h-6m0 0-5-2m5 2-5-2m0 0-5-2m5 2-5-2m0 0-5-2m5 2-5-2m0 0-4-4m4 4-4-4m0 0-4-4m4 4-4-4m0 0-3-4m3 4-3-4m0 0-2-5m2 5-2-5m0 0-1-5m1 5-1-5m0 0-1-5m1 5-1-5m0 0s0 0 0 0m0 0s0 0 0 0m0 0 1-3m-1 3 1-3m0 0v-3m0 3v-3m0 0 2-3m-2 3 2-3m0 0 2-3m-2 3 2-3m0 0 2-2m-2 2 2-2m0 0 2-2m-2 2 2-2m0 0 3-2m-3 2 3-2m0 0 3-1m-3 1 3-1m0 0 4-1m-4 1 4-1m0 0h3m-3 0h3m0 0s0 0 0 0m0 0s0 0 0 0m0 0h2m-2 0h2m0 0h2m-2 0h2m0 0 2 1m-2-1 2 1m0 0 2 1m-2-1 2 1m0 0 2 2m-2-2 2 2m0 0 1 1m-1-1 1 1m0 0 1 2m-1-2 1 2m0 0 1 2m-1-2 1 2m0 0v1m0-1v1m0 0 1 2m-1-2 1 2"/></svg>