<?xml version="1.0" encoding="utf-8"?>
<!-- Generator: Adobe Illustrator 27.2.0, SVG Export Plug-In . SVG Version: 6.00 Build 0)  -->
<svg version="1.1" id="Layer_1" xmlns="http://www.w3.org/2000/svg" xmlns:xlink="http://www.w3.org/1999/xlink" x="0px" y="0px"
	 viewBox="0 0 448 512" style="enable-background:new 0 0 448 512;" xml:space="preserve">
<style type="text/css">
	.st0{stroke:#000000;stroke-width:2;stroke-miterlimit:10;}
</style>
<path class="st0" d="M355.8,234.1"/>
<g>
	<path class="st0" d="M404.8,293.5L306.9,208l-120,137.4l97.9,85.5c13.6,11.9,34.4,10.5,46.3-3.1l76.8-88
		C419.9,326.2,418.5,305.5,404.8,293.5z M389.4,322.2l-78.2,89.6c-3.8,4.3-10.4,4.8-14.8,1l-77.8-68l92-105.3l77.8,68
		C392.8,311.2,393.2,317.8,389.4,322.2z"/>
	<polygon class="st0" points="52.4,103.7 64.4,238.9 93,263.8 213,126.4 184.4,101.4 	"/>
	
		<rect x="108.3" y="185.1" transform="matrix(0.6578 -0.7532 0.7532 0.6578 -108.9276 230.7956)" class="st0" width="182.4" height="100.3"/>
	<path class="st0" d="M109.7,381.6c-23.7-22.2-40-49.3-48.9-78.2c8.2-0.9,22.4-3.6,30.1-12.3c-12.6-12.5-25.3-25-37.9-37.5
		c0-0.1,0-0.3,0-0.4l-23.6-22c-6,60.7,15.5,123.7,63.7,168.8s112.5,62.4,172.7,52.4l-24.1-22.6C194.8,432.3,146.9,416.4,109.7,381.6
		z"/>
	<path class="st0" d="M368.8,105.4c-56-52.4-133.5-67.2-201.3-45.5l21,19.6c56.1-13.2,117.7,1.1,163.1,43.7
		c33,30.9,51.7,71.2,55.9,112.7c-0.2-0.4-0.3-0.6-0.3-0.6s-25.1-0.1-36.5,12.7c11.8,11.6,23.5,23.3,35.3,34.9c0,0,0,0.1,0,0.1
		l2.4,2.3c0.4,0.4,0.9,0.9,1.3,1.3c0,0,0,0,0,0l17.7,16.6C444.7,234.1,424.8,157.7,368.8,105.4z"/>
</g>
</svg>
