<svg version="1.1" xmlns="http://www.w3.org/2000/svg" viewBox="0 0 532.2882365578602 532.0645990000003" width="532.2882365578602" height="532.0645990000003" class="excalidraw-svg">
  <!-- svg-source:excalidraw -->
  
  <defs>
    <style class="style-fonts">
      @font-face {
        font-family: "Virgil";
        src: url("https://excalidraw.com/Virgil.woff2");
      }
      @font-face {
        font-family: "Cascadia";
        src: url("https://excalidraw.com/Cascadia.woff2");
      }
      @font-face {
        font-family: "Assistant";
        src: url("https://excalidraw.com/Assistant-Regular.woff2");
      }
    </style>
    
  </defs>
  <g stroke-linecap="round" transform="translate(10.288236335421118 10.000000000000227) rotate(0 6.690183424953744 256)"><path d="M3.35 0 C6 0, 8.65 0, 10.04 0 C12.27 0, 13.38 1.12, 13.38 3.35 C13.38 175.31, 13.38 347.28, 13.38 508.65 C13.38 510.88, 12.27 512, 10.04 512 C8.51 512, 6.99 512, 3.35 512 C1.12 512, 0 510.88, 0 508.65 C0 403.42, 0 298.18, 0 3.35 C0 1.12, 1.12 0, 3.35 0" stroke="none" stroke-width="0" fill="#1e1e1e"/><path d="M3.35 0 C5.09 0, 6.84 0, 10.04 0 M3.35 0 C6.02 0, 8.69 0, 10.04 0 M10.04 0 C12.27 0, 13.38 1.12, 13.38 3.35 M10.04 0 C12.27 0, 13.38 1.12, 13.38 3.35 M13.38 3.35 C13.38 159.05, 13.38 314.76, 13.38 508.65 M13.38 3.35 C13.38 204.87, 13.38 406.39, 13.38 508.65 M13.38 508.65 C13.38 510.88, 12.27 512, 10.04 512 M13.38 508.65 C13.38 510.88, 12.27 512, 10.04 512 M10.04 512 C7.57 512, 5.11 512, 3.35 512 M10.04 512 C7.42 512, 4.8 512, 3.35 512 M3.35 512 C1.12 512, 0 510.88, 0 508.65 M3.35 512 C1.12 512, 0 510.88, 0 508.65 M0 508.65 C0 407.23, 0 305.81, 0 3.35 M0 508.65 C0 350.71, 0 192.77, 0 3.35 M0 3.35 C0 1.12, 1.12 0, 3.35 0 M0 3.35 C0 1.12, 1.12 0, 3.35 0" stroke="transparent" stroke-width="0.5" fill="none"/></g><g stroke-linecap="round" transform="translate(138.29357047631436 10.000000000000227) rotate(0 14.705597962755746 256)"><path d="M7.35 0 C11.94 0, 16.52 0, 22.06 0 C26.96 0, 29.41 2.45, 29.41 7.35 C29.41 177.25, 29.41 347.14, 29.41 504.65 C29.41 509.55, 26.96 512, 22.06 512 C17.25 512, 12.43 512, 7.35 512 C2.45 512, 0 509.55, 0 504.65 C0 335.79, 0 166.93, 0 7.35 C0 2.45, 2.45 0, 7.35 0" stroke="none" stroke-width="0" fill="#1e1e1e"/><path d="M7.35 0 C12.15 0, 16.95 0, 22.06 0 M7.35 0 C11.4 0, 15.46 0, 22.06 0 M22.06 0 C26.96 0, 29.41 2.45, 29.41 7.35 M22.06 0 C26.96 0, 29.41 2.45, 29.41 7.35 M29.41 7.35 C29.41 121.39, 29.41 235.42, 29.41 504.65 M29.41 7.35 C29.41 156.67, 29.41 305.99, 29.41 504.65 M29.41 504.65 C29.41 509.55, 26.96 512, 22.06 512 M29.41 504.65 C29.41 509.55, 26.96 512, 22.06 512 M22.06 512 C18.64 512, 15.22 512, 7.35 512 M22.06 512 C18.06 512, 14.06 512, 7.35 512 M7.35 512 C2.45 512, 0 509.55, 0 504.65 M7.35 512 C2.45 512, 0 509.55, 0 504.65 M0 504.65 C0 321.57, 0 138.5, 0 7.35 M0 504.65 C0 310.27, 0 115.9, 0 7.35 M0 7.35 C0 2.45, 2.45 0, 7.35 0 M0 7.35 C0 2.45, 2.45 0, 7.35 0" stroke="transparent" stroke-width="0.5" fill="none"/></g><g stroke-linecap="round" transform="translate(411.2341788227888 10.000000000000227) rotate(0 55.52702886753567 256)"><path d="M27.76 0 C45.35 0, 62.93 0, 83.29 0 C101.8 0, 111.05 9.25, 111.05 27.76 C111.05 189.77, 111.05 351.77, 111.05 484.24 C111.05 502.75, 101.8 512, 83.29 512 C68.26 512, 53.24 512, 27.76 512 C9.25 512, 0 502.75, 0 484.24 C0 375.97, 0 267.71, 0 27.76 C0 9.25, 9.25 0, 27.76 0" stroke="none" stroke-width="0" fill="#1e1e1e"/><path d="M27.76 0 C45.33 0, 62.89 0, 83.29 0 M27.76 0 C49.69 0, 71.61 0, 83.29 0 M83.29 0 C101.8 0, 111.05 9.25, 111.05 27.76 M83.29 0 C101.8 0, 111.05 9.25, 111.05 27.76 M111.05 27.76 C111.05 182.64, 111.05 337.52, 111.05 484.24 M111.05 27.76 C111.05 194.57, 111.05 361.38, 111.05 484.24 M111.05 484.24 C111.05 502.75, 101.8 512, 83.29 512 M111.05 484.24 C111.05 502.75, 101.8 512, 83.29 512 M83.29 512 C67.72 512, 52.14 512, 27.76 512 M83.29 512 C62.57 512, 41.84 512, 27.76 512 M27.76 512 C9.25 512, 0 502.75, 0 484.24 M27.76 512 C9.25 512, 0 502.75, 0 484.24 M0 484.24 C0 306.92, 0 129.61, 0 27.76 M0 484.24 C0 371.64, 0 259.05, 0 27.76 M0 27.76 C0 9.25, 9.25 0, 27.76 0 M0 27.76 C0 9.25, 9.25 0, 27.76 0" stroke="transparent" stroke-width="0.5" fill="none"/></g><g stroke-linecap="round" transform="translate(261.5200002413494 10) rotate(0 36.34692222534671 256)"><path d="M18.17 0 C31.67 0, 45.18 0, 54.52 0 C66.64 0, 72.69 6.06, 72.69 18.17 C72.69 148.91, 72.69 279.65, 72.69 493.83 C72.69 505.94, 66.64 512, 54.52 512 C43.29 512, 32.06 512, 18.17 512 C6.06 512, 0 505.94, 0 493.83 C0 378.17, 0 262.51, 0 18.17 C0 6.06, 6.06 0, 18.17 0" stroke="none" stroke-width="0" fill="#1e1e1e"/><path d="M18.17 0 C27.87 0, 37.56 0, 54.52 0 M18.17 0 C32.34 0, 46.51 0, 54.52 0 M54.52 0 C66.64 0, 72.69 6.06, 72.69 18.17 M54.52 0 C66.64 0, 72.69 6.06, 72.69 18.17 M72.69 18.17 C72.69 148.15, 72.69 278.13, 72.69 493.83 M72.69 18.17 C72.69 121.02, 72.69 223.86, 72.69 493.83 M72.69 493.83 C72.69 505.94, 66.64 512, 54.52 512 M72.69 493.83 C72.69 505.94, 66.64 512, 54.52 512 M54.52 512 C45.9 512, 37.28 512, 18.17 512 M54.52 512 C41.12 512, 27.72 512, 18.17 512 M18.17 512 C6.06 512, 0 505.94, 0 493.83 M18.17 512 C6.06 512, 0 505.94, 0 493.83 M0 493.83 C0 314.63, 0 135.44, 0 18.17 M0 493.83 C0 331.95, 0 170.07, 0 18.17 M0 18.17 C0 6.06, 6.06 0, 18.17 0 M0 18.17 C0 6.06, 6.06 0, 18.17 0" stroke="transparent" stroke-width="0.5" fill="none"/></g><g stroke-linecap="round" transform="translate(10 10.064599000000271) rotate(0 256 256)"><path d="M0 0 C112.07 0, 224.14 0, 512 0 M0 0 C139.39 0, 278.78 0, 512 0 M512 0 C512 145.76, 512 291.53, 512 512 M512 0 C512 167.52, 512 335.03, 512 512 M512 512 C351.22 512, 190.45 512, 0 512 M512 512 C385.54 512, 259.07 512, 0 512 M0 512 C0 352.4, 0 192.81, 0 0 M0 512 C0 327.18, 0 142.36, 0 0" stroke="transparent" stroke-width="0.5" fill="none"/></g></svg>