<?xml version="1.0" standalone="no"?><!DOCTYPE svg PUBLIC "-//W3C//DTD SVG 1.1//EN" "http://www.w3.org/Graphics/SVG/1.1/DTD/svg11.dtd"><svg t="1673428425027" class="icon" viewBox="0 0 1024 1024" version="1.1" xmlns="http://www.w3.org/2000/svg" p-id="1642" xmlns:xlink="http://www.w3.org/1999/xlink" width="24" height="24"><path d="M388.7 542.88c-16.57 0-30-13.43-30-30s13.43-30 30-30c52.3 0 94.85-42.55 94.85-94.85v-67.81c0-40.96 15.84-79.58 44.6-108.74 28.76-29.16 67.16-45.53 108.12-46.1l3.43-0.05c16.57-0.22 30.18 13.02 30.41 29.58 0.23 16.57-13.02 30.18-29.58 30.41l-3.43 0.05c-51.58 0.71-93.55 43.25-93.55 94.84v67.81c0 85.4-69.47 154.86-154.85 154.86z" fill="#000000" p-id="1643"></path><path d="M640.12 860.42h-0.42l-3.43-0.05c-40.96-0.56-79.36-16.93-108.12-46.09s-44.6-67.78-44.6-108.74v-67.8c0-52.3-42.55-94.85-94.85-94.85-16.57 0-30-13.43-30-30s13.43-30 30-30c85.38 0 154.85 69.47 154.85 154.85v67.8c0 51.59 41.96 94.13 93.55 94.84l3.43 0.05c16.57 0.23 29.81 13.84 29.59 30.41-0.24 16.42-13.62 29.58-30 29.58z" fill="#000000" p-id="1644"></path><path d="M640.11 542.88H388.7c-16.57 0-30-13.43-30-30s13.43-30 30-30h251.42c16.57 0 30 13.43 30 30-0.01 16.57-13.44 30-30.01 30z" fill="#000000" p-id="1645"></path><path d="M343.89 638.95H137.78c-38.6 0-70-31.4-70-70V456.81c0-38.6 31.4-70 70-70h206.11c38.6 0 70 31.4 70 70v112.13c0 38.6-31.4 70.01-70 70.01zM137.78 446.81c-5.51 0-10 4.49-10 10v112.13c0 5.51 4.49 10 10 10h206.11c5.51 0 10-4.49 10-10V456.81c0-5.51-4.49-10-10-10H137.78zM830.16 316.96h-93.98c-69.51 0-126.07-56.55-126.07-126.07S666.66 64.83 736.18 64.83h93.98c69.51 0 126.07 56.55 126.07 126.07-0.01 69.5-56.56 126.06-126.07 126.06z m-93.98-192.13c-36.43 0-66.07 29.64-66.07 66.07s29.64 66.07 66.07 66.07h93.98c36.43 0 66.07-29.64 66.07-66.07s-29.64-66.07-66.07-66.07h-93.98zM830.16 638.95h-93.98c-69.51 0-126.07-56.55-126.07-126.07 0-69.51 56.55-126.07 126.07-126.07h93.98c69.51 0 126.07 56.55 126.07 126.07-0.01 69.51-56.56 126.07-126.07 126.07z m-93.98-192.14c-36.43 0-66.07 29.64-66.07 66.07 0 36.43 29.64 66.07 66.07 66.07h93.98c36.43 0 66.07-29.64 66.07-66.07 0-36.43-29.64-66.07-66.07-66.07h-93.98z" fill="#000000" p-id="1646"></path><path d="M830.16 959.17h-93.98c-69.51 0-126.07-56.55-126.07-126.07s56.55-126.07 126.07-126.07h93.98c69.51 0 126.07 56.55 126.07 126.07s-56.56 126.07-126.07 126.07z m-93.98-192.13c-36.43 0-66.07 29.64-66.07 66.07s29.64 66.07 66.07 66.07h93.98c36.43 0 66.07-29.64 66.07-66.07s-29.64-66.07-66.07-66.07h-93.98z" fill="#000000" p-id="1647"></path></svg>