<svg width="607" height="541" viewBox="0 0 607 541" fill="none" xmlns="http://www.w3.org/2000/svg">
<path d="M280 43.355V253.355H140V206.687L0 206.691V346.691H140V300.023H280V510.023C280 522.925 290.453 533.355 303.332 533.355H490.002C502.904 533.355 513.334 522.925 513.334 510.023C513.334 497.144 502.904 486.691 490.002 486.691H326.672V300.021H490.002C502.904 300.021 513.334 289.568 513.334 276.689C513.334 263.81 502.904 253.357 490.002 253.357H326.672V66.6869H490.002C502.904 66.6869 513.334 56.2569 513.334 43.3549C513.334 30.4529 502.904 20.0229 490.002 20.0229H303.332C290.453 20.019 280 30.4489 280 43.3509V43.355ZM46.67 300.025V253.357H93.338V300.025H46.67Z" fill="black"/>
<rect x="540" y="23" width="39" height="39" fill="#D9D9D9"/>
<rect x="503" width="104" height="95" fill="#D9D9D9"/>
<rect x="503.5" y="0.5" width="103" height="94" fill="black" stroke="black"/>
<rect x="503" y="223" width="104" height="95" fill="black"/>
<rect x="503.5" y="446.5" width="103" height="94" fill="black" stroke="black"/>
<path d="M532 243H580V291H532V243Z" fill="white"/>
<path d="M532 475H580V523H532V475Z" fill="white"/>
<path d="M532 243H580V291H532V243Z" fill="white"/>
<path d="M532 23H580V71H532V23Z" fill="white"/>
</svg>
