<svg xmlns="http://www.w3.org/2000/svg" viewBox="0 0 700 550"><path d="M478.98 137.02A205.802 205.802 0 0 0 255.062 22.364a205.785 205.785 0 0 0-115.79 65.234 205.78 205.78 0 0 0-51.773 122.4 205.1 205.1 0 0 0 120.399 201.249 210.043 210.043 0 0 0 88.988 102.84 210 210 0 0 0 255.1-33.793 209.995 209.995 0 0 0 59.137-122.46 209.99 209.99 0 0 0-28.293-133.02 209.985 209.985 0 0 0-103.86-87.793zm-186.9-84.523h10.5a170.974 170.974 0 0 1 102.6 42.441 170.932 170.932 0 0 1 54.898 96.508l-194.95-136.68a171.623 171.623 0 0 1 26.949-2.273zm-70 15.051 230.12 161.88 9.45 6.648a171.28 171.28 0 0 1-22.048 71.75l-275.62-197.4a170.925 170.925 0 0 1 58.45-42.875zm-78.398 71.398 276.32 197.4a171.807 171.807 0 0 1-58.102 43.047l-239.4-175.7a169.266 169.266 0 0 1 21.176-64.75zm-21.176 108.32 197.57 144.73a165.295 165.295 0 0 1-38.5 2.102 171.169 171.169 0 0 1-105.7-45.07 171.164 171.164 0 0 1-53.375-101.76zm280 260.23a176.25 176.25 0 0 1-84.371-21.984 176.27 176.27 0 0 1-63.504-59.742 197.049 197.049 0 0 0 24.852 3.328h12.773a206.319 206.319 0 0 0 140.66-55.766 206.312 206.312 0 0 0 64.789-136.73 202.42 202.42 0 0 0-3.848-52.5 175.017 175.017 0 0 1 70.512 85.367 175.016 175.016 0 0 1 5.157 110.61 174.986 174.986 0 0 1-62.262 91.562 175.008 175.008 0 0 1-104.76 35.863z"/></svg>