<svg xmlns="http://www.w3.org/2000/svg" viewBox="0 0 100 100" stroke="#000"><path fill="none"  stroke-linecap="round" stroke-width="4" d="M10 10h80m-80 0h80m0 0v40m0-40v40m0 0H10m80 0H10m0 0V10m0 40V10"/><g stroke-linecap="round"><path fill="none"  stroke-width="4" d="M10 90c4.5-6.67 22.5-33.33 27-40M10 90c4.5-6.67 22.5-33.33 27-40"/><path fill-rule="evenodd" stroke-width="0" d="m37 50-2.35 14.81-10.51-7.09L37 50"/><path fill="none"  stroke-width="4" d="M37 50c-.55 3.44-1.09 6.89-2.35 14.81M37 50c-.9 5.69-1.81 11.39-2.35 14.81m0 0c-4.05-2.73-8.1-5.46-10.51-7.09m10.51 7.09c-2.73-1.83-5.45-3.67-10.51-7.09m0 0C26.78 56.13 29.43 54.55 37 50m-12.86 7.72C29.26 54.65 34.39 51.57 37 50m0 0s0 0 0 0m0 0s0 0 0 0"/></g><g stroke-linecap="round"><path fill="none"  stroke-width="4" d="M90 90 63 51.67M90 90 63 51.67"/><path fill-rule="evenodd" stroke-width="0" d="m63 51.67 13.01 7.46-10.36 7.3L63 51.67"/><path fill="none"  stroke-width="4" d="M63 51.67c3.02 1.73 6.03 3.46 13.01 7.46M63 51.67c3.43 1.97 6.87 3.94 13.01 7.46m0 0c-3.33 2.34-6.65 4.69-10.36 7.3m10.36-7.3c-3.43 2.42-6.86 4.84-10.36 7.3m0 0c-.96-5.35-1.92-10.7-2.65-14.76m2.65 14.76c-.9-4.99-1.79-9.98-2.65-14.76m0 0s0 0 0 0m0 0s0 0 0 0"/></g><g stroke-linecap="round"><path fill="none"  stroke-width="4" d="M50 90V50m0 40V50"/><path fill-rule="evenodd" stroke-width="0" d="m50 50 6.34 13.59H43.66L50 50"/><path fill="none"  stroke-width="4" d="M50 50c2.27 4.86 4.53 9.72 6.34 13.59M50 50c1.62 3.47 3.24 6.95 6.34 13.59m0 0H43.66m12.68 0H43.66m0 0C46.18 58.2 48.69 52.81 50 50m-6.34 13.59C45.75 59.12 47.84 54.64 50 50m0 0s0 0 0 0m0 0s0 0 0 0"/></g></svg>