<svg xmlns="http://www.w3.org/2000/svg" viewBox="100 120 500 320"><path d="M474.32 295.68H225.68c-8.398 0-15.68-6.719-15.68-15.68 0-8.398 6.719-15.68 15.68-15.68h248.64c8.398 0 15.68 6.719 15.68 15.68 0 8.398-6.719 15.68-15.68 15.68z"/><path d="m454.16 182-53.199-53.199c-2.8-2.8-6.719-4.48-11.199-4.48h-117.6c-17.359 0-31.359 14-31.359 31.358v108.64h31.359v-100.8c0-4.48 3.36-7.84 7.84-7.84h77.84v42c0 15.68 12.32 28 28 28h42v38.642H459.2V193.2c-.559-4.48-1.68-8.399-5.04-11.2zm-65.52 12.32v-33.602l33.602 33.602zM427.84 396.48c0 4.48-3.36 7.84-7.84 7.84H280c-4.48 0-7.84-3.36-7.84-7.84v-54.32c0-8.398-6.718-15.68-15.68-15.68-8.398 0-15.68 6.719-15.68 15.68v62.16c0 17.359 14 31.359 31.36 31.359h155.68c17.358 0 31.358-14 31.358-31.359v-62.16c0-8.398-6.718-15.68-15.68-15.68-8.398 0-15.68 6.719-15.68 15.68zM370.16 326.48h-66.641c-4.48 0-7.84-3.36-7.84-7.84s3.36-7.84 7.84-7.84h66.641c4.48 0 7.84 3.36 7.84 7.84s-3.922 7.84-7.84 7.84z"/><path d="M350 357.84h-46.48c-4.48 0-7.84-3.36-7.84-7.84s3.36-7.84 7.84-7.84H350c4.48 0 7.84 3.36 7.84 7.84s-3.36 7.84-7.84 7.84z"/></svg>