<svg xmlns="http://www.w3.org/2000/svg" viewBox="0 0 249 131" stroke="#000"><path d="m86.897 86.42-.94 1.1q-.93 1.09-2.16 2.5-1.22 1.41-2.26 2.5-1.04 1.08-2.57 2.4-1.53 1.32-3.23 2.7-1.7 1.37-3.51 3.01-1.81 1.64-3.85 3.06-2.05 1.41-4.57 2.94-2.52 1.53-4.99 2.84-2.47 1.31-5.31 2.38-2.84 1.07-5.82 2.14-2.98 1.06-6.87 2.35l-7.47 2.47q-3.56 1.17-5.61 1.74-2.05.58-5.02 1.18-2.97.61-5 .92-2.04.31-3.12.41-1.08.09-2.72-.09-1.63-.18-1.86-.21-.24-.03-.45-.13-.22-.1-.39-.27-.17-.16-.28-.38-.11-.21-.14-.44-.04-.24 0-.47.04-.24.16-.45.11-.2.29-.37.17-.16.39-.25.22-.1.45-.12.24-.03.47.03.23.05.44.18.2.12.35.31.15.18.24.4.08.22.09.46.01.24-.06.47-.06.23-.2.42-.13.2-.33.34-.19.14-.41.21-.23.08-.47.07-.24 0-.46-.08-.22-.08-.41-.23-.19-.14-.32-.34t-.19-.43q-.06-.23-.05-.47.02-.23.11-.45t.25-.4q.15-.18.36-.3.2-.12.44-.17l.23-.05 2.37-.63q2.36-.62 4.29-1.05 1.92-.44 4.66-1.12 2.75-.69 4.68-1.36 1.92-.68 5.45-1.98 3.53-1.3 7.31-2.68 3.78-1.38 6.68-2.54 2.9-1.16 5.33-2.16 2.43-1.01 4.69-2.33 2.26-1.32 4.56-2.82 2.3-1.51 3.93-2.72 1.64-1.2 3.52-3.04 1.88-1.83 3.45-3.21 1.57-1.39 2.77-2.5t2.08-2.13q.88-1.02 1.92-2.31 1.04-1.28 1.83-2.49.79-1.2 1.13-1.55.34-.35.75-.61.41-.27.87-.42.46-.15.95-.19.47-.04.96.03.48.08.92.27.45.19.84.49.39.29.7.66.31.38.52.82.21.44.31.92.09.48.07.95-.01.49-.15.96-.14.47-.38.89l-.24.42ZM77.383 72.83l-.33-1.82q-.34-1.83-.97-3.46-.63-1.63-1.59-3.37-.95-1.73-2.69-4.09-1.74-2.35-3.36-4.47-1.63-2.12-3.14-3.95-1.51-1.83-3-3.57-1.49-1.74-2.86-3.54-1.37-1.8-2.64-3.67-1.27-1.87-2.57-3.94l-2.21-3.5q-.9-1.43-1.92-2.98-1.03-1.55-2.29-3.03-1.27-1.48-2.7-3.14-1.43-1.65-2.68-2.83-1.24-1.17-2.46-1.95-1.21-.78-2.5-1.54t-2.32-1.14q-1.04-.38-2.05-.9-1.01-.53-2.08-.88-1.08-.35-2.32-.62-1.25-.28-2.68-.51-1.44-.23-3.43-.53-1.99-.3-4.1-1.14-2.11-.85-2.34-.89-.22-.05-.41-.17-.2-.11-.35-.28-.15-.18-.23-.39-.09-.21-.1-.43-.02-.23.04-.45t.19-.41q.12-.19.3-.33.18-.13.4-.21.21-.07.44-.08.23 0 .44.07.22.07.4.21.18.14.31.32.13.19.19.41.06.22.05.44-.01.23-.09.44t-.23.39q-.14.17-.34.29-.19.12-.41.17-.22.05-.45.03-.22-.02-.43-.12-.21-.09-.37-.25-.17-.15-.28-.35-.11-.2-.15-.42-.03-.23 0-.45.04-.23.14-.43.11-.2.27-.36.16-.16.37-.25.2-.1.43-.13l.22-.02 1.78-.01q1.78-.01 3.17.09 1.39.11 2.58.16 1.19.05 2.78.23 1.58.17 3.4.47 1.82.3 3.24.68 1.42.39 2.51.56 1.08.16 2.18.56t2.58 1.19q1.48.8 3.17 1.87 1.7 1.07 3.23 2.45 1.53 1.37 3.02 3.02 1.5 1.64 3.06 3.4 1.55 1.76 2.66 3.34 1.11 1.58 2.07 3 .96 1.42 2.24 3.36 1.28 1.94 2.47 3.62 1.2 1.69 2.47 3.29 1.27 1.61 2.84 3.37 1.57 1.77 3.21 3.68 1.63 1.91 3.34 4.07 1.72 2.17 3.77 4.94 2.05 2.76 3.25 4.96 1.21 2.2 2.05 4.42.85 2.21 1.28 4.03.43 1.81.47 2.3.04.47-.03.95-.08.49-.26.94-.19.44-.48.84-.29.39-.67.7-.37.31-.81.52-.44.21-.92.31-.48.1-.95.09-.49-.02-.96-.15-.47-.14-.89-.38-.42-.24-.78-.57-.35-.34-.61-.75-.27-.41-.42-.87l-.16-.46ZM156.407 83.697l1.21 1.19q1.22 1.18 2.16 2.02.95.84 2.4 1.73 1.44.88 3.73 1.57 2.28.69 3.99 1.2 1.7.51 3.66 1.04 1.95.52 3.55.85 1.6.32 3.8.67 2.2.36 4.94.73 2.74.36 5.36.74 2.63.38 5.91.75 3.27.37 6.18.65 2.91.29 6.52.53 3.6.24 6.6.47 2.99.23 5.65.55 2.66.33 5.05.69 2.38.36 3.98.53 1.61.18 2.85.39 1.24.21 3.09.72 1.86.51 2.09.55.22.04.43.15.2.11.36.28.16.16.26.38.09.21.12.44.02.23-.03.46-.05.22-.17.42-.12.2-.3.35-.18.15-.39.23-.22.09-.45.1-.23.01-.46-.05-.22-.07-.41-.2-.19-.13-.33-.31-.14-.19-.22-.41-.07-.22-.07-.45 0-.24.08-.45.07-.22.22-.41.14-.18.33-.31t.42-.19q.22-.06.45-.05.24.01.45.1.22.09.39.24.18.15.3.35.12.2.16.43.05.22.03.46-.03.23-.13.44t-.26.37q-.16.17-.36.28-.21.11-.44.14l-.23.04-2.13.29q-2.13.28-3.27.19-1.14-.09-2.87-.17-1.74-.09-4.07-.34t-4.89-.46q-2.56-.21-5.54-.34-2.98-.13-6.67-.28-3.69-.15-6.67-.35-2.97-.19-6.33-.48t-5.98-.58q-2.61-.28-5.44-.57-2.82-.3-5.15-.59-2.33-.29-4.16-.58t-3.89-.77q-2.07-.47-3.95-.96-1.88-.48-3.27-.91-1.4-.42-3.56-1.02-2.17-.6-3.8-1.56-1.62-.96-2.69-1.85-1.07-.9-2.34-2.02-1.28-1.11-1.59-1.49-.32-.37-.54-.8-.21-.44-.32-.91-.11-.48-.1-.96.01-.48.14-.95.13-.48.36-.9.24-.43.57-.79.33-.35.73-.62.41-.27.87-.44.46-.16.94-.21.48-.05.96.02t.93.25q.46.19.85.47l.4.29v-.01Z"/><path d="m149.363 80.937.5-2.59q.49-2.58.81-4.02l.55-2.5q.23-1.05.65-2.55.43-1.49.83-2.65.4-1.15 1.29-2.77.9-1.62 1.66-2.65.77-1.03 1.75-2 .99-.97 1.95-1.81.95-.85 2.16-2.03 1.2-1.17 2.47-2.07 1.28-.9 2.16-1.56.89-.66 1.75-1.31.87-.65 2.24-1.97 1.37-1.32 2.35-2.21.98-.89 1.92-1.86.94-.97 2.03-1.94 1.1-.98 2.56-1.97 1.47-1 2.37-1.65.89-.65 2.14-1.41 1.24-.75 2.42-1.38 1.19-.62 2.26-1.07 1.07-.46 2.34-1.13 1.27-.67 2.49-.97 1.23-.3 2.73-.72 1.51-.42 2.92-.84 1.4-.42 3.03-.83 1.62-.42 3.18-.6 1.55-.19 3.12-.32t3.13-.38q1.56-.26 3.29-.41 1.72-.15 2.85-.19 1.12-.04 2.54-.04 1.43 0 3.43-.08t3.16-.11q1.17-.02 2.44-.01 1.28 0 2.69-.1 1.42-.1 3.99-.01 2.56.08 2.78.12.22.03.41.14.2.1.35.26.15.16.25.36.09.2.11.42.03.21-.02.43-.04.22-.16.4-.11.19-.28.34-.16.14-.37.22-.2.09-.42.1-.22.01-.44-.05-.21-.06-.39-.18-.18-.12-.32-.3-.13-.17-.2-.38t-.08-.43q0-.22.07-.43t.21-.38q.13-.18.31-.3.18-.13.39-.19.22-.06.44-.05.22.01.42.1.21.08.38.22.16.14.28.33.11.19.16.4.05.22.03.44-.03.22-.12.42-.09.2-.24.36-.15.16-.35.26-.19.11-.41.14l-.22.04-2.46.15q-2.46.15-3.96.35-1.5.19-2.73.24-1.24.04-2.38.11-1.13.06-3.2.19-2.06.13-4.35.24-2.3.11-3.95.35-1.65.23-3.23.58t-3.16.57q-1.57.22-2.92.45-1.35.24-2.64.63-1.29.4-2.88.97-1.58.57-3.18 1.1-1.6.53-2.9.94-1.31.41-2.44 1.13-1.14.72-2.13 1.28-.99.57-1.98 1.13-1 .57-1.86 1.29-.85.73-1.94 1.58-1.08.86-2.09 1.72-1.01.86-1.75 1.69-.73.82-1.85 1.97t-2.13 2.08q-1.01.94-1.88 1.97-.88 1.02-1.72 1.73-.84.72-1.86 1.56-1.01.85-1.92 1.63-.91.79-1.72 1.58-.81.79-1.73 1.76-.93.98-1.73 1.75-.8.77-1.47 1.78-.68 1.01-1.39 2.74-.71 1.73-1.02 2.92-.31 1.2-.53 2.28-.22 1.09-.5 2.42-.27 1.33-.74 3.92-.46 2.58-.61 3.05-.14.46-.4.88-.25.41-.59.76-.35.34-.77.59-.41.25-.88.4-.46.14-.95.17-.48.03-.96-.06-.47-.09-.92-.29-.44-.2-.83-.5-.38-.3-.68-.69-.3-.38-.5-.83-.2-.44-.28-.92-.09-.48-.06-.96l.03-.48Z"/><path fill="none"  stroke-linecap="round" stroke-width="8" d="M83.333 59.667h70m-70 0h70m0 0v40m0-40v40m0 0h-70m70 0h-70m0 0v-40m0 40v-40"/></svg>