<svg version="1.1" xmlns="http://www.w3.org/2000/svg" viewBox="0 0 297.0049715909092 210.33238636363632" width="297.0049715909092" height="210.33238636363632">
  <!-- svg-source:excalidraw -->
  
  <defs>
    <style class="style-fonts">
      @font-face {
        font-family: "Virgil";
        src: url("https://excalidraw.com/Virgil.woff2");
      }
      @font-face {
        font-family: "Cascadia";
        src: url("https://excalidraw.com/Cascadia.woff2");
      }
    </style>
    
  </defs>
  <rect x="0" y="0" width="297.0049715909092" height="210.33238636363632" fill="#ffffff"></rect><g transform="translate(120.73437500000006 90.6171875) rotate(0 -55.24325284090909 -43.80859375)" stroke="none"><path d="M -14.07,7.96 Q -14.07,7.96 -15.48,4.09 -16.89,0.22 -18.99,-3.55 -21.09,-7.33 -24.13,-12.89 -27.17,-18.45 -30.14,-24.36 -33.10,-30.28 -35.37,-34.93 -37.64,-39.59 -40.51,-44.80 -43.37,-50.02 -46.11,-53.71 -48.86,-57.40 -52.16,-60.58 -55.46,-63.76 -60.35,-67.14 -65.24,-70.53 -69.99,-72.77 -74.74,-75.00 -80.08,-76.54 -85.41,-78.08 -91.27,-78.91 -97.12,-79.74 -103.29,-80.06 -109.47,-80.38 -110.38,-80.46 -111.29,-80.55 -112.12,-80.91 -112.96,-81.28 -113.64,-81.90 -114.31,-82.52 -114.76,-83.32 -115.20,-84.12 -115.36,-85.02 -115.53,-85.92 -115.40,-86.82 -115.27,-87.73 -114.85,-88.54 -114.44,-89.36 -113.79,-90.00 -113.13,-90.64 -112.31,-91.04 -111.49,-91.44 -110.58,-91.55 -109.67,-91.67 -108.78,-91.49 -107.88,-91.31 -107.09,-90.85 -106.30,-90.39 -105.69,-89.71 -105.09,-89.02 -104.73,-88.18 -104.38,-87.34 -104.31,-86.42 -104.25,-85.51 -104.47,-84.63 -104.70,-83.74 -105.20,-82.97 -105.70,-82.21 -106.42,-81.64 -107.14,-81.07 -108.00,-80.77 -108.86,-80.46 -109.77,-80.44 -110.69,-80.43 -111.56,-80.70 -112.43,-80.98 -113.17,-81.52 -113.91,-82.06 -114.44,-82.81 -114.96,-83.55 -115.22,-84.43 -115.48,-85.31 -115.45,-86.22 -115.42,-87.13 -115.09,-87.99 -114.77,-88.84 -114.19,-89.55 -113.61,-90.26 -112.84,-90.75 -112.06,-91.23 -111.17,-91.44 -110.28,-91.66 -110.29,-91.66 -110.29,-91.66 -104.12,-93.28 -97.96,-94.90 -91.98,-95.45 -85.99,-96.00 -81.46,-95.64 -76.92,-95.29 -68.61,-93.08 -60.30,-90.88 -54.63,-88.23 -48.96,-85.58 -45.26,-83.31 -41.56,-81.05 -36.47,-77.03 -31.37,-73.00 -27.42,-68.77 -23.47,-64.54 -19.02,-58.37 -14.56,-52.20 -11.80,-47.74 -9.05,-43.29 -5.96,-38.13 -2.87,-32.97 0.60,-27.54 4.09,-22.12 6.49,-18.24 8.89,-14.36 11.48,-11.16 14.07,-7.96 14.81,-6.16 15.56,-4.36 15.86,-2.43 16.15,-0.51 15.98,1.43 15.81,3.37 15.17,5.21 14.54,7.05 13.48,8.69 12.43,10.33 11.01,11.67 9.59,13.00 7.90,13.96 6.20,14.92 4.33,15.45 2.45,15.98 0.50,16.04 -1.44,16.10 -3.34,15.69 -5.25,15.29 -7.00,14.43 -8.76,13.58 -10.25,12.34 -11.75,11.09 -12.91,9.52 -14.07,7.96 -14.07,7.96 L -14.07,7.96 Z"></path></g><g transform="translate(164.26775568181824 144.2109375) rotate(0 61.39737215909091 31.56072443181816)" stroke="none"><path d="M 15.66,-4.01 Q 15.66,-4.01 16.13,-0.20 16.61,3.60 17.59,8.51 18.58,13.41 19.95,17.45 21.33,21.49 24.37,24.74 27.42,27.99 31.19,30.37 34.96,32.74 39.20,35.13 43.45,37.52 48.43,39.69 53.42,41.86 58.89,43.75 64.36,45.65 70.65,46.93 76.94,48.20 82.07,49.37 87.20,50.54 94.31,51.57 101.42,52.61 105.80,53.22 110.19,53.84 116.30,55.50 122.42,57.17 123.33,57.43 124.24,57.70 125.02,58.24 125.80,58.78 126.36,59.54 126.93,60.30 127.22,61.20 127.51,62.11 127.50,63.05 127.49,64.00 127.18,64.90 126.86,65.79 126.28,66.54 125.70,67.29 124.91,67.81 124.12,68.33 123.20,68.58 122.29,68.82 121.34,68.76 120.39,68.69 119.52,68.33 118.64,67.97 117.93,67.35 117.21,66.73 116.73,65.91 116.25,65.09 116.06,64.16 115.87,63.24 115.98,62.30 116.09,61.35 116.50,60.50 116.91,59.64 117.57,58.96 118.23,58.28 119.07,57.85 119.91,57.41 120.85,57.27 121.79,57.13 122.72,57.29 123.66,57.46 124.49,57.91 125.32,58.37 125.96,59.06 126.61,59.76 127.00,60.62 127.38,61.49 127.47,62.43 127.57,63.37 127.35,64.30 127.14,65.22 126.64,66.03 126.14,66.83 125.41,67.44 124.68,68.04 123.80,68.38 122.91,68.72 121.96,68.76 121.02,68.80 121.02,68.80 121.02,68.80 115.03,68.92 109.04,69.04 104.35,68.97 99.66,68.90 91.93,68.33 84.21,67.77 79.05,67.15 73.88,66.53 66.31,65.49 58.74,64.46 52.36,62.80 45.98,61.14 39.86,59.02 33.75,56.90 28.77,54.67 23.78,52.44 16.02,48.05 8.26,43.66 4.11,40.01 -0.02,36.37 -2.76,32.84 -5.49,29.32 -7.53,25.15 -9.57,20.98 -11.19,16.07 -12.82,11.16 -14.24,7.58 -15.66,4.01 -15.91,2.08 -16.16,0.15 -15.95,-1.78 -15.73,-3.72 -15.05,-5.54 -14.38,-7.37 -13.29,-8.99 -12.20,-10.60 -10.75,-11.91 -9.30,-13.21 -7.59,-14.14 -5.87,-15.06 -3.98,-15.54 -2.09,-16.03 -0.15,-16.04 1.79,-16.06 3.69,-15.61 5.59,-15.17 7.32,-14.28 9.05,-13.39 10.53,-12.11 12.00,-10.83 13.12,-9.24 14.24,-7.64 14.95,-5.83 15.66,-4.01 15.66,-4.01 L 15.66,-4.01 Z"></path></g><g transform="translate(162.112215909091 97.65198863636371) rotate(0 65.9463778409091 -9.367897727272734)" stroke="none"><path d="M -11.89,-13.03 Q -11.89,-13.03 -9.71,-14.43 -7.53,-15.83 -3.76,-18.75 0.00,-21.67 4.98,-23.33 9.95,-24.99 15.49,-25.40 21.03,-25.81 25.86,-26.38 30.69,-26.94 36.72,-27.29 42.74,-27.64 50.18,-27.53 57.63,-27.43 63.68,-27.17 69.73,-26.92 76.87,-26.79 84.00,-26.67 89.62,-26.12 95.24,-25.57 100.83,-24.77 106.42,-23.98 111.10,-23.39 115.77,-22.79 120.60,-22.26 125.43,-21.72 128.49,-20.87 131.56,-20.02 132.45,-19.88 133.35,-19.73 134.15,-19.31 134.95,-18.88 135.57,-18.22 136.19,-17.56 136.57,-16.74 136.95,-15.92 137.05,-15.02 137.15,-14.12 136.95,-13.24 136.76,-12.35 136.29,-11.57 135.82,-10.80 135.13,-10.21 134.44,-9.63 133.60,-9.29 132.76,-8.96 131.85,-8.91 130.95,-8.86 130.08,-9.10 129.20,-9.35 128.46,-9.85 127.71,-10.36 127.16,-11.08 126.61,-11.81 126.32,-12.66 126.03,-13.52 126.03,-14.43 126.03,-15.33 126.32,-16.19 126.61,-17.05 127.16,-17.77 127.71,-18.49 128.46,-19.00 129.21,-19.51 130.08,-19.75 130.96,-19.99 131.86,-19.94 132.76,-19.89 133.61,-19.56 134.45,-19.22 135.14,-18.63 135.83,-18.05 136.29,-17.27 136.76,-16.49 136.95,-15.61 137.15,-14.72 137.05,-13.82 136.95,-12.92 136.57,-12.10 136.19,-11.28 135.57,-10.62 134.94,-9.97 134.14,-9.54 133.34,-9.12 132.45,-8.97 131.55,-8.83 131.55,-8.83 131.56,-8.83 128.45,-7.99 125.35,-7.15 120.11,-6.73 114.87,-6.31 109.89,-6.30 104.90,-6.28 99.49,-6.45 94.08,-6.61 89.17,-6.55 84.25,-6.49 77.02,-6.04 69.79,-5.59 63.82,-5.28 57.85,-4.98 51.19,-4.58 44.53,-4.18 39.45,-3.43 34.36,-2.67 29.71,-1.63 25.06,-0.60 19.69,1.84 14.32,4.29 13.11,6.58 11.89,8.86 10.41,10.13 8.92,11.39 7.18,12.26 5.44,13.13 3.54,13.56 1.64,13.99 -0.30,13.96 -2.25,13.92 -4.13,13.42 -6.02,12.92 -7.72,11.98 -9.43,11.04 -10.87,9.72 -12.30,8.40 -13.38,6.77 -14.45,5.15 -15.11,3.31 -15.76,1.48 -15.96,-0.45 -16.16,-2.39 -15.89,-4.32 -15.62,-6.25 -14.89,-8.06 -14.16,-9.87 -13.03,-11.45 -11.89,-13.03 -11.89,-13.03 L -11.89,-13.03 Z"></path></g><g transform="translate(93.00710227272731 150.05610795454533) rotate(0 -28.794389204545467 23.556463068181813)" stroke="none"><path d="M 47.68,5.31 Q 47.68,5.31 45.83,8.70 43.97,12.10 41.91,16.48 39.84,20.86 35.56,25.67 31.29,30.49 27.09,33.20 22.90,35.91 15.23,39.06 7.55,42.21 2.64,43.79 -2.26,45.38 -8.26,46.87 -14.26,48.36 -20.53,49.52 -26.80,50.67 -34.21,51.35 -41.61,52.03 -46.76,52.43 -51.91,52.82 -59.53,53.17 -67.15,53.51 -71.80,53.49 -76.44,53.47 -82.42,53.16 -88.41,52.85 -89.35,52.78 -90.30,52.71 -91.17,52.34 -92.05,51.98 -92.76,51.35 -93.47,50.72 -93.94,49.90 -94.42,49.08 -94.60,48.15 -94.79,47.22 -94.67,46.28 -94.55,45.34 -94.14,44.49 -93.72,43.63 -93.06,42.96 -92.39,42.28 -91.55,41.85 -90.70,41.43 -89.76,41.29 -88.83,41.15 -87.89,41.32 -86.96,41.50 -86.13,41.95 -85.30,42.41 -84.66,43.11 -84.03,43.81 -83.64,44.68 -83.26,45.55 -83.18,46.49 -83.09,47.44 -83.31,48.36 -83.53,49.28 -84.04,50.08 -84.54,50.89 -85.27,51.49 -86.01,52.09 -86.90,52.42 -87.78,52.76 -88.73,52.79 -89.68,52.82 -90.59,52.55 -91.49,52.28 -92.27,51.74 -93.04,51.19 -93.60,50.42 -94.16,49.66 -94.45,48.76 -94.73,47.85 -94.72,46.90 -94.70,45.96 -94.38,45.06 -94.06,44.17 -93.47,43.43 -92.88,42.68 -92.09,42.17 -91.30,41.65 -90.38,41.41 -89.46,41.18 -89.46,41.18 -89.46,41.18 -83.38,39.71 -77.30,38.24 -72.89,37.71 -68.48,37.18 -61.32,36.33 -54.16,35.48 -49.04,34.54 -43.92,33.60 -37.51,32.55 -31.10,31.51 -25.55,30.01 -20.00,28.51 -14.93,26.80 -9.86,25.09 -1.76,21.37 6.33,17.66 9.66,14.60 12.99,11.55 14.41,6.92 15.84,2.30 16.49,-1.50 17.14,-5.31 18.00,-7.06 18.86,-8.81 20.11,-10.30 21.36,-11.80 22.94,-12.95 24.51,-14.10 26.31,-14.84 28.11,-15.58 30.04,-15.87 31.97,-16.16 33.91,-15.98 35.85,-15.79 37.69,-15.15 39.53,-14.51 41.17,-13.45 42.80,-12.39 44.13,-10.96 45.46,-9.54 46.42,-7.84 47.37,-6.14 47.89,-4.26 48.40,-2.38 48.46,-0.43 48.51,1.50 48.10,3.41 47.68,5.31 47.68,5.31 L 47.68,5.31 Z"></path></g><g stroke-linecap="round" transform="translate(82.57741477272731 63.80610795454544) rotate(0 54.57208806818181 55.413707386363654)"><path d="M68.63 15.73 L100.95 46.64 L106.79 57.5 L103.64 62.12 L95.17 70.98 L62.5 101.68 L56.74 106.47 L50.36 105.9 L12.97 69.51 L5.38 61.27 L2.3 54.2 L10.18 44.95 L54.14 4.02 L59.15 2.94 L68.25 15.73" stroke="none" stroke-width="0" fill="var(--island-bg-color)"></path><path d="M68.75 14 M68.75 14 C80.25 25.61, 88.07 36.51, 95.39 42 M68.75 14 C80.15 25.57, 90.47 36.35, 95.39 42 M95.39 42 C107.77 55.44, 110.67 57.69, 95.39 70 M95.39 42 C110.09 56.45, 110.03 54.42, 95.39 70 M95.39 70 C89.01 75.52, 85.72 82.22, 68.75 96.83 M95.39 70 C85.63 80.72, 75.91 89.97, 68.75 96.83 M68.75 96.83 C55.97 109.77, 56.01 110.26, 41.25 96.83 M68.75 96.83 C54.69 109.8, 55.5 112.33, 41.25 96.83 M41.25 96.83 C33.2 86.38, 20.12 77.49, 13.75 70 M41.25 96.83 C29.56 85.22, 20.22 76.34, 13.75 70 M13.75 70 C0.75 56.84, -1.25 54.16, 13.75 42 M13.75 70 C2.19 55.6, -1.5 56.91, 13.75 42 M13.75 42 C21.77 34.27, 29.18 26.31, 41.25 14 M13.75 42 C18.66 35.99, 24.82 29.68, 41.25 14 M41.25 14 C54.81 1, 54.5 -0.34, 68.75 14 M41.25 14 C53.13 0.41, 55.24 -1.63, 68.75 14" stroke-width="6" fill="none"></path></g></svg>