<svg version="1.1" xmlns="http://www.w3.org/2000/svg" stroke="#000" viewBox="0 0 122.88 102.06"><path stroke-linecap="round" stroke-width="4" d="M8.18,23.12h67.09v5.39H8.18c-0.77,0-1.47,0.31-1.98,0.82c-0.5,0.51-0.82,1.21-0.82,1.98v39.46c0,0.77,0.31,1.47,0.82,1.98 c0.51,0.5,1.21,0.82,1.98,0.82h67.09v5.39H8.18c-2.24,0-4.29-0.92-5.77-2.4L2.4,76.53C0.92,75.05,0,73.01,0,70.76V31.3 c0-2.24,0.92-4.29,2.4-5.77l0.01-0.01C3.89,24.04,5.94,23.12,8.18,23.12L8.18,23.12z M71.77,53.85c-1.52,0-2.75-1.23-2.75-2.75 c0-1.52,1.23-2.75,2.75-2.75h12.78V18.04c-0.39-3.8-1.56-6.62-3.34-8.6c-1.93-2.16-4.67-3.43-7.99-3.98 c-1.49-0.24-2.51-1.65-2.26-3.15c0.24-1.49,1.65-2.51,3.15-2.26c4.54,0.75,8.37,2.57,11.19,5.74c0.72,0.8,1.37,1.69,1.94,2.66 c0.72-1.25,1.58-2.35,2.56-3.32c2.94-2.92,6.88-4.51,11.59-5.1c1.51-0.18,2.88,0.89,3.06,2.4c0.18,1.51-0.89,2.88-2.4,3.06 c-3.52,0.44-6.38,1.54-8.39,3.53c-1.99,1.97-3.25,4.91-3.61,9.04v5.07h24.65c2.24,0,4.29,0.92,5.77,2.4l0.01,0.01 c1.48,1.48,2.4,3.53,2.4,5.77v39.46c0,2.24-0.92,4.29-2.4,5.77l-0.01,0.01c-1.48,1.48-3.53,2.4-5.77,2.4H90.05v5.07 c0.36,4.13,1.62,7.08,3.61,9.04c2,1.98,4.86,3.09,8.39,3.53c1.51,0.18,2.58,1.56,2.4,3.06c-0.18,1.51-1.55,2.58-3.06,2.4 c-4.7-0.59-8.65-2.18-11.59-5.1c-0.98-0.97-1.84-2.07-2.56-3.32c-0.57,0.97-1.22,1.85-1.94,2.66c-2.83,3.16-6.66,4.99-11.19,5.74 c-1.49,0.24-2.9-0.77-3.15-2.26c-0.24-1.49,0.77-2.9,2.26-3.15c3.32-0.55,6.06-1.81,7.99-3.98c1.78-1.99,2.94-4.81,3.34-8.6 l0-30.17H71.77L71.77,53.85L71.77,53.85z M90.05,28.5v19.84h12.98c1.52,0,2.75,1.23,2.75,2.75c0,1.52-1.23,2.75-2.75,2.75H90.05 v19.71h24.65c0.77,0,1.47-0.31,1.98-0.82c0.5-0.51,0.82-1.21,0.82-1.98V31.3c0-0.77-0.31-1.47-0.82-1.98 c-0.51-0.5-1.21-0.82-1.98-0.82H90.05L90.05,28.5z"/></svg>