<?xml version="1.0" encoding="utf-8"?>
<!-- Svg Vector Icons : http://www.onlinewebfonts.com/icon -->
<!DOCTYPE svg PUBLIC "-//W3C//DTD SVG 1.1//EN" "http://www.w3.org/Graphics/SVG/1.1/DTD/svg11.dtd">
<svg version="1.1" xmlns="http://www.w3.org/2000/svg" xmlns:xlink="http://www.w3.org/1999/xlink" x="0px" y="0px" viewBox="0 0 256 256" enable-background="new 0 0 256 256" xml:space="preserve">
<metadata> Svg Vector Icons : http://www.onlinewebfonts.com/icon </metadata>
<g><g><g><path fill="#000000" d="M101.2,18.7c-2,0.9-38,36.6-39.2,39c-1,1.9-1.1,4.2-0.4,6.2c0.6,1.5,37.3,38.6,39.3,39.6c1.7,0.9,5.2,0.8,7.1-0.1c1.9-0.9,3.7-3.5,4.1-5.8c0.6-3.5-0.2-4.5-12.5-16.8L88.2,69.2h44.3c38.7,0,44.8,0.1,48.6,0.7c24.2,4.2,43.2,22.6,48.1,46.8c3.3,16.4-1,34.2-11.5,47.6c-3.5,4.6-4.1,6.9-2.4,10.4c1.8,3.7,6.6,5.3,10.4,3.5c2.8-1.3,8.7-9.4,12.5-17.2c10.5-20.8,10.5-45.2,0-66.2c-10.3-20.6-28.6-34.8-51.8-40c-4.6-1.1-4.8-1.1-51.3-1.2c-25.7-0.1-46.7-0.3-46.7-0.5s5.2-5.5,11.5-11.9c9.4-9.4,11.6-11.9,12-13.3C113.6,21.6,107.3,16.1,101.2,18.7z"/><path fill="#000000" d="M34.9,73.4c-1.8,0.5-5.8,4.4-9.7,9.6c-7.9,10.4-12.8,22.4-14.5,35.4c-5.3,40.1,22.9,77.3,63.1,83.3c4,0.6,11.3,0.7,45.4,0.7c24,0,40.6,0.2,40.6,0.4c0,0.2-5,5.3-11.1,11.1c-11.3,11-12.9,13-12.9,16c0,4.1,3.8,7.9,7.9,7.9c0.7,0,2.1-0.3,3.1-0.7c2.3-1,38.1-36.6,39.3-39.2c1-2.1,1.1-4.2,0.4-6.1c-0.6-1.5-37.3-38.6-39.3-39.7c-1.9-1-6.1-0.6-8.1,0.8c-2.9,2-4,6.4-2.5,9.4c0.4,0.8,5.9,6.6,12.1,12.9l11.4,11.4h-40.4c-35,0-40.9-0.1-44.7-0.7c-24.2-4.1-43.4-22.9-48.2-47.1c-1.1-5.5-1.1-16.4,0-21.9c2.1-10.7,7-20.2,14.6-28.7c2.1-2.3,3.5-4.3,3.8-5.4c1-3.6-0.7-7.3-4.2-9C38.7,72.8,37.4,72.7,34.9,73.4z"/></g></g></g>
</svg>
