<svg xmlns="http://www.w3.org/2000/svg" viewBox="100 80 500 400"><path d="M307.18 443.33a193.376 193.376 0 0 1-41.418-4.664 107.213 107.213 0 0 1-65.613-41.641 107.22 107.22 0 0 1-20.254-75.027c6.3-43.398 45.266-87.5 135.92-81.082a358.117 358.117 0 0 1 97.883 20.297 218.57 218.57 0 0 0-26.832-60.664c-22.285-35-49.934-55.066-81.668-59.5-66.617-9.102-133 49.582-133.58 50.168v-.004a11.664 11.664 0 0 1-19.957-9.09 11.655 11.655 0 0 1 4.324-8.176c3.035-2.8 75.016-66.617 152.25-56 39.316 5.368 72.566 28.934 98.7 70a233.33 233.33 0 0 1 33.831 84.47 245.007 245.007 0 0 1 106.52 91.116c3.219 5.606 1.29 12.762-4.32 15.98-5.606 3.223-12.762 1.29-15.98-4.316a223.277 223.277 0 0 0-83.652-75.016 148.281 148.281 0 0 1-25.781 88.668 129.381 129.381 0 0 1-110.37 54.48zm-8.285-180.02c-63.7 0-91.465 31.035-95.898 61.715v.004a83.522 83.522 0 0 0 16.199 58.66 83.522 83.522 0 0 0 51.699 32.105c54.367 11.668 100.8-2.684 127.4-40.484h.004a128.338 128.338 0 0 0 20.3-87.148 323.793 323.793 0 0 0-104.42-24.27c-5.366-.348-10.851-.465-15.284-.465z"/></svg>