<svg xmlns="http://www.w3.org/2000/svg" viewBox="100 100 500 350"><g fill-rule="evenodd"><path d="M451.65 485.81a12.407 12.407 0 0 1 8.77 3.61c2.324 2.316 3.632 5.456 3.632 8.734s-1.308 6.422-3.633 8.738a12.387 12.387 0 0 1-8.769 3.606H227.29c-6.828-.012-12.359-5.536-12.359-12.344s5.531-12.332 12.359-12.344zM415.18 49.504l-226.5 130.56 74.664 62.102 168.47-96.812zM446.52 165.6 273.6 264.725l-8.512 70.004 225.14 128.82-72.148-123.81c-16.746 3.625-34.938-3.559-43.906-19.094-11.164-19.238-4.351-44.207 14.895-55.348 6.012-3.438 12.617-5.25 19.148-5.398 14.348-.332 28.555 7.062 36.168 20.25 8.977 15.469 6.336 34.55-5.027 47.25l71.371 122.46.582-256.88z"/><path d="M408.99 284.59h-.191c-2.461.09-5.07.828-7.352 2.121-7.934 4.594-10.383 13.73-5.8 21.602 4.28 7.441 13.948 10.082 21.468 5.785 7.887-4.601 10.371-13.75 5.805-21.598-2.914-5.062-8.406-7.976-13.926-7.906z"/></g></svg>