<?xml version="1.0" encoding="UTF-8"?>
<svg width="700pt" height="700pt" version="1.1" viewBox="100 100 500 350" xmlns="http://www.w3.org/2000/svg" xmlns:xlink="http://www.w3.org/1999/xlink">
 <g>
  <path d="m451.65 485.81c3.2891-0.003906 6.4414 1.293 8.7695 3.6094 2.3242 2.3164 3.6328 5.457 3.6328 8.7344s-1.3086 6.4219-3.6328 8.7383c-2.3281 2.3164-5.4805 3.6133-8.7695 3.6055h-224.36c-6.8281-0.011719-12.359-5.5352-12.359-12.344s5.5312-12.332 12.359-12.344z" fill-rule="evenodd"/>
  <path d="m415.18 49.504-226.5 130.56 74.664 62.102 168.47-96.812z" fill-rule="evenodd"/>
  <path d="m446.52 165.6-172.92 99.125-8.5117 70.004 225.14 128.82-72.148-123.81c-16.746 3.625-34.938-3.5586-43.906-19.094-11.164-19.238-4.3516-44.207 14.895-55.348 6.0117-3.4375 12.617-5.25 19.148-5.3984 14.348-0.33203 28.555 7.0625 36.168 20.25 8.9766 15.469 6.3359 34.551-5.0273 47.25l71.371 122.46 0.58203-256.88z" fill-rule="evenodd"/>
  <path d="m408.99 284.59h-0.19141c-2.4609 0.089844-5.0703 0.82812-7.3516 2.1211-7.9336 4.5938-10.383 13.73-5.8008 21.602 4.2812 7.4414 13.949 10.082 21.469 5.7852 7.8867-4.6016 10.371-13.75 5.8047-21.598-2.9141-5.0625-8.4062-7.9766-13.926-7.9062z" fill-rule="evenodd"/>
 </g>
</svg>
