<svg xmlns="http://www.w3.org/2000/svg" viewBox="110 80 500 400"><path d="M434 408.8a22.397 22.397 0 0 0-19.398 33.597A22.393 22.393 0 0 0 434 453.6h44.801a44.788 44.788 0 0 0 31.676-13.125 44.787 44.787 0 0 0 13.125-31.676v-257.6a44.788 44.788 0 0 0-13.125-31.676 44.787 44.787 0 0 0-31.676-13.125H434a22.403 22.403 0 0 0-19.398 33.601A22.399 22.399 0 0 0 434 151.198h44.801v56H434a22.397 22.397 0 0 0-19.398 11.199c-4 6.934-4 15.473 0 22.402A22.397 22.397 0 0 0 434 251.998h44.801v56H434a22.397 22.397 0 0 0-19.398 11.199c-4 6.93-4 15.469 0 22.402A22.397 22.397 0 0 0 434 352.798h44.801v56zM294 285.6v-97.105l28.953 28.953a22.42 22.42 0 0 0 21.648 5.8 22.42 22.42 0 0 0 15.848-15.847 22.419 22.419 0 0 0-5.8-21.648l-48.106-48.105a49.447 49.447 0 0 0-34.973-14.492 49.446 49.446 0 0 0-34.969 14.492l-48.105 48.105a22.41 22.41 0 0 0 10.047 37.496 22.419 22.419 0 0 0 21.648-5.801l29.008-28.953v183.01l-28.953-28.953a22.42 22.42 0 0 0-21.648-5.8 22.42 22.42 0 0 0-15.848 15.847 22.419 22.419 0 0 0 5.801 21.648l48.105 48.105a49.452 49.452 0 0 0 34.973 14.492 49.463 49.463 0 0 0 34.973-14.492l48.105-48.105h-.004a22.413 22.413 0 0 0-31.695-31.695L294 371.505z"/></svg>