<svg xmlns="http://www.w3.org/2000/svg" viewBox="0 0 190 145.438" stroke="#000" fill="#fff"><path fill="none" stroke-linecap="round" stroke-width="8" d="M20 60.438h150m-150 0h150m0 0c10 0 15 5 15 15m-15-15c10 0 15 5 15 15m0 0v30m0-30v30m0 0c0 10-5 15-15 15m15-15c0 10-5 15-15 15m0 0H20m150 0H20m0 0c-10 0-15-5-15-15m15 15c-10 0-15-5-15-15m0 0v-30m0 30v-30m0 0c0-10 5-15 15-15m-15 15c0-10 5-15 15-15"/><g stroke-linecap="round"><path fill="var(--input-bg-color)" stroke-width="8" d="M165 90.438c0 2.18-.14 4.37-.43 6.53-.28 2.15-.71 4.31-1.27 6.41-.57 2.1-1.27 4.18-2.11 6.19-.83 2.01-1.8 3.99-2.89 5.87a51.975 51.975 0 0 1-3.63 5.44 53.055 53.055 0 0 1-4.31 4.92c-1.54 1.53-3.2 2.98-4.92 4.31a51.975 51.975 0 0 1-5.44 3.63 49.145 49.145 0 0 1-5.87 2.89c-2.01.84-4.09 1.54-6.19 2.11-2.1.56-4.26.99-6.41 1.27-2.16.29-4.35.43-6.53.43-2.18 0-4.37-.14-6.53-.43-2.15-.28-4.31-.71-6.41-1.27-2.1-.57-4.18-1.27-6.19-2.11-2.01-.83-3.99-1.8-5.87-2.89a51.975 51.975 0 0 1-5.44-3.63 53.055 53.055 0 0 1-4.92-4.31c-1.53-1.54-2.98-3.2-4.31-4.92a51.975 51.975 0 0 1-3.63-5.44 49.145 49.145 0 0 1-2.89-5.87c-.84-2.01-1.54-4.09-2.11-6.19-.56-2.1-.99-4.26-1.27-6.41-.29-2.16-.43-4.35-.43-6.53 0-2.18.14-4.37.43-6.53.28-2.15.71-4.31 1.27-6.41.57-2.1 1.27-4.18 2.11-6.19.83-2.01 1.8-3.99 2.89-5.87s2.31-3.71 3.63-5.44c1.33-1.72 2.78-3.38 4.31-4.92 1.54-1.53 3.2-2.98 4.92-4.31 1.73-1.32 3.56-2.54 5.44-3.63 1.88-1.09 3.86-2.06 5.87-2.89 2.01-.84 4.09-1.54 6.19-2.11 2.1-.56 4.26-.99 6.41-1.27 2.16-.29 4.35-.43 6.53-.43 2.18 0 4.37.14 6.53.43 2.15.28 4.31.71 6.41 1.27 2.1.57 4.18 1.27 6.19 2.11 2.01.83 3.99 1.8 5.87 2.89s3.71 2.31 5.44 3.63c1.72 1.33 3.38 2.78 4.92 4.31 1.53 1.54 2.98 3.2 4.31 4.92 1.32 1.73 2.54 3.56 3.63 5.44 1.09 1.88 2.06 3.86 2.89 5.87.84 2.01 1.54 4.09 2.11 6.19.56 2.1.99 4.26 1.27 6.41.29 2.16.36 5.44.43 6.53.07 1.09.07-1.09 0 0"/><path fill="none" stroke-width="8" d="M165 90.438c0 2.18-.14 4.37-.43 6.53-.28 2.15-.71 4.31-1.27 6.41-.57 2.1-1.27 4.18-2.11 6.19-.83 2.01-1.8 3.99-2.89 5.87a51.975 51.975 0 0 1-3.63 5.44 53.055 53.055 0 0 1-4.31 4.92c-1.54 1.53-3.2 2.98-4.92 4.31a51.975 51.975 0 0 1-5.44 3.63 49.145 49.145 0 0 1-5.87 2.89c-2.01.84-4.09 1.54-6.19 2.11-2.1.56-4.26.99-6.41 1.27-2.16.29-4.35.43-6.53.43-2.18 0-4.37-.14-6.53-.43-2.15-.28-4.31-.71-6.41-1.27-2.1-.57-4.18-1.27-6.19-2.11-2.01-.83-3.99-1.8-5.87-2.89a51.975 51.975 0 0 1-5.44-3.63 53.055 53.055 0 0 1-4.92-4.31c-1.53-1.54-2.98-3.2-4.31-4.92a51.975 51.975 0 0 1-3.63-5.44 49.145 49.145 0 0 1-2.89-5.87c-.84-2.01-1.54-4.09-2.11-6.19-.56-2.1-.99-4.26-1.27-6.41-.29-2.16-.43-4.35-.43-6.53 0-2.18.14-4.37.43-6.53.28-2.15.71-4.31 1.27-6.41.57-2.1 1.27-4.18 2.11-6.19.83-2.01 1.8-3.99 2.89-5.87s2.31-3.71 3.63-5.44c1.33-1.72 2.78-3.38 4.31-4.92 1.54-1.53 3.2-2.98 4.92-4.31 1.73-1.32 3.56-2.54 5.44-3.63 1.88-1.09 3.86-2.06 5.87-2.89 2.01-.84 4.09-1.54 6.19-2.11 2.1-.56 4.26-.99 6.41-1.27 2.16-.29 4.35-.43 6.53-.43 2.18 0 4.37.14 6.53.43 2.15.28 4.31.71 6.41 1.27 2.1.57 4.18 1.27 6.19 2.11 2.01.83 3.99 1.8 5.87 2.89s3.71 2.31 5.44 3.63c1.72 1.33 3.38 2.78 4.92 4.31 1.53 1.54 2.98 3.2 4.31 4.92 1.32 1.73 2.54 3.56 3.63 5.44 1.09 1.88 2.06 3.86 2.89 5.87.84 2.01 1.54 4.09 2.11 6.19.56 2.1.99 4.26 1.27 6.41.29 2.16.36 5.44.43 6.53.07 1.09.07-1.09 0 0"/></g><path fill="none" stroke-linecap="round" stroke-width="8" d="m101 29.438-20-20m20 20-20-20M115 29.438V4.997m0 24.44V4.997M129 29.438l20-20m-20 20 20-20M25 120.438v20m0-20v20M165 120.438v20m0-20v20"/><g stroke-linecap="round"><path stroke-width="0" d="M50.244 90.111c0 .25-.02.5-.06.74-.05.24-.11.48-.2.71-.08.23-.18.46-.31.67a4.257 4.257 0 0 1-1.54 1.54c-.21.13-.44.23-.67.31-.23.09-.47.15-.71.2a4.524 4.524 0 0 1-1.47 0c-.24-.05-.48-.11-.71-.2-.23-.08-.46-.18-.67-.31a4.257 4.257 0 0 1-1.54-1.54c-.13-.21-.23-.44-.32-.67a5.71 5.71 0 0 1-.19-.71 4.524 4.524 0 0 1 0-1.47c.05-.24.11-.48.19-.71.09-.23.19-.46.32-.67a4.257 4.257 0 0 1 1.54-1.54c.21-.13.44-.23.67-.32.23-.08.47-.14.71-.19a4.493 4.493 0 0 1 1.47 0c.24.05.48.11.71.19.23.09.46.19.67.32a4.257 4.257 0 0 1 1.54 1.54c.13.21.23.44.31.67.09.23.15.47.2.71.04.24.05.61.06.73.01.13.01-.12 0 0"/><path fill="none" stroke-width="8" d="M50.244 90.111c0 .25-.02.5-.06.74-.05.24-.11.48-.2.71-.08.23-.18.46-.31.67a4.257 4.257 0 0 1-1.54 1.54c-.21.13-.44.23-.67.31-.23.09-.47.15-.71.2a4.524 4.524 0 0 1-1.47 0c-.24-.05-.48-.11-.71-.2-.23-.08-.46-.18-.67-.31a4.257 4.257 0 0 1-1.54-1.54c-.13-.21-.23-.44-.32-.67a5.71 5.71 0 0 1-.19-.71 4.524 4.524 0 0 1 0-1.47c.05-.24.11-.48.19-.71.09-.23.19-.46.32-.67a4.257 4.257 0 0 1 1.54-1.54c.21-.13.44-.23.67-.32.23-.08.47-.14.71-.19a4.493 4.493 0 0 1 1.47 0c.24.05.48.11.71.19.23.09.46.19.67.32a4.257 4.257 0 0 1 1.54 1.54c.13.21.23.44.31.67.09.23.15.47.2.71.04.24.05.61.06.73.01.13.01-.12 0 0"/></g><g stroke-linecap="round"><path stroke-width="0" d="M29.437 90.111c0 .25-.02.5-.06.74-.05.24-.11.48-.2.71-.08.23-.18.46-.31.67a4.257 4.257 0 0 1-1.54 1.54c-.21.13-.44.23-.67.31-.23.09-.47.15-.71.2a4.524 4.524 0 0 1-1.47 0c-.24-.05-.48-.11-.71-.2-.23-.08-.46-.18-.67-.31a4.257 4.257 0 0 1-1.54-1.54c-.13-.21-.23-.44-.32-.67a5.71 5.71 0 0 1-.19-.71 4.524 4.524 0 0 1 0-1.47c.05-.24.11-.48.19-.71.09-.23.19-.46.32-.67a4.257 4.257 0 0 1 1.54-1.54c.21-.13.44-.23.67-.32.23-.08.47-.14.71-.19a4.493 4.493 0 0 1 1.47 0c.24.05.48.11.71.19.23.09.46.19.67.32a4.257 4.257 0 0 1 1.54 1.54c.13.21.23.44.31.67.09.23.15.47.2.71.04.24.05.61.06.73.01.13.01-.12 0 0"/><path fill="none" stroke-width="8" d="M29.437 90.111c0 .25-.02.5-.06.74-.05.24-.11.48-.2.71-.08.23-.18.46-.31.67a4.257 4.257 0 0 1-1.54 1.54c-.21.13-.44.23-.67.31-.23.09-.47.15-.71.2a4.524 4.524 0 0 1-1.47 0c-.24-.05-.48-.11-.71-.2-.23-.08-.46-.18-.67-.31a4.257 4.257 0 0 1-1.54-1.54c-.13-.21-.23-.44-.32-.67a5.71 5.71 0 0 1-.19-.71 4.524 4.524 0 0 1 0-1.47c.05-.24.11-.48.19-.71.09-.23.19-.46.32-.67a4.257 4.257 0 0 1 1.54-1.54c.21-.13.44-.23.67-.32.23-.08.47-.14.71-.19a4.493 4.493 0 0 1 1.47 0c.24.05.48.11.71.19.23.09.46.19.67.32a4.257 4.257 0 0 1 1.54 1.54c.13.21.23.44.31.67.09.23.15.47.2.71.04.24.05.61.06.73.01.13.01-.12 0 0"/></g></svg>