<svg xmlns="http://www.w3.org/2000/svg" viewBox="100 80 500 400"><path d="M309.12 184.8c0 21.957-17.801 39.758-39.762 39.758-21.957 0-39.758-17.801-39.758-39.758 0-21.961 17.801-39.762 39.758-39.762 21.961 0 39.762 17.801 39.762 39.762M341.6 159.04h179.2v51.52H341.6zM309.12 282.24c0 21.961-17.801 39.762-39.762 39.762-21.957 0-39.758-17.801-39.758-39.762 0-21.957 17.801-39.758 39.758-39.758 21.961 0 39.762 17.801 39.762 39.758M341.6 256.48h179.2V308H341.6zM309.12 379.12c0 21.957-17.801 39.758-39.762 39.758-21.957 0-39.758-17.801-39.758-39.758 0-21.961 17.801-39.762 39.758-39.762 21.961 0 39.762 17.801 39.762 39.762M341.6 353.36h179.2v51.52H341.6z"/></svg>