<svg xmlns="http://www.w3.org/2000/svg" viewBox="0 0 156.01944 159.27567">
   <g
   id="layer1"
   transform="translate(-26.537155,-79.352678)">
  <path
     d="m 63.646518,79.35271 c -0.490272,0.0012 -0.981154,0.03861 -1.468128,0.112138 -1.298603,0.196162 -2.54592,0.646235 -3.670577,1.324467 -1.124629,0.677685 -2.104844,1.570274 -2.884578,2.626713 -0.779502,1.056481 -1.343361,2.256195 -1.65933,3.530534 -0.316216,1.274341 -0.37838,2.598559 -0.182935,3.89692 0.195591,1.298277 0.644957,2.545404 1.3224,3.67006 l 11.601876,19.253088 c -0.345867,0.1298 -0.699453,0.25003 -1.042314,0.38344 -1.048727,0.40806 -2.083433,0.83293 -3.10317,1.27434 -1.019736,0.44141 -2.024327,0.89943 -3.013769,1.37356 -0.989442,0.47413 -1.963426,0.96448 -2.921269,1.47071 -0.957843,0.50623 -1.899693,1.02809 -2.824634,1.5658 -0.92494,0.5377 -1.833131,1.09129 -2.723864,1.65984 -0.890734,0.56856 -1.765912,1.15531 -2.62413,1.7601 -0.858217,0.6048 -1.699713,1.22768 -2.522326,1.86759 -0.822614,0.63991 -1.626267,1.29703 -2.410189,1.97094 -0.783922,0.6739 -1.548156,1.36441 -2.2903,2.07119 -0.742144,0.70678 -1.462279,1.42981 -2.159558,2.16834 -0.697278,0.73853 -1.371739,1.49272 -2.021065,2.26188 -0.649326,0.76916 -1.273951,1.55312 -1.872237,2.3518 -0.598286,0.79867 -1.169949,1.61206 -1.714107,2.43912 -0.544159,0.82706 -1.060766,1.668 -1.547709,2.52233 -0.486944,0.85433 -0.944334,1.72195 -1.370976,2.60242 -0.426642,0.88048 -0.822204,1.77393 -1.185458,2.67943 -0.363253,0.9055 -0.694376,1.82288 -0.991154,2.75228 -0.296777,0.92941 -0.559301,1.8709 -0.786515,2.82309 -0.227213,0.95218 -0.419045,1.91538 -0.573608,2.88923 -0.154563,0.97384 -0.272058,1.95789 -0.350883,2.95227 -0.07882,0.99439 -0.118856,1.99894 -0.118856,3.01274 0,1.0138 0.04003,2.01835 0.118856,3.01273 0.07883,0.99439 0.19632,1.97895 0.350883,2.9528 0.154563,0.97384 0.346395,1.93704 0.573608,2.88922 0.227214,0.95219 0.489738,1.89317 0.786515,2.82257 0.296778,0.9294 0.627901,1.84731 0.991154,2.7528 0.363254,0.9055 0.758816,1.79844 1.185458,2.67891 0.426642,0.88048 0.884032,1.7481 1.370976,2.60243 0.486943,0.85432 1.00355,1.69578 1.547709,2.52284 0.544158,0.82706 1.115821,1.63994 1.714107,2.43861 0.598286,0.79867 1.222911,1.58315 1.872237,2.35231 0.649326,0.76916 1.323787,1.52335 2.021065,2.26188 0.697279,0.73853 1.417414,1.46105 2.159558,2.16783 0.742144,0.70677 1.506378,1.3978 2.2903,2.0717 0.783922,0.67391 1.587575,1.33103 2.410189,1.97094 0.822613,0.63991 1.664109,1.26228 2.522326,1.86707 0.858218,0.60479 1.733396,1.19206 2.62413,1.76062 0.890733,0.56855 1.798924,1.12162 2.723864,1.65933 0.924941,0.5377 1.866791,1.06008 2.824634,1.56631 0.957843,0.50623 1.931827,0.99658 2.921269,1.47071 0.989442,0.47414 1.994033,0.93163 3.013769,1.37305 1.019737,0.44141 2.054443,0.86627 3.10317,1.27434 1.048728,0.40806 2.111505,0.79948 3.187919,1.17357 1.076415,0.37409 2.166771,0.73124 3.269568,1.07073 1.102797,0.3395 2.218173,0.66157 3.346049,0.96584 1.127876,0.30427 2.267778,0.59043 3.41943,0.85886 1.151651,0.26842 2.31507,0.5189 3.489192,0.75086 1.174123,0.23195 2.359016,0.44541 3.554305,0.64027 1.19529,0.19485 2.401164,0.371 3.616317,0.52813 1.215153,0.15713 2.439966,0.29566 3.673678,0.41445 1.233712,0.11878 2.476453,0.21784 3.727421,0.29765 1.250967,0.0798 2.510111,0.14013 3.777029,0.18035 1.26692,0.0402 2.54146,0.0605 3.82302,0.0605 1.28157,0 2.55611,-0.0202 3.82303,-0.0605 1.26691,-0.0402 2.52606,-0.10053 3.77703,-0.18035 1.25096,-0.0798 2.49371,-0.17887 3.72742,-0.29765 1.23371,-0.11879 2.45852,-0.25732 3.67368,-0.41445 1.21515,-0.15713 2.42102,-0.33328 3.61631,-0.52813 0.93043,-0.15168 1.84907,-0.32397 2.76676,-0.49816 l 13.09997,21.73924 c 0.67785,1.12469 1.5706,2.10488 2.62723,2.88458 1.05657,0.77994 2.25644,1.34414 3.53105,1.66036 1.27473,0.31618 2.59928,0.37817 3.89796,0.18242 1.29854,-0.19585 2.54583,-0.64556 3.67057,-1.32343 0.37386,-0.22521 0.73258,-0.47466 1.07384,-0.74673 0.34117,-0.27227 0.66416,-0.5666 0.96687,-0.88108 0.3028,-0.31437 0.5847,-0.64823 0.84387,-0.99942 0.25908,-0.35128 0.49489,-0.71915 0.7059,-1.10123 0.21116,-0.38206 0.39708,-0.77755 0.55656,-1.18391 0.15933,-0.4062 0.29191,-0.8224 0.39687,-1.24592 0.10503,-0.42375 0.18219,-0.85393 0.231,-1.28777 0.0488,-0.43366 0.0692,-0.87006 0.061,-1.30638 -0.008,-0.43653 -0.045,-0.87207 -0.11007,-1.3038 -0.0652,-0.43145 -0.15861,-0.85819 -0.27957,-1.27744 -0.12076,-0.41955 -0.26887,-0.83074 -0.44338,-1.23093 -0.1746,-0.39992 -0.37519,-0.78798 -0.60048,-1.16169 l -10.43709,-17.32039 c 0.26843,-0.11306 0.54439,-0.21747 0.8108,-0.33279 1.01973,-0.44141 2.02434,-0.89892 3.01377,-1.37305 0.98944,-0.47413 1.96344,-0.96448 2.92127,-1.47071 0.95784,-0.50623 1.89971,-1.02861 2.82464,-1.56631 0.92493,-0.5377 1.83314,-1.09078 2.72386,-1.65933 0.89073,-0.56855 1.76592,-1.15583 2.62413,-1.76062 0.85821,-0.60478 1.69972,-1.22717 2.52233,-1.86707 0.8226,-0.6399 1.62679,-1.29704 2.4107,-1.97094 0.78392,-0.67389 1.54765,-1.36493 2.28979,-2.0717 0.74213,-0.70678 1.46228,-1.42931 2.15955,-2.16783 0.69728,-0.73853 1.37175,-1.49272 2.02107,-2.26188 0.64932,-0.76915 1.27396,-1.55364 1.87224,-2.35231 0.59828,-0.79866 1.16995,-1.61156 1.7141,-2.43861 0.54416,-0.82705 1.06077,-1.66852 1.54771,-2.52284 0.48694,-0.85432 0.94434,-1.72196 1.37098,-2.60243 0.42664,-0.88047 0.82221,-1.77342 1.18546,-2.67891 0.36325,-0.90549 0.69438,-1.82341 0.99115,-2.7528 0.29677,-0.92939 0.5593,-1.87039 0.78652,-2.82257 0.22721,-0.95217 0.41904,-1.91539 0.5736,-2.88922 0.15457,-0.97384 0.27206,-1.95842 0.35089,-2.9528 0.0788,-0.99437 0.11885,-1.99894 0.11885,-3.01273 0,-1.01379 -0.04,-2.01836 -0.11885,-3.01274 -0.0788,-0.99437 -0.19632,-1.97844 -0.35089,-2.95227 -0.15456,-0.97384 -0.34639,-1.93706 -0.5736,-2.88923 -0.22722,-0.95218 -0.48975,-1.89369 -0.78652,-2.82309 -0.29677,-0.92939 -0.6279,-1.84679 -0.99115,-2.75228 -0.36325,-0.90549 -0.75882,-1.79896 -1.18546,-2.67943 -0.42664,-0.88046 -0.88404,-1.7481 -1.37098,-2.60242 -0.48694,-0.85432 -1.00355,-1.69527 -1.54771,-2.52233 -0.54415,-0.82705 -1.11582,-1.64046 -1.7141,-2.43912 -0.59828,-0.79867 -1.22292,-1.58264 -1.87224,-2.3518 -0.64932,-0.76915 -1.32379,-1.52335 -2.02107,-2.26188 -0.69727,-0.73852 -1.41742,-1.46157 -2.15955,-2.16834 -0.74214,-0.70677 -1.50587,-1.39729 -2.28979,-2.07119 -0.78391,-0.6739 -1.5881,-1.33104 -2.4107,-1.97094 -0.82261,-0.6399 -1.66412,-1.2628 -2.52233,-1.86759 -0.85821,-0.60478 -1.7334,-1.19155 -2.62413,-1.7601 -0.89072,-0.56854 -1.79893,-1.12214 -2.72386,-1.65984 -0.92493,-0.5377 -1.8668,-1.05957 -2.82464,-1.5658 -0.95783,-0.50623 -1.93183,-0.99658 -2.92127,-1.47071 -0.98943,-0.47413 -1.99404,-0.93215 -3.01377,-1.37356 -1.01972,-0.44141 -2.05445,-0.86628 -3.10316,-1.27434 -1.04872,-0.40806 -2.11152,-0.79949 -3.18792,-1.17357 -1.07641,-0.37409 -2.16627,-0.73073 -3.26906,-1.07022 -1.10278,-0.33949 -2.2187,-0.66157 -3.34656,-0.96583 -1.12787,-0.30427 -2.26779,-0.59096 -3.41943,-0.85938 -1.15164,-0.26842 -2.31508,-0.51891 -3.48919,-0.75086 -1.17411,-0.23195 -2.35903,-0.44542 -3.55431,-0.64027 -1.19528,-0.19486 -2.40117,-0.371 -3.61631,-0.52814 -1.21515,-0.15713 -2.43998,-0.29514 -3.67368,-0.41392 -1.2337,-0.11879 -2.47647,-0.21836 -3.72742,-0.29818 -1.25096,-0.0798 -2.51013,-0.14013 -3.77703,-0.18035 -1.26691,-0.0402 -2.54147,-0.0605 -3.82303,-0.0605 -1.28155,0 -2.55611,0.0202 -3.82302,0.0605 -1.266905,0.0402 -2.526074,0.10054 -3.777029,0.18035 -1.250955,0.0798 -2.493722,0.17939 -3.727421,0.29818 -1.2337,0.11878 -2.458537,0.25679 -3.673678,0.41392 -0.885404,0.1145 -1.760029,0.25043 -2.634981,0.38499 L 72.234624,84.191175 c -0.677837,-1.124678 -1.570604,-2.104896 -2.62723,-2.884579 -1.056552,-0.77993 -2.256453,-1.344145 -3.53105,-1.660364 -0.796735,-0.197397 -1.612707,-0.295579 -2.429826,-0.293522 z m 40.900342,47.85651 c 2.13191,0 4.23654,0.0705 6.30711,0.20722 2.07058,0.13673 4.10713,0.33966 6.10402,0.60358 1.99689,0.26393 3.95391,0.58891 5.86476,0.97049 1.91085,0.38158 3.77583,0.81978 5.58829,1.30948 1.81246,0.4897 3.57291,1.03074 5.27461,1.61902 1.70171,0.58828 3.34513,1.22385 4.92373,1.90118 1.57861,0.67732 3.0925,1.39652 4.53564,2.15335 1.44315,0.75684 2.81553,1.55134 4.11086,2.37815 1.29534,0.82681 2.5061,1.67368 3.63286,2.53783 1.12676,0.86416 2.16944,1.74579 3.12952,2.6417 0.96009,0.89592 1.8376,1.80591 2.63292,2.728 0.79531,0.92209 1.5085,1.85611 2.14095,2.7988 0.63245,0.94268 1.18423,1.89432 1.65571,2.85202 0.23575,0.47885 0.45165,0.95918 0.64751,1.44074 0.19586,0.48155 0.37141,0.96441 0.52762,1.44797 0.15621,0.48357 0.29299,0.96827 0.40979,1.45314 0.1168,0.48488 0.21383,0.97024 0.29146,1.45573 0.0776,0.48548 0.13597,0.97084 0.17466,1.45624 0.0387,0.4854 0.0579,0.97059 0.0579,1.45521 0,0.48462 -0.0192,0.96982 -0.0579,1.45521 -0.0387,0.48538 -0.097,0.97129 -0.17466,1.45675 -0.0776,0.48546 -0.17466,0.97038 -0.29146,1.45521 -0.1168,0.48484 -0.25358,0.96963 -0.40979,1.45314 -0.15621,0.48352 -0.33176,0.96596 -0.52762,1.44746 -0.19586,0.4815 -0.41176,0.96195 -0.64751,1.44074 -0.47148,0.95759 -1.02326,1.90894 -1.65571,2.85151 -0.63245,0.94256 -1.34564,1.87629 -2.14095,2.79827 -0.79532,0.92198 -1.67283,1.8327 -2.63292,2.72852 -0.96008,0.89582 -2.00276,1.77708 -3.12952,2.64118 -1.12676,0.8641 -2.33752,1.71102 -3.63286,2.53783 -1.29533,0.82681 -2.66771,1.62075 -4.11086,2.37763 -1.44314,0.75689 -2.95703,1.47646 -4.53564,2.15388 -1.0852,0.46568 -2.24051,0.88257 -3.3848,1.3069 L 98.280579,127.41489 c 2.057611,-0.13499 4.148181,-0.20567 6.266281,-0.20567 z m -27.25208,4.1305 37.42149,62.10008 c -1.28157,0.13819 -2.55214,0.29534 -3.8623,0.38189 -2.07059,0.13679 -4.17518,0.20774 -6.30711,0.20774 -2.13193,0 -4.23651,-0.0709 -6.307105,-0.20774 -2.070597,-0.13678 -4.107109,-0.33956 -6.10402,-0.60358 -1.996911,-0.26401 -3.953889,-0.5893 -5.864758,-0.971 -1.91087,-0.38169 -3.775816,-0.81966 -5.58829,-1.30948 -1.812474,-0.48982 -3.572889,-1.03166 -5.274613,-1.62006 -1.701724,-0.5884 -3.345111,-1.22375 -4.923731,-1.90117 -1.578619,-0.67743 -3.09248,-1.39698 -4.53564,-2.15388 -1.443161,-0.75689 -2.815514,-1.55081 -4.11086,-2.37763 -1.295347,-0.82682 -2.506083,-1.67372 -3.632854,-2.53783 -1.12677,-0.86411 -2.169428,-1.74535 -3.129524,-2.64118 -0.960097,-0.89583 -1.83759,-1.80653 -2.632914,-2.72852 -0.795325,-0.92198 -1.5085,-1.8557 -2.140955,-2.79827 -0.632456,-0.94258 -1.184225,-1.89391 -1.655713,-2.85151 -0.235744,-0.4788 -0.451647,-0.95923 -0.647506,-1.44074 -0.195859,-0.48151 -0.371404,-0.96393 -0.527616,-1.44746 -0.156212,-0.48352 -0.292992,-0.96829 -0.409794,-1.45314 -0.116802,-0.48484 -0.213825,-0.96974 -0.291455,-1.45521 -0.07763,-0.48546 -0.13597,-0.97136 -0.174667,-1.45675 -0.0387,-0.4854 -0.05788,-0.97059 -0.05788,-1.45521 0,-0.48463 0.01918,-0.9698 0.05788,-1.45521 0.0387,-0.48541 0.09704,-0.97075 0.174667,-1.45624 0.07763,-0.48549 0.174653,-0.97085 0.291455,-1.45573 0.116802,-0.48488 0.253582,-0.96957 0.409794,-1.45314 0.156212,-0.48357 0.331757,-0.96641 0.527616,-1.44797 0.195859,-0.48156 0.411762,-0.96189 0.647506,-1.44074 0.471488,-0.95771 1.023257,-1.90933 1.655713,-2.85202 0.632455,-0.9427 1.34563,-1.8767 2.140955,-2.7988 0.795324,-0.9221 1.672817,-1.83207 2.632914,-2.728 0.960096,-0.89592 2.002754,-1.77753 3.129524,-2.6417 1.126771,-0.86416 2.337507,-1.71101 3.632854,-2.53783 1.295346,-0.82681 2.667699,-1.6213 4.11086,-2.37815 1.44316,-0.75684 2.957021,-1.47602 4.53564,-2.15335 1.57862,-0.67734 3.222007,-1.31289 4.923731,-1.90118 0.608715,-0.21043 1.263313,-0.38108 1.886706,-0.57929 z"
     style="stroke-linecap:round"
     id="path7" />
</g>
</svg>