<svg xmlns="http://www.w3.org/2000/svg" viewBox="0 0 567 489">
   <path
       d="M 20.803582,0.35478208 A 25,25 0 0 0 5.9442069,8.8176728 25,25 0 0 0 8.8172543,44.055954 L 31.254754,63.108689 c -0.121266,0.849954 -0.301322,1.680716 -0.388672,2.541015 -0.218469,2.151668 -0.330078,4.335551 -0.330078,6.544922 V 392.19462 c 0,2.20625 0.111609,4.38587 0.330078,6.53516 0.218468,2.14929 0.544482,4.26807 0.970703,6.34961 0.426219,2.08154 0.952918,4.12591 1.576172,6.12891 0.623252,2.00299 1.342775,3.96328 2.152343,5.87695 0.80957,1.91367 1.708193,3.7802 2.69336,5.59375 0.985166,1.81355 2.056984,3.57472 3.207031,5.27734 1.150047,1.70264 2.379385,3.34681 3.683594,4.92774 1.304208,1.58093 2.683206,3.09844 4.130859,4.54687 1.447654,1.44844 2.964542,2.82767 4.544922,4.13282 1.58038,1.30514 3.223392,2.53642 4.925781,3.6875 1.70239,1.15106 3.463664,2.22277 5.277344,3.20898 1.81368,0.98621 3.679496,1.88672 5.59375,2.69727 1.914254,0.81053 3.87675,1.5302 5.880859,2.15429 2.00411,0.6241 4.049565,1.15323 6.132813,1.58008 2.083248,0.42686 4.203801,0.75188 6.355469,0.9707 2.151667,0.21883 4.335552,0.33204 6.544922,0.33203 H 478.53601 c 2.20625,0 4.38587,-0.1132 6.53515,-0.33203 2.14929,-0.21882 4.26808,-0.54384 6.34961,-0.9707 0.30707,-0.063 0.59887,-0.16503 0.9043,-0.23242 l 33.48047,28.43164 a 25,25 0 0 0 35.23828,-2.87305 25,25 0 0 0 -2.87305,-35.23828 L 41.182488,5.9446259 A 25,25 0 0 0 29.485222,0.40556338 25,25 0 0 0 20.803582,0.35478208 Z M 94.536004,8.1946259 c -2.209366,0 -4.39326,0.1116097 -6.544922,0.3300781 -2.151664,0.2184684 -4.272226,0.5425319 -6.355469,0.9687499 -2.083244,0.42622 -4.128707,0.9548741 -6.132813,1.5781251 -2.004105,0.623253 -3.966609,1.340824 -5.880859,2.150391 -0.337447,0.142712 -0.651869,0.326303 -0.986328,0.474609 l 68.884767,58.498047 h 93.49024 23.52539 v 19.978516 79.392578 l 109.07422,92.6289 h 93.49218 21.4336 v 18.20313 79.39258 l 60.42383,51.31445 c 0.22119,-0.63745 0.49391,-1.25011 0.69531,-1.89648 0.62409,-2.00299 1.15127,-4.04738 1.57812,-6.12891 0.42686,-2.08153 0.75188,-4.20033 0.97071,-6.34961 0.21882,-2.14928 0.33203,-4.32892 0.33203,-6.53516 V 336.74736 271.15166 72.194626 c 0,-2.209349 -0.11321,-4.393275 -0.33203,-6.544922 -0.21882,-2.151647 -0.54386,-4.272242 -0.97071,-6.355469 -0.42685,-2.083227 -0.95403,-4.128722 -1.57812,-6.132812 -0.62409,-2.00409 -1.34376,-3.966624 -2.1543,-5.88086 -0.81054,-1.914234 -1.71302,-3.780086 -2.69922,-5.59375 -0.98619,-1.813662 -2.05792,-3.574971 -3.20898,-5.277343 -1.15106,-1.702373 -2.38041,-3.34737 -3.68555,-4.927735 -1.30514,-1.580364 -2.68439,-3.097282 -4.13281,-4.544922 -1.44842,-1.447638 -2.96596,-2.82471 -4.54688,-4.128906 -1.5809,-1.304195 -3.22708,-2.535511 -4.92968,-3.685547 -1.70262,-1.150034 -3.46187,-2.219921 -5.27539,-3.205078 -1.81353,-0.985156 -3.68011,-1.885752 -5.59375,-2.695312 -1.91366,-0.809561 -3.87593,-1.527143 -5.87891,-2.150391 -2.00298,-0.623246 -4.04739,-1.1519091 -6.12891,-1.5781251 -2.08151,-0.426215 -4.20034,-0.7502832 -6.34961,-0.9687499 -2.14925,-0.2184666 -4.32893,-0.3300781 -6.53515,-0.3300781 H 232.88952 155.64538 Z M 318.53601,72.194626 h 160 V 200.19462 H 458.97937 381.73718 318.53601 V 146.52275 80.927048 Z M 94.536004,116.84892 192.67859,200.19462 H 94.536004 Z m 0,147.3457 H 254.53601 v 128 H 94.536004 Z m 224.000006,42.87891 100.23437,85.12109 H 318.53601 Z" />
</svg>