<svg width="512" height="512" viewBox="0 0 512 512" fill="none" xmlns="http://www.w3.org/2000/svg"><g clip-path="url(#clip0_208_9)"><path d="M65.9998-.000654c3.8123.565735 5.5413 2.175934 8.2177 4.877194.8206.82078 1.6411 1.64155 2.4865 2.4872.8762.89166 1.7524 1.78333 2.6551 2.70206.9044.9086 1.8088 1.8172 2.7406 2.7534 2.4003 2.4117 4.7914 4.8323 7.1808 7.2549 2.4413 2.472 4.8912 4.9356 7.3404 7.3999 4.8011 4.8335 9.5931 9.6764 14.3791 14.5253 1.748-.9477 3.496-1.8967 5.244-2.8464.974-.5284 1.947-1.0567 2.95-1.6011 2.983-1.6507 5.893-3.3937 8.797-5.1777 21.319-13.0079 45.1-21.6251 69.384-27.24975 1.153-.26829 1.153-.26829 2.329-.542 2.757-.59344 5.518-1.09741 8.296-1.583.69-.12389 1.381-.24777 2.092-.3754C224.014.185303 237.679-.500692 251.8-.446699c3.367.008494 6.733-.020368 10.1-.052002 20.774-.068408 41.126 2.564781 61.162 8.123051 1.239.33773 2.478.67546 3.755 1.02343C392.895 27.2981 447.73 72.5972 481.581 131.858c14.51 25.997 22.586 53.905 27.419 83.141.25 1.509.25 1.509.505 3.048 1.89 11.862 2.794 23.629 2.932 35.64.023 1.133.045 2.267.068 3.435-.045 16.623-6.793 31.749-18.271 43.67-.737.729-1.475 1.457-2.234 2.207-.614.636-1.227 1.271-1.86 1.926-14.087 13.576-32.96 16.137-51.609 16.391-1.276.021-2.552.041-3.867.063-3.367.054-6.733.104-10.1.153-3.446.05-6.892.106-10.338.161-6.742.106-13.484.208-20.226.306 6.378 6.402 12.759 12.8 19.143 19.195 2.965 2.97 5.929 5.942 8.891 8.915 2.864 2.875 5.73 5.747 8.598 8.617 1.088 1.09 2.176 2.181 3.262 3.273 6.802 6.876 6.802 6.876 13.969 13.364 6.357 5.443 12.142 11.519 18.043 17.445 1.334 1.335 2.667 2.671 4.001 4.006 3.488 3.491 6.972 6.985 10.456 10.48 3.564 3.575 7.132 7.147 10.699 10.719 6.982 6.993 13.961 13.989 20.938 20.986-1.344 3.537-2.493 5.856-5.231 8.489-.634.62-1.269 1.239-1.923 1.878-.671.642-1.342 1.284-2.034 1.946-1.373 1.34-2.744 2.683-4.113 4.027-.649.637-1.298 1.273-1.967 1.929-2.522 2.521-4.833 5.189-7.131 7.911-2.653 3.016-5.555 5.782-8.414 8.602-1.984 2.013-3.848 4.073-5.687 6.218-3.252 3.794-6.757 7.274-10.313 10.782-2.582 2.618-4.962 5.371-7.351 8.164-2.862 3.202-5.939 6.178-9.016 9.172-1.884 1.76-1.884 1.76-2.82 3.882-4.372-.443-6.74-3.344-9.652-6.326-.553-.555-1.106-1.11-1.677-1.681-1.83-1.837-3.649-3.684-5.468-5.532-1.275-1.283-2.55-2.565-3.827-3.846-3.363-3.381-6.718-6.77-10.071-10.162-5.35-5.409-10.712-10.805-16.075-16.201-1.864-1.878-3.724-3.759-5.583-5.641-1.16-1.169-2.319-2.339-3.478-3.508-.508-.515-1.015-1.031-1.538-1.562-2.754-2.771-5.585-5.399-8.542-7.954-4.072-3.527-7.89-7.259-11.683-11.082-.711-.714-1.423-1.427-2.156-2.161-1.529-1.533-3.058-3.068-4.585-4.603-2.414-2.427-4.831-4.85-7.249-7.273-5.12-5.132-10.237-10.268-15.354-15.405-5.954-5.978-11.91-11.954-17.87-17.926-2.386-2.393-4.77-4.79-7.154-7.186-1.45-1.454-2.9-2.907-4.35-4.361-.667-.671-1.333-1.343-2.02-2.035-1.537-1.537-3.1-3.049-4.668-4.555h-1c-4.186 16.948.21 33.953 7.537 49.284 6.778 14.414 6.956 33.404 1.721 48.343-6.106 15.792-16.574 29.355-32.258 36.373-9.298 3.445-18.014 5.151-27.887 5.203-.856.006-1.713.012-2.595.018-1.815.009-3.63.016-5.444.02-2.708.009-5.415.04-8.123.072-16.207.1-31.671-1.927-47.264-6.438-1.569-.449-1.569-.449-3.17-.907C154.243 496.02 125.427 481 101 460.999c-.528-.431-1.0553-.862-1.5989-1.307-8.4204-6.917-16.4894-14.201-24.4013-21.693-1.1273-1.063-1.1273-1.063-2.2774-2.148-5.391-5.231-10.0552-10.976-14.7226-16.852-.8876-1.096-1.7756-2.193-2.6641-3.289-28.0975-34.89-45.0251-75.626-52.33593-119.711-.16371-.944-.32742-1.889-.4961-2.862-4.90671-29.284-4.68058-61.089 1.4961-90.138.21962-1.033.43925-2.067.66552-3.131 6.07711-27.672 16.05271-53.924 31.39551-77.813.5419-.867 1.0838-1.733 1.6421-2.626.7372-1.141.7372-1.141 1.4893-2.305 1.0617-2.085 1.0617-2.085.0903-4.011-1.4382-2.37-3.0312-4.102-4.9981-6.056-1.1409-1.141-1.1409-1.141-2.3049-2.305-.8209-.81-1.6418-1.621-2.4875-2.456-.8407-.838-1.6813-1.675-2.5474-2.5385-2.6853-2.6741-5.3774-5.3412-8.0698-8.0082-1.8221-1.812-3.6437-3.6245-5.4649-5.4375C8.94509 81.8691 4.4746 77.432-.000233 72.9993c1.343653-3.5364 2.492663-5.8558 5.230473-8.4882.6347-.6199 1.2694-1.2398 1.92334-1.8785.67111-.6421 1.34223-1.2842 2.03369-1.9458 1.37293-1.3405 2.74403-2.683 4.11323-4.0273.6493-.6366 1.2985-1.2733 1.9673-1.9292 2.5218-2.5203 4.8324-5.1884 7.1304-7.9106 2.6535-3.0159 5.5556-5.7817 8.4141-8.6016 1.9847-2.0131 3.8484-4.0732 5.6875-6.2188 3.2516-3.7935 6.7571-7.2739 10.3125-10.7812 2.5818-2.6187 4.9622-5.371 7.3515-8.1641 2.8612-3.20207 5.9388-6.17841 9.0157-9.17184 1.8841-1.76035 1.8841-1.76035 2.8203-3.882814ZM231 75.9993c-5.758 9.0073-8.131 16.5358-5.938 26.9997 2.576 9.192 7.561 16.376 15.965 21.153 7.582 3.744 15.448 4.884 23.68 2.699 9.424-3.5 16.205-9.223 20.605-18.227 3.202-7.918 3.398-15.5067.688-23.6247-3.938-8.4897-9.08-14.3766-17.563-18.375-13.413-4.859-28.224-1.6341-37.437 9.375Zm128 63.9997c-5.758 9.008-8.131 16.536-5.938 27 2.576 9.192 7.561 16.376 15.965 21.153 7.582 3.744 15.448 4.884 23.68 2.699 9.424-3.5 16.205-9.223 20.605-18.227 3.202-7.918 3.398-15.507.688-23.625-3.938-8.489-9.08-14.376-17.563-18.375-13.413-4.859-28.224-1.634-37.437 9.375Zm-260.0002 31c1.4672 7.152 6.7592 12.694 12.5742 16.832 2.475 1.539 2.475 1.539 5.426.168-2.809-2.837-5.623-5.669-8.438-8.5-.802-.81-1.605-1.621-2.431-2.457-.764-.767-1.528-1.534-2.315-2.324-.707-.712-1.414-1.424-2.142-2.158-1.415-1.674-1.415-1.674-2.6742-1.561Zm-28 97c-5.7581 9.008-8.1308 16.536-5.9375 27 2.5759 9.192 7.5606 16.376 15.9648 21.153 7.5819 3.744 15.4475 4.884 23.6799 2.699 9.424-3.5 16.205-9.223 20.605-18.227 3.202-7.918 3.398-15.507.688-23.625-3.938-8.489-9.08-14.376-17.563-18.375-13.4132-4.859-28.2235-1.634-37.4372 9.375Z" fill="#000"/><path d="M66 0c4.2107.509809 6.1785 2.81122 9.0967 5.74271.7501.74728.7501.74729 1.5153 1.50967 1.676 1.67332 3.3409 3.35712 5.0062 5.04112 1.1987 1.2012 2.3982 2.4018 3.5982 3.6017 2.5848 2.5875 5.1648 5.1797 7.7411 7.7757 4.0782 4.1091 8.1665 8.2079 12.2565 12.3054 6.474 6.4882 12.94 12.9836 19.404 19.482 11.558 11.6198 23.128 23.2277 34.701 34.8327 4.058 4.0703 8.114 8.1437 12.166 12.22 2.531 2.544 5.063 5.086 7.596 7.628 1.168 1.173 2.336 2.348 3.502 3.523 5.343 5.382 10.692 10.677 16.461 15.609 4.089 3.615 7.887 7.539 11.733 11.409.954.955 1.908 1.91 2.861 2.865 2.039 2.042 4.076 4.086 6.113 6.13 3.226 3.24 6.456 6.476 9.686 9.711 7.439 7.451 14.874 14.908 22.308 22.364 6.818 6.839 13.638 13.677 20.462 20.511 3.205 3.21 6.407 6.422 9.608 9.636 1.998 2.005 3.998 4.009 5.999 6.012 1.355 1.358 2.708 2.718 4.06 4.079 4.263 4.262 8.596 8.347 13.165 12.277 3.638 3.219 7.032 6.684 10.453 10.13 1.212 1.213 1.212 1.213 2.448 2.451 1.74 1.745 3.479 3.49 5.218 5.237 2.756 2.769 5.515 5.534 8.275 8.299 6.356 6.368 12.706 12.74 19.056 19.113 6.291 6.312 12.584 12.623 18.88 18.93 2.71 2.716 5.416 5.435 8.123 8.154 1.672 1.676 3.344 3.351 5.016 5.026.744.75 1.488 1.499 2.255 2.271 4.021 4.021 8.143 7.849 12.449 11.562 2.329 2.035 4.521 4.183 6.7 6.376.875.878 1.749 1.756 2.65 2.66.918.927 1.836 1.853 2.782 2.807.978.983 1.956 1.965 2.935 2.947 3.596 3.609 7.187 7.224 10.778 10.839 3.047 3.067 6.096 6.131 9.147 9.193 1.414 1.42 2.824 2.843 4.234 4.266 3.688 3.702 7.359 7.365 11.339 10.754 6.381 5.478 12.199 11.574 18.129 17.529l4.002 4.005c3.487 3.491 6.971 6.986 10.455 10.48 3.565 3.575 7.132 7.147 10.699 10.72 6.982 6.992 13.961 13.988 20.938 20.986-1.344 3.536-2.493 5.856-5.23 8.488-.635.62-1.27 1.24-1.924 1.879-.671.642-1.342 1.284-2.034 1.945-1.372 1.341-2.744 2.684-4.113 4.028-.649.636-1.298 1.273-1.967 1.929-2.522 2.52-4.832 5.188-7.13 7.911-2.654 3.016-5.556 5.781-8.414 8.601-1.985 2.013-3.849 4.073-5.688 6.219-3.252 3.794-6.757 7.274-10.312 10.781-2.582 2.619-4.963 5.371-7.352 8.164-2.861 3.202-5.939 6.179-9.016 9.172-1.884 1.761-1.884 1.761-2.82 3.883-4.372-.444-6.739-3.345-9.651-6.327-.554-.554-1.107-1.109-1.677-1.68-1.83-1.837-3.649-3.685-5.469-5.532-1.275-1.283-2.55-2.565-3.826-3.847-3.364-3.38-6.719-6.77-10.072-10.161-5.35-5.409-10.712-10.806-16.075-16.201-1.864-1.878-3.724-3.759-5.583-5.642-1.159-1.169-2.319-2.338-3.478-3.507-.507-.516-1.015-1.031-1.537-1.562-2.703-2.719-5.476-5.297-8.385-7.794-3.937-3.433-7.662-7.027-11.343-10.73-.667-.666-1.334-1.333-2.021-2.02-2.211-2.212-4.419-4.428-6.627-6.643-1.594-1.596-3.188-3.192-4.782-4.787-3.422-3.425-6.843-6.852-10.262-10.28-5.411-5.424-10.825-10.844-16.24-16.264-7.594-7.601-15.186-15.204-22.777-22.808-.721-.722-.721-.722-1.457-1.459-3.901-3.908-7.802-7.816-11.703-11.723l-10.23-10.248c-.48-.481-.96-.962-1.455-1.458-8.022-8.035-16.045-16.069-24.07-24.101-5.379-5.384-10.756-10.77-16.131-16.158-3.347-3.356-6.697-6.708-10.047-10.061-1.549-1.551-3.097-3.102-4.644-4.655-2.118-2.125-4.24-4.248-6.362-6.369-.605-.609-1.211-1.218-1.834-1.846-3.696-3.687-7.527-7.162-11.475-10.577-2.037-1.778-3.976-3.629-5.884-5.544-.706-.706-1.413-1.412-2.14-2.14-.744-.749-1.489-1.499-2.255-2.271-.808-.809-1.615-1.618-2.448-2.451-1.74-1.745-3.479-3.49-5.218-5.237-2.756-2.769-5.515-5.534-8.275-8.299-6.356-6.368-12.706-12.74-19.056-19.113-6.291-6.312-12.584-12.623-18.88-18.93-2.71-2.716-5.416-5.435-8.123-8.154-1.672-1.676-3.344-3.351-5.016-5.026-.744-.75-1.488-1.499-2.255-2.271-3.975-3.976-8.052-7.751-12.309-11.422-3.178-2.805-6.152-5.803-9.135-8.811-.671-.673-1.342-1.345-2.034-2.038-1.442-1.447-2.884-2.894-4.324-4.343-2.2856-2.298-4.5744-4.594-6.864-6.888-5.6831-5.696-11.3608-11.398-17.0387-17.1-4.8083-4.828-9.6188-9.654-14.432-14.478-2.2443-2.25-4.4855-4.504-6.7265-6.758-1.3888-1.392-2.7777-2.785-4.1668-4.177-.6132-.618-1.2264-1.236-1.8582-1.874-3.7237-3.724-7.5802-7.233-11.5641-10.677-2.0444-1.785-3.9906-3.643-5.9058-5.566-.7001-.7-1.4002-1.4-2.1216-2.121-1.0864-1.095-1.0864-1.095-2.1948-2.2108-.7655-.767-1.5311-1.534-2.3198-2.3242-2.4166-2.4221-4.8297-4.8477-7.2427-7.2735-1.6495-1.6545-3.2992-3.3088-4.9492-4.9629C8.03119 81.0691 4.01447 77.0357 0 73c1.24485-3.5594 2.51512-5.8775 5.23047-8.4883.6347-.6199 1.2694-1.2397 1.92334-1.8784.67112-.6421 1.34223-1.2842 2.03369-1.9458 1.3729-1.3406 2.744-2.683 4.1133-4.0273.6492-.6367 1.2984-1.2733 1.9673-1.9292 2.5217-2.5204 4.8323-5.1885 7.1303-7.9107 2.6535-3.0159 5.5556-5.7817 8.4141-8.6015C32.7972 36.2057 34.661 34.1455 36.5 32c3.2516-3.7936 6.7571-7.2739 10.3125-10.7812 2.5818-2.6188 4.9623-5.371 7.3516-8.1641 2.8612-3.20212 5.9387-6.17846 9.0156-9.17189C65.0638 2.12247 65.0638 2.12247 66 0Z" fill="#FE0202"/></g><defs><clipPath id="clip0_208_9"><path fill="#fff" d="M0 0h512v512H0z"/></clipPath></defs></svg>