<svg version="1.1" xmlns="http://www.w3.org/2000/svg" viewBox="0 0 120.00000000000006 111.59685711952335" width="120.00000000000006" height="111.59685711952335" class="excalidraw-svg"><!-- svg-source:excalidraw --><metadata></metadata><defs><style class="style-fonts">
      </style></defs><g stroke-linecap="round"><g transform="translate(10 57.19446226550917) rotate(0 23.90392712157481 -23.597231132754587)"><path d="M0 0 C0 -10.48, 0 -20.95, 0 -47.19 M0 0 C0 -12.02, 0 -24.03, 0 -47.19 M0 -47.19 C13.84 -47.19, 27.68 -47.19, 47.81 -47.19 M0 -47.19 C9.79 -47.19, 19.58 -47.19, 47.81 -47.19 M47.81 -47.19 C46.81 -36.92, 45.82 -26.65, 44.57 -13.77 M47.81 -47.19 C46.84 -37.23, 45.88 -27.26, 44.57 -13.77 M44.57 -13.77 C28.62 -8.84, 12.67 -3.91, 0 0 M44.57 -13.77 C29.97 -9.26, 15.37 -4.75, 0 0" stroke="#000000" stroke-width="4" fill="none"></path></g></g><mask></mask><g stroke-linecap="round"><g transform="translate(69.1483201541107 61.21647526335062) rotate(0 13.138057949164534 -25.60823763167531)"><path d="M0 0 C-3.38 -4.12, -6.75 -8.24, -14.58 -17.79 M0 0 C-2.94 -3.58, -5.87 -7.17, -14.58 -17.79 M-14.58 -17.79 C-13.53 -28.61, -12.48 -39.43, -11.34 -51.22 M-14.58 -17.79 C-13.43 -29.64, -12.28 -41.49, -11.34 -51.22 M-11.34 -51.22 C5.87 -51.22, 23.09 -51.22, 40.85 -51.22 M-11.34 -51.22 C0.91 -51.22, 13.17 -51.22, 40.85 -51.22 M40.85 -51.22 C40.85 -41.63, 40.85 -32.05, 40.85 -8.17 M40.85 -51.22 C40.85 -39.67, 40.85 -28.12, 40.85 -8.17 M40.85 -8.17 C31.76 -6.35, 22.66 -4.53, 0 0 M40.85 -8.17 C31.97 -6.39, 23.08 -4.62, 0 0" stroke="#000000" stroke-width="4" fill="none"></path></g></g><mask></mask><g stroke-linecap="round"><g transform="translate(10 57.19446226550917) rotate(0 29.574160077055353 15.318639483348534)"><path d="M0 0 C12.58 -3.88, 25.16 -7.77, 44.57 -13.77 M0 0 C9.22 -2.85, 18.45 -5.7, 44.57 -13.77 M44.57 -13.77 C47.71 -9.94, 50.84 -6.12, 59.15 4.02 M44.57 -13.77 C47.84 -9.78, 51.1 -5.8, 59.15 4.02 M59.15 4.02 C56.04 14.66, 52.93 25.3, 47.35 44.4 M59.15 4.02 C56.49 13.12, 53.83 22.23, 47.35 44.4 M47.35 44.4 C34.36 44.4, 21.37 44.4, 0 44.4 M47.35 44.4 C29.87 44.4, 12.39 44.4, 0 44.4 M0 44.4 C0 35.21, 0 26.03, 0 0 M0 44.4 C0 30.19, 0 15.98, 0 0" stroke="#000000" stroke-width="4" fill="none"></path></g></g><mask></mask><g stroke-linecap="round"><g transform="translate(69.1483201541107 61.21647526335062) rotate(0 14.527581899009334 16.105022943497403)"><path d="M0 0 C14.31 -2.86, 28.62 -5.72, 40.85 -8.17 M0 0 C8.55 -1.71, 17.1 -3.42, 40.85 -8.17 M40.85 -8.17 C40.85 3.52, 40.85 15.21, 40.85 40.38 M40.85 -8.17 C40.85 7.02, 40.85 22.21, 40.85 40.38 M40.85 40.38 C27.51 40.38, 14.16 40.38, -11.8 40.38 M40.85 40.38 C24.32 40.38, 7.79 40.38, -11.8 40.38 M-11.8 40.38 C-8.16 27.95, -4.53 15.51, 0 0 M-11.8 40.38 C-8.75 29.96, -5.71 19.55, 0 0" stroke="#000000" stroke-width="4" fill="none"></path></g></g><mask></mask><g stroke-linecap="round" transform="translate(77.71307083157171 28.22928207659868) rotate(0 9.41776545535356 9.41776545535356)"><path d="M18.84 9.42 C18.84 9.96, 18.79 10.52, 18.69 11.05 C18.6 11.59, 18.45 12.13, 18.27 12.64 C18.08 13.15, 17.85 13.65, 17.57 14.13 C17.3 14.6, 16.98 15.05, 16.63 15.47 C16.28 15.89, 15.89 16.28, 15.47 16.63 C15.05 16.98, 14.6 17.3, 14.13 17.57 C13.65 17.85, 13.15 18.08, 12.64 18.27 C12.13 18.45, 11.59 18.6, 11.05 18.69 C10.52 18.79, 9.96 18.84, 9.42 18.84 C8.87 18.84, 8.32 18.79, 7.78 18.69 C7.25 18.6, 6.71 18.45, 6.2 18.27 C5.68 18.08, 5.18 17.85, 4.71 17.57 C4.24 17.3, 3.78 16.98, 3.36 16.63 C2.95 16.28, 2.55 15.89, 2.2 15.47 C1.85 15.05, 1.53 14.6, 1.26 14.13 C0.99 13.65, 0.75 13.15, 0.57 12.64 C0.38 12.13, 0.24 11.59, 0.14 11.05 C0.05 10.52, 0 9.96, 0 9.42 C0 8.87, 0.05 8.32, 0.14 7.78 C0.24 7.25, 0.38 6.71, 0.57 6.2 C0.75 5.68, 0.99 5.18, 1.26 4.71 C1.53 4.24, 1.85 3.78, 2.2 3.36 C2.55 2.95, 2.95 2.55, 3.36 2.2 C3.78 1.85, 4.24 1.53, 4.71 1.26 C5.18 0.99, 5.68 0.75, 6.2 0.57 C6.71 0.38, 7.25 0.24, 7.78 0.14 C8.32 0.05, 8.87 0, 9.42 0 C9.96 0, 10.52 0.05, 11.05 0.14 C11.59 0.24, 12.13 0.38, 12.64 0.57 C13.15 0.75, 13.65 0.99, 14.13 1.26 C14.6 1.53, 15.05 1.85, 15.47 2.2 C15.89 2.55, 16.28 2.95, 16.63 3.36 C16.98 3.78, 17.3 4.24, 17.57 4.71 C17.85 5.18, 18.08 5.68, 18.27 6.2 C18.45 6.71, 18.6 7.25, 18.69 7.78 C18.79 8.32, 18.81 9.15, 18.84 9.42 C18.86 9.69, 18.86 9.15, 18.84 9.42" stroke="none" stroke-width="0" fill="#1e1e1e"></path><path d="M18.84 9.42 C18.84 9.96, 18.79 10.52, 18.69 11.05 C18.6 11.59, 18.45 12.13, 18.27 12.64 C18.08 13.15, 17.85 13.65, 17.57 14.13 C17.3 14.6, 16.98 15.05, 16.63 15.47 C16.28 15.89, 15.89 16.28, 15.47 16.63 C15.05 16.98, 14.6 17.3, 14.13 17.57 C13.65 17.85, 13.15 18.08, 12.64 18.27 C12.13 18.45, 11.59 18.6, 11.05 18.69 C10.52 18.79, 9.96 18.84, 9.42 18.84 C8.87 18.84, 8.32 18.79, 7.78 18.69 C7.25 18.6, 6.71 18.45, 6.2 18.27 C5.68 18.08, 5.18 17.85, 4.71 17.57 C4.24 17.3, 3.78 16.98, 3.36 16.63 C2.95 16.28, 2.55 15.89, 2.2 15.47 C1.85 15.05, 1.53 14.6, 1.26 14.13 C0.99 13.65, 0.75 13.15, 0.57 12.64 C0.38 12.13, 0.24 11.59, 0.14 11.05 C0.05 10.52, 0 9.96, 0 9.42 C0 8.87, 0.05 8.32, 0.14 7.78 C0.24 7.25, 0.38 6.71, 0.57 6.2 C0.75 5.68, 0.99 5.18, 1.26 4.71 C1.53 4.24, 1.85 3.78, 2.2 3.36 C2.55 2.95, 2.95 2.55, 3.36 2.2 C3.78 1.85, 4.24 1.53, 4.71 1.26 C5.18 0.99, 5.68 0.75, 6.2 0.57 C6.71 0.38, 7.25 0.24, 7.78 0.14 C8.32 0.05, 8.87 0, 9.42 0 C9.96 0, 10.52 0.05, 11.05 0.14 C11.59 0.24, 12.13 0.38, 12.64 0.57 C13.15 0.75, 13.65 0.99, 14.13 1.26 C14.6 1.53, 15.05 1.85, 15.47 2.2 C15.89 2.55, 16.28 2.95, 16.63 3.36 C16.98 3.78, 17.3 4.24, 17.57 4.71 C17.85 5.18, 18.08 5.68, 18.27 6.2 C18.45 6.71, 18.6 7.25, 18.69 7.78 C18.79 8.32, 18.81 9.15, 18.84 9.42 C18.86 9.69, 18.86 9.15, 18.84 9.42" stroke="#1e1e1e" stroke-width="4" fill="none"></path></g><g stroke-linecap="round" transform="translate(81.65064647609131 73.51140198857411) rotate(0 9.41776545535356 9.41776545535356)"><path d="M18.84 9.42 C18.84 9.96, 18.79 10.52, 18.69 11.05 C18.6 11.59, 18.45 12.13, 18.27 12.64 C18.08 13.15, 17.85 13.65, 17.57 14.13 C17.3 14.6, 16.98 15.05, 16.63 15.47 C16.28 15.89, 15.89 16.28, 15.47 16.63 C15.05 16.98, 14.6 17.3, 14.13 17.57 C13.65 17.85, 13.15 18.08, 12.64 18.27 C12.13 18.45, 11.59 18.6, 11.05 18.69 C10.52 18.79, 9.96 18.84, 9.42 18.84 C8.87 18.84, 8.32 18.79, 7.78 18.69 C7.25 18.6, 6.71 18.45, 6.2 18.27 C5.68 18.08, 5.18 17.85, 4.71 17.57 C4.24 17.3, 3.78 16.98, 3.36 16.63 C2.95 16.28, 2.55 15.89, 2.2 15.47 C1.85 15.05, 1.53 14.6, 1.26 14.13 C0.99 13.65, 0.75 13.15, 0.57 12.64 C0.38 12.13, 0.24 11.59, 0.14 11.05 C0.05 10.52, 0 9.96, 0 9.42 C0 8.87, 0.05 8.32, 0.14 7.78 C0.24 7.25, 0.38 6.71, 0.57 6.2 C0.75 5.68, 0.99 5.18, 1.26 4.71 C1.53 4.24, 1.85 3.78, 2.2 3.36 C2.55 2.95, 2.95 2.55, 3.36 2.2 C3.78 1.85, 4.24 1.53, 4.71 1.26 C5.18 0.99, 5.68 0.75, 6.2 0.57 C6.71 0.38, 7.25 0.24, 7.78 0.14 C8.32 0.05, 8.87 0, 9.42 0 C9.96 0, 10.52 0.05, 11.05 0.14 C11.59 0.24, 12.13 0.38, 12.64 0.57 C13.15 0.75, 13.65 0.99, 14.13 1.26 C14.6 1.53, 15.05 1.85, 15.47 2.2 C15.89 2.55, 16.28 2.95, 16.63 3.36 C16.98 3.78, 17.3 4.24, 17.57 4.71 C17.85 5.18, 18.08 5.68, 18.27 6.2 C18.45 6.71, 18.6 7.25, 18.69 7.78 C18.79 8.32, 18.81 9.15, 18.84 9.42 C18.86 9.69, 18.86 9.15, 18.84 9.42" stroke="none" stroke-width="0" fill="#1e1e1e"></path><path d="M18.84 9.42 C18.84 9.96, 18.79 10.52, 18.69 11.05 C18.6 11.59, 18.45 12.13, 18.27 12.64 C18.08 13.15, 17.85 13.65, 17.57 14.13 C17.3 14.6, 16.98 15.05, 16.63 15.47 C16.28 15.89, 15.89 16.28, 15.47 16.63 C15.05 16.98, 14.6 17.3, 14.13 17.57 C13.65 17.85, 13.15 18.08, 12.64 18.27 C12.13 18.45, 11.59 18.6, 11.05 18.69 C10.52 18.79, 9.96 18.84, 9.42 18.84 C8.87 18.84, 8.32 18.79, 7.78 18.69 C7.25 18.6, 6.71 18.45, 6.2 18.27 C5.68 18.08, 5.18 17.85, 4.71 17.57 C4.24 17.3, 3.78 16.98, 3.36 16.63 C2.95 16.28, 2.55 15.89, 2.2 15.47 C1.85 15.05, 1.53 14.6, 1.26 14.13 C0.99 13.65, 0.75 13.15, 0.57 12.64 C0.38 12.13, 0.24 11.59, 0.14 11.05 C0.05 10.52, 0 9.96, 0 9.42 C0 8.87, 0.05 8.32, 0.14 7.78 C0.24 7.25, 0.38 6.71, 0.57 6.2 C0.75 5.68, 0.99 5.18, 1.26 4.71 C1.53 4.24, 1.85 3.78, 2.2 3.36 C2.55 2.95, 2.95 2.55, 3.36 2.2 C3.78 1.85, 4.24 1.53, 4.71 1.26 C5.18 0.99, 5.68 0.75, 6.2 0.57 C6.71 0.38, 7.25 0.24, 7.78 0.14 C8.32 0.05, 8.87 0, 9.42 0 C9.96 0, 10.52 0.05, 11.05 0.14 C11.59 0.24, 12.13 0.38, 12.64 0.57 C13.15 0.75, 13.65 0.99, 14.13 1.26 C14.6 1.53, 15.05 1.85, 15.47 2.2 C15.89 2.55, 16.28 2.95, 16.63 3.36 C16.98 3.78, 17.3 4.24, 17.57 4.71 C17.85 5.18, 18.08 5.68, 18.27 6.2 C18.45 6.71, 18.6 7.25, 18.69 7.78 C18.79 8.32, 18.81 9.15, 18.84 9.42 C18.86 9.69, 18.86 9.15, 18.84 9.42" stroke="#1e1e1e" stroke-width="4" fill="none"></path></g><g stroke-linecap="round" transform="translate(35.56972871722098 62.19911892863479) rotate(0 9.41776545535356 9.41776545535356)"><path d="M18.84 9.42 C18.84 9.96, 18.79 10.52, 18.69 11.05 C18.6 11.59, 18.45 12.13, 18.27 12.64 C18.08 13.15, 17.85 13.65, 17.57 14.13 C17.3 14.6, 16.98 15.05, 16.63 15.47 C16.28 15.89, 15.89 16.28, 15.47 16.63 C15.05 16.98, 14.6 17.3, 14.13 17.57 C13.65 17.85, 13.15 18.08, 12.64 18.27 C12.13 18.45, 11.59 18.6, 11.05 18.69 C10.52 18.79, 9.96 18.84, 9.42 18.84 C8.87 18.84, 8.32 18.79, 7.78 18.69 C7.25 18.6, 6.71 18.45, 6.2 18.27 C5.68 18.08, 5.18 17.85, 4.71 17.57 C4.24 17.3, 3.78 16.98, 3.36 16.63 C2.95 16.28, 2.55 15.89, 2.2 15.47 C1.85 15.05, 1.53 14.6, 1.26 14.13 C0.99 13.65, 0.75 13.15, 0.57 12.64 C0.38 12.13, 0.24 11.59, 0.14 11.05 C0.05 10.52, 0 9.96, 0 9.42 C0 8.87, 0.05 8.32, 0.14 7.78 C0.24 7.25, 0.38 6.71, 0.57 6.2 C0.75 5.68, 0.99 5.18, 1.26 4.71 C1.53 4.24, 1.85 3.78, 2.2 3.36 C2.55 2.95, 2.95 2.55, 3.36 2.2 C3.78 1.85, 4.24 1.53, 4.71 1.26 C5.18 0.99, 5.68 0.75, 6.2 0.57 C6.71 0.38, 7.25 0.24, 7.78 0.14 C8.32 0.05, 8.87 0, 9.42 0 C9.96 0, 10.52 0.05, 11.05 0.14 C11.59 0.24, 12.13 0.38, 12.64 0.57 C13.15 0.75, 13.65 0.99, 14.13 1.26 C14.6 1.53, 15.05 1.85, 15.47 2.2 C15.89 2.55, 16.28 2.95, 16.63 3.36 C16.98 3.78, 17.3 4.24, 17.57 4.71 C17.85 5.18, 18.08 5.68, 18.27 6.2 C18.45 6.71, 18.6 7.25, 18.69 7.78 C18.79 8.32, 18.81 9.15, 18.84 9.42 C18.86 9.69, 18.86 9.15, 18.84 9.42" stroke="none" stroke-width="0" fill="#1e1e1e"></path><path d="M18.84 9.42 C18.84 9.96, 18.79 10.52, 18.69 11.05 C18.6 11.59, 18.45 12.13, 18.27 12.64 C18.08 13.15, 17.85 13.65, 17.57 14.13 C17.3 14.6, 16.98 15.05, 16.63 15.47 C16.28 15.89, 15.89 16.28, 15.47 16.63 C15.05 16.98, 14.6 17.3, 14.13 17.57 C13.65 17.85, 13.15 18.08, 12.64 18.27 C12.13 18.45, 11.59 18.6, 11.05 18.69 C10.52 18.79, 9.96 18.84, 9.42 18.84 C8.87 18.84, 8.32 18.79, 7.78 18.69 C7.25 18.6, 6.71 18.45, 6.2 18.27 C5.68 18.08, 5.18 17.85, 4.71 17.57 C4.24 17.3, 3.78 16.98, 3.36 16.63 C2.95 16.28, 2.55 15.89, 2.2 15.47 C1.85 15.05, 1.53 14.6, 1.26 14.13 C0.99 13.65, 0.75 13.15, 0.57 12.64 C0.38 12.13, 0.24 11.59, 0.14 11.05 C0.05 10.52, 0 9.96, 0 9.42 C0 8.87, 0.05 8.32, 0.14 7.78 C0.24 7.25, 0.38 6.71, 0.57 6.2 C0.75 5.68, 0.99 5.18, 1.26 4.71 C1.53 4.24, 1.85 3.78, 2.2 3.36 C2.55 2.95, 2.95 2.55, 3.36 2.2 C3.78 1.85, 4.24 1.53, 4.71 1.26 C5.18 0.99, 5.68 0.75, 6.2 0.57 C6.71 0.38, 7.25 0.24, 7.78 0.14 C8.32 0.05, 8.87 0, 9.42 0 C9.96 0, 10.52 0.05, 11.05 0.14 C11.59 0.24, 12.13 0.38, 12.64 0.57 C13.15 0.75, 13.65 0.99, 14.13 1.26 C14.6 1.53, 15.05 1.85, 15.47 2.2 C15.89 2.55, 16.28 2.95, 16.63 3.36 C16.98 3.78, 17.3 4.24, 17.57 4.71 C17.85 5.18, 18.08 5.68, 18.27 6.2 C18.45 6.71, 18.6 7.25, 18.69 7.78 C18.79 8.32, 18.81 9.15, 18.84 9.42 C18.86 9.69, 18.86 9.15, 18.84 9.42" stroke="#1e1e1e" stroke-width="4" fill="none"></path></g><g stroke-linecap="round" transform="translate(23.425660138168496 21.44162849208874) rotate(0 9.41776545535356 9.41776545535356)"><path d="M18.84 9.42 C18.84 9.96, 18.79 10.52, 18.69 11.05 C18.6 11.59, 18.45 12.13, 18.27 12.64 C18.08 13.15, 17.85 13.65, 17.57 14.13 C17.3 14.6, 16.98 15.05, 16.63 15.47 C16.28 15.89, 15.89 16.28, 15.47 16.63 C15.05 16.98, 14.6 17.3, 14.13 17.57 C13.65 17.85, 13.15 18.08, 12.64 18.27 C12.13 18.45, 11.59 18.6, 11.05 18.69 C10.52 18.79, 9.96 18.84, 9.42 18.84 C8.87 18.84, 8.32 18.79, 7.78 18.69 C7.25 18.6, 6.71 18.45, 6.2 18.27 C5.68 18.08, 5.18 17.85, 4.71 17.57 C4.24 17.3, 3.78 16.98, 3.36 16.63 C2.95 16.28, 2.55 15.89, 2.2 15.47 C1.85 15.05, 1.53 14.6, 1.26 14.13 C0.99 13.65, 0.75 13.15, 0.57 12.64 C0.38 12.13, 0.24 11.59, 0.14 11.05 C0.05 10.52, 0 9.96, 0 9.42 C0 8.87, 0.05 8.32, 0.14 7.78 C0.24 7.25, 0.38 6.71, 0.57 6.2 C0.75 5.68, 0.99 5.18, 1.26 4.71 C1.53 4.24, 1.85 3.78, 2.2 3.36 C2.55 2.95, 2.95 2.55, 3.36 2.2 C3.78 1.85, 4.24 1.53, 4.71 1.26 C5.18 0.99, 5.68 0.75, 6.2 0.57 C6.71 0.38, 7.25 0.24, 7.78 0.14 C8.32 0.05, 8.87 0, 9.42 0 C9.96 0, 10.52 0.05, 11.05 0.14 C11.59 0.24, 12.13 0.38, 12.64 0.57 C13.15 0.75, 13.65 0.99, 14.13 1.26 C14.6 1.53, 15.05 1.85, 15.47 2.2 C15.89 2.55, 16.28 2.95, 16.63 3.36 C16.98 3.78, 17.3 4.24, 17.57 4.71 C17.85 5.18, 18.08 5.68, 18.27 6.2 C18.45 6.71, 18.6 7.25, 18.69 7.78 C18.79 8.32, 18.81 9.15, 18.84 9.42 C18.86 9.69, 18.86 9.15, 18.84 9.42" stroke="none" stroke-width="0" fill="#1e1e1e"></path><path d="M18.84 9.42 C18.84 9.96, 18.79 10.52, 18.69 11.05 C18.6 11.59, 18.45 12.13, 18.27 12.64 C18.08 13.15, 17.85 13.65, 17.57 14.13 C17.3 14.6, 16.98 15.05, 16.63 15.47 C16.28 15.89, 15.89 16.28, 15.47 16.63 C15.05 16.98, 14.6 17.3, 14.13 17.57 C13.65 17.85, 13.15 18.08, 12.64 18.27 C12.13 18.45, 11.59 18.6, 11.05 18.69 C10.52 18.79, 9.96 18.84, 9.42 18.84 C8.87 18.84, 8.32 18.79, 7.78 18.69 C7.25 18.6, 6.71 18.45, 6.2 18.27 C5.68 18.08, 5.18 17.85, 4.71 17.57 C4.24 17.3, 3.78 16.98, 3.36 16.63 C2.95 16.28, 2.55 15.89, 2.2 15.47 C1.85 15.05, 1.53 14.6, 1.26 14.13 C0.99 13.65, 0.75 13.15, 0.57 12.64 C0.38 12.13, 0.24 11.59, 0.14 11.05 C0.05 10.52, 0 9.96, 0 9.42 C0 8.87, 0.05 8.32, 0.14 7.78 C0.24 7.25, 0.38 6.71, 0.57 6.2 C0.75 5.68, 0.99 5.18, 1.26 4.71 C1.53 4.24, 1.85 3.78, 2.2 3.36 C2.55 2.95, 2.95 2.55, 3.36 2.2 C3.78 1.85, 4.24 1.53, 4.71 1.26 C5.18 0.99, 5.68 0.75, 6.2 0.57 C6.71 0.38, 7.25 0.24, 7.78 0.14 C8.32 0.05, 8.87 0, 9.42 0 C9.96 0, 10.52 0.05, 11.05 0.14 C11.59 0.24, 12.13 0.38, 12.64 0.57 C13.15 0.75, 13.65 0.99, 14.13 1.26 C14.6 1.53, 15.05 1.85, 15.47 2.2 C15.89 2.55, 16.28 2.95, 16.63 3.36 C16.98 3.78, 17.3 4.24, 17.57 4.71 C17.85 5.18, 18.08 5.68, 18.27 6.2 C18.45 6.71, 18.6 7.25, 18.69 7.78 C18.79 8.32, 18.81 9.15, 18.84 9.42 C18.86 9.69, 18.86 9.15, 18.84 9.42" stroke="#1e1e1e" stroke-width="4" fill="none"></path></g></svg>