<svg xmlns="http://www.w3.org/2000/svg" viewBox="0 0 310 369.523"><defs/><path d="M41.33 266.653c20.31 5.4 83.46 33.89 123.74 33.73 40.28-.16 97.61-28.09 117.93-34.67m-237.39-.91c20.02 7.08 77.28 39.71 117.8 39.14 40.52-.58 104.46-35.6 125.34-42.57" stroke="currentColor" stroke-width="4" fill="none" stroke-linecap="round"/><path d="M123.13 292.593c4.06 5.28 15.06 23.61 25.73 28.93 10.68 5.32 29.07 7.76 38.33 3 9.26-4.75 13.71-26.78 17.21-31.53m-84.1-2.29c3.45 5.73 15.2 28.47 26.25 33.36 11.04 4.9 30.52.99 40.02-3.98 9.5-4.98 13.88-22.05 17-25.86M11.07 350.383c5.11-13.99 19.27-82.76 27.93-82.67 8.66.09 20.76 68.71 24 83.21m-54.8-3.08c6.15-14.85 27.1-84.75 36.12-83.95 9.01.79 15.73 74.5 17.96 88.73M299.86 349.523c-1.49-13.84-.59-81.24-7.67-80-7.08 1.25-29.62 72.38-34.79 87.47m38.94-2.38c-1.77-14.72.39-89.7-5.2-89.01-5.59.68-23.52 76.9-28.32 93.12M206.093 153.953c6.72-19.43 25.63-28.6 38.21-40.61m-40 37.83c12.82-16.87 28.76-32.3 37.09-41.98m4.38-.63c-15.81-10.86-33.85-26.45-39.89-36.42m36.36 38.06c-13.52-12.9-23.74-21.3-39.02-39.85M124.641 152.587c-17.71-5.8-25.16-17.93-40.61-33.22m37.83 35.34c-10.38-7.17-19.32-16.61-41.98-36.48m-.63.87c17.85-14.42 29.81-23.83 43.58-42.81m-41.94 38.22c13.47-12.27 31.4-26.32 40.15-38.84M137.824 149.124c13.12-14.86 21.8-31.99 46.21-81.39m-44.09 83.74c13.87-29.53 27.1-58.96 42.96-80.47" stroke="currentColor" stroke-width="4" fill="none" stroke-linecap="round"/><g stroke-linecap="round"><path d="M137.594 201.49c-.03-.19.67-.65.82-.45.14.19.1 1.14.06 1.64-.03.5-.51 1.21-.26 1.38.24.17 1.62-.71 1.74-.37.12.35-.71 2.55-1.04 2.44-.34-.1-.89-2.42-.97-3.06-.08-.65.29-.37.48-.83.2-.46.42-2.29.68-1.92.25.37.5 3.74.84 4.13.35.39 1.48-1.24 1.24-1.79m-1.27-2.1c-.67-.03-3.27 1.44-3.44 1.41-.17-.03 1.94-1.7 2.42-1.6.48.09.44 1.79.47 2.16.04.37 0-.31-.25.05s-.62 1.92-1.25 2.11c-.63.19-2.63-.49-2.53-.97.09-.48 2.55-1.42 3.12-1.91.57-.5.42-.82.31-1.04-.11-.22-.47-.69-.97-.29-.51.39-1.76 1.87-2.08 2.64" stroke-width="0"/><path d="M140.454 203.83c-.1.17-2.36.22-2.21.22.16 0 3.19-.07 3.14-.2-.04-.14-2.85-.5-3.42-.62-.56-.12.32.01.05-.11-.27-.13-1.91-.69-1.66-.63.24.05 3.12.68 3.12.96-.01.28-2.78.68-3.16.71-.38.03.1-.27.88-.52.77-.25 3.1-1.01 3.77-.97.66.04.4 1.26.22 1.23m-3.01-4.18c-.2.31-1.56 2.59-.8 3.36.75.77 5.18 1.19 5.33 1.29.15.09-4.18-1.09-4.43-.71-.25.37 3.14 2.71 2.92 2.96-.22.25-3.16-1.34-4.23-1.45-1.06-.11-2.49.85-2.16.79.34-.06 3.6-.66 4.16-1.15.56-.49-.51-.94-.8-1.81-.29-.87-1.28-3.1-.95-3.39.32-.3 2.12.81 2.89 1.62" stroke="currentColor" stroke-width="4" fill="none"/></g><g stroke-linecap="round"><path d="M165.084 208.73c.01.01-.35.05-.19.25.16.19.9.19 1.15.91.26.72.54 2.78.36 3.39-.18.61-1.5.33-1.44.28.06-.05 2-.43 1.82-.57-.19-.13-2.46-.06-2.95-.24-.5-.18.12-.43-.02-.83-.14-.4-1.54-1.58-.81-1.56.74.02 4.8 1.68 5.2 1.7.41.01-2.18-1.3-2.76-1.61m-.46-2.58c.25-.23 1.82 1.96 1.69 2.59-.14.62-2.16.85-2.49 1.15-.32.29.71.61.54.61-.18.01-1.51-.08-1.56-.58-.05-.5 1.17-2.45 1.27-2.4.11.04-.43 2.31-.64 2.67-.2.36-.59-.13-.57-.51.01-.39.4-1.22.68-1.79.28-.57.4-1.38 1.01-1.63.6-.25 1.86-.19 2.6.13" stroke-width="0"/><path d="M167.464 208.5c.34.07.44 3.26.37 3.49-.07.23-.38-2.04-.78-2.11-.41-.06-1.19 1.49-1.65 1.7-.46.21-.74-.91-1.12-.43-.37.49-1.14 3.46-1.13 3.35.01-.12.73-3.26 1.19-4.05.46-.79 1.21-.93 1.57-.7.35.24.42 1.74.56 2.13.14.39-.01.3.29.21.3-.08 1.56-.63 1.49-.69m-5.28-3.87c.44.65 2.76 5.22 3.49 5.65.73.43.98-3.35.88-3.09-.1.26-1.59 4.36-1.47 4.65.13.29 2.16-2.11 2.22-2.91.06-.8-1.7-2.11-1.85-1.88-.15.24.88 3.13.94 3.27.07.14-.27-1.6-.53-2.43-.25-.83-.37-2.57-1.01-2.57-.63 0-2.59 1.84-2.78 2.58-.2.73.8 1.9 1.6 1.83" stroke="currentColor" stroke-width="4" fill="none"/></g><g stroke-linecap="round"><path d="M190.994 200.48c.26-.08.49.62.71 1 .22.39.11 1.07.63 1.31s2.21-.43 2.48.15c.28.58-.45 3.14-.81 3.31-.36.18-1.07-1.8-1.35-2.25-.28-.45-.25-.01-.34-.45-.09-.43-.08-2.23-.19-2.15-.12.07-.9 2.7-.5 2.62.4-.08 2.79-2.62 2.92-3.11.12-.48-1.84-.37-2.18.18m-2.88.83c-.18-.2 2.03-2.05 2.63-2.08.59-.03.74 1.57.94 1.92.21.35.37-.27.26.18-.11.45-.35 2.18-.93 2.53-.58.35-2.6-.12-2.57-.45.04-.32 2.34-1.11 2.76-1.53.43-.41.06-.71-.21-.97s-.95-.84-1.41-.58c-.46.25-1.16 1.45-1.36 2.13-.21.67-.19 1.99.12 1.93" stroke-width="0"/><path d="M191.304 203.41c.28-.18 3.56-.35 3.72-.52.16-.17-2.38-.47-2.77-.49-.38-.01.66.34.46.41-.21.07-1.85-.22-1.68.03.17.25 2.87 1.08 2.68 1.46-.19.38-3.23.82-3.82.81-.58-.01-.31-.44.32-.86s2.59-1.67 3.45-1.66c.86 0 1.58 1.51 1.69 1.69.12.19-.91-.34-1.01-.59m-4.87-1.44c.91.41 5.74.47 6.26.4.52-.06-3.29-1.28-3.15-.79.13.49 3.94 3.14 3.95 3.72 0 .59-2.82-.49-3.93-.21-1.11.29-2.77 1.72-2.73 1.94.05.22 2.83-.17 2.99-.63.16-.47-1.41-1.07-2.03-2.17-.61-1.11-1.98-3.89-1.66-4.46.32-.57 2.67.33 3.57 1.03.9.7 1.9 2.54 1.82 3.18" stroke="currentColor" stroke-width="4" fill="none"/></g><path d="M77.86 83.664c-2.51-3.04-20.39-9.07-18.16-18.02 2.23-8.94 21.68-32.52 31.56-35.65 9.87-3.13 20.19 15.99 27.67 16.89 7.48.9 14.07-5.52 17.21-11.49 3.14-5.97-6.92-19.65 1.65-24.33 8.57-4.67 40.74-7.62 49.79-3.73 9.04 3.9.69 20.77 4.49 27.11 3.79 6.34 11.84 11.57 18.27 10.96 6.43-.61 10.34-17.23 20.3-14.63 9.96 2.6 35.34 21.38 39.43 30.24 4.1 8.86-13.09 15.81-14.86 22.91-1.76 7.1-1.54 15.73 4.27 19.69 5.8 3.96 26.26-4.49 30.57 4.08 4.3 8.57.62 39.1-4.74 47.34-5.35 8.24-21.78-2.85-27.4 2.11-5.62 4.95-8.1 20.18-6.29 27.59 1.8 7.42 20.66 8.07 17.1 16.91-3.56 8.84-29.21 32.88-38.45 36.13-9.24 3.25-10.51-14.75-16.97-16.63-6.47-1.89-18.15-.27-21.81 5.32s8.22 23.47-.15 28.21c-8.37 4.73-41.01 4.83-50.06.2-9.05-4.64.92-22.54-4.25-28.01-5.17-5.47-19.63-6.94-26.76-4.81-7.14 2.12-7.75 20.64-16.06 17.57-8.32-3.08-30.86-26.73-33.84-36.03-2.97-9.3 14.85-12.53 15.99-19.77 1.13-7.23-3.05-19.09-9.17-23.65-6.13-4.55-22.72 5.86-27.57-3.69-4.85-9.54-6.18-44.92-1.52-53.6 4.67-8.68 23.34 4.92 29.48 1.53 6.15-3.39 5.57-18.05 7.4-21.86m-.28-.85c-2.52-3.91-20.06-10.51-16.38-19.91 3.68-9.39 28.1-34.42 38.47-36.46 10.37-2.04 16.52 22.54 23.74 24.21 7.21 1.67 16.22-8.6 19.56-14.19 3.35-5.59-7.48-15.34.49-19.34 7.97-3.99 38.9-7.58 47.32-4.66 8.42 2.92-1.13 16.86 3.21 22.17 4.34 5.31 16.1 10.14 22.83 9.68 6.73-.46 7.88-15.83 17.55-12.44 9.68 3.4 36.89 23.93 40.5 32.81 3.61 8.88-16.92 14.11-18.85 20.46-1.93 6.35 1.26 13.77 7.28 17.63 6.02 3.86 24.67-3.04 28.85 5.53 4.19 8.56 1.32 37.25-3.73 45.84-5.05 8.59-20.4 1.34-26.55 5.71-6.14 4.37-11.49 13.3-10.35 20.5 1.15 7.2 19.5 14.06 17.25 22.7-2.25 8.65-22.33 25.28-30.74 29.15-8.41 3.87-12.11-5.9-19.74-5.93-7.62-.03-20.88 1.28-26 5.76-5.13 4.47 3.11 17.49-4.73 21.1-7.84 3.61-33.65 3.85-42.32.55-8.67-3.3-4.77-15.41-9.7-20.33-4.94-4.93-13.85-10.58-19.9-9.2-6.06 1.37-7 20.86-16.43 17.45s-36.15-27.88-40.15-37.89c-4.01-10.01 14.21-15.69 16.11-22.17 1.9-6.48.29-13.54-4.7-16.71-4.99-3.18-19.98 7.3-25.23-2.35-5.24-9.64-10.21-46.65-6.25-55.51 3.96-8.86 23.08 6.47 29.99 2.35 6.92-4.13 10.06-22.97 11.5-27.09" stroke="currentColor" stroke-width="4" fill="none" stroke-linecap="round"/></svg>