<svg version="1.1" xmlns="http://www.w3.org/2000/svg" viewBox="0 0 1263.8361813410443 1175.0090977499947" width="1263.8361813410443" height="1175.0090977499947" class="excalidraw-svg"><!-- svg-source:excalidraw --><metadata></metadata><defs><style class="style-fonts">
      </style></defs><rect x="0" y="0" width="1263.8361813410443" height="1175.0090977499947" fill="#ffffff"></rect><g stroke-linecap="round"><g transform="translate(54.70368721081013 565.1536157189742) rotate(0 176.3834212571344 -0.43978715755929443)"><path d="M0 0 C83.59 -44.85, 167.18 -89.69, 243.74 -130.77 M0 0 C76.87 -41.24, 153.74 -82.48, 243.74 -130.77 M243.74 -130.77 C275.1 -122.97, 306.45 -115.17, 347.23 -105.03 M243.74 -130.77 C269.96 -124.25, 296.18 -117.73, 347.23 -105.03 M347.23 -105.03 C348.69 -102.84, 350.16 -100.65, 352.77 -96.75 M347.23 -105.03 C349.17 -102.13, 351.11 -99.23, 352.77 -96.75 M352.77 -96.75 C346.03 -31.37, 339.29 34.01, 330.72 117.18 M352.77 -96.75 C344.5 -16.53, 336.23 63.7, 330.72 117.18 M330.72 117.18 C325.89 122.19, 321.06 127.19, 318.46 129.89 M330.72 117.18 C327.16 120.87, 323.61 124.55, 318.46 129.89 M318.46 129.89 C215.83 88.03, 113.21 46.17, 0 0 M318.46 129.89 C219.02 89.33, 119.58 48.77, 0 0" stroke="#000000" stroke-width="1" fill="none"></path></g></g><mask></mask><g stroke-linecap="round"><g transform="translate(787.0151296423978 50.95181640257783) rotate(0 24.21503087586143 268.49136541140206)"><path d="M0 0 C34.58 51.71, 69.16 103.43, 151.56 226.64 M0 0 C46.53 69.58, 93.06 139.16, 151.56 226.64 M151.56 226.64 C146.83 272.55, 142.1 318.45, 129.51 440.58 M151.56 226.64 C143.97 300.28, 136.38 373.92, 129.51 440.58 M129.51 440.58 C96.11 475.2, 62.71 509.82, 40.15 533.21 M129.51 440.58 C101.05 470.07, 72.6 499.57, 40.15 533.21 M40.15 533.21 C34.45 534.4, 28.75 535.6, 22.18 536.98 M40.15 533.21 C33.78 534.54, 27.41 535.88, 22.18 536.98 M22.18 536.98 C-10.55 498.88, -43.27 460.78, -80.4 417.56 M22.18 536.98 C-6.64 503.43, -35.46 469.88, -80.4 417.56 M-80.4 417.56 C-87.39 336.03, -94.38 254.51, -103.13 152.37 M-80.4 417.56 C-89.28 313.96, -98.16 210.36, -103.13 152.37 M-103.13 152.37 C-66.57 98.35, -30.01 44.34, 0 0 M-103.13 152.37 C-72.3 106.82, -41.47 61.27, 0 0" stroke="#000000" stroke-width="1" fill="none"></path></g></g><mask></mask><g stroke-linecap="round"><g transform="translate(291.93518791000906 67.8208608237735) rotate(0 -139.01064058404268 58.91726978854547)"><path d="M0 0 C-33.52 35.28, -67.03 70.57, -148.12 155.93 M0 0 C-48.23 50.78, -96.47 101.55, -148.12 155.93 M-148.12 155.93 C-200.08 163.59, -252.03 171.25, -281.94 175.66 M-148.12 155.93 C-198.35 163.34, -248.59 170.74, -281.94 175.66 M-281.94 175.66 C-281.94 125.38, -281.94 75.11, -281.94 -57.82 M-281.94 175.66 C-281.94 116.18, -281.94 56.7, -281.94 -57.82 M-281.94 -57.82 C-182.76 -57.82, -83.59 -57.82, 3.91 -57.82 M-281.94 -57.82 C-221.24 -57.82, -160.54 -57.82, 3.91 -57.82 M3.91 -57.82 C2.65 -39.11, 1.38 -20.4, 0 0 M3.91 -57.82 C3.12 -46.05, 2.32 -34.28, 0 0" stroke="#000000" stroke-width="1" fill="none"></path></g></g><mask></mask><g stroke-linecap="round"><g transform="translate(323.64815744858697 1008.5657439379145) rotate(0 134.74696302032476 -35.20122701427704)"><path d="M0 0 C9.07 -78.24, 18.14 -156.47, 24.77 -213.64 M0 0 C7.02 -60.54, 14.04 -121.08, 24.77 -213.64 M24.77 -213.64 C28.93 -217.85, 33.1 -222.05, 37.84 -226.85 M24.77 -213.64 C29.16 -218.07, 33.54 -222.5, 37.84 -226.85 M37.84 -226.85 C105.87 -198.49, 173.9 -170.13, 269.49 -130.28 M37.84 -226.85 C97 -202.18, 156.17 -177.52, 269.49 -130.28 M269.49 -130.28 C266.42 -65.14, 263.34 0, 261.06 48.48 M269.49 -130.28 C266.98 -76.95, 264.46 -23.62, 261.06 48.48 M261.06 48.48 C250.95 70.84, 240.85 93.2, 212.28 156.44 M261.06 48.48 C249.67 73.68, 238.28 98.88, 212.28 156.44 M212.28 156.44 C168.91 156.44, 125.54 156.44, 101.76 156.44 M212.28 156.44 C189.88 156.44, 167.48 156.44, 101.76 156.44 M101.76 156.44 C63.51 97.63, 25.26 38.83, 0 0 M101.76 156.44 C73.22 112.57, 44.68 68.7, 0 0" stroke="#000000" stroke-width="1" fill="none"></path></g></g><mask></mask><g stroke-linecap="round"><g transform="translate(978.0191004485864 1027.221004937913) rotate(0 137.90854044622893 -100.5203977296942)"><path d="M0 0 C9.87 -85.14, 19.74 -170.29, 24.77 -213.64 M0 0 C6.63 -57.21, 13.27 -114.41, 24.77 -213.64 M24.77 -213.64 C50.99 -240.13, 77.21 -266.63, 116.71 -306.55 M24.77 -213.64 C46.7 -235.8, 68.64 -257.97, 116.71 -306.55 M116.71 -306.55 C149.12 -313.12, 181.54 -319.7, 275.82 -338.83 M116.71 -306.55 C168.67 -317.09, 220.63 -327.63, 275.82 -338.83 M275.82 -338.83 C275.82 -155.19, 275.82 28.46, 275.82 137.79 M275.82 -338.83 C275.82 -230.05, 275.82 -121.27, 275.82 137.79 M275.82 137.79 C210.28 137.79, 144.75 137.79, 89.63 137.79 M275.82 137.79 C216.35 137.79, 156.88 137.79, 89.63 137.79 M89.63 137.79 C67.12 103.19, 44.62 68.59, 0 0 M89.63 137.79 C56.38 86.67, 23.13 35.56, 0 0" stroke="#000000" stroke-width="1" fill="none"></path></g></g><mask></mask><g stroke-linecap="round"><g transform="translate(558.7327432421484 682.3377911470559) rotate(0 -86.65644819683712 -106.9678206846113)"><path d="M0 0 C-42.87 0, -85.74 0, -173.31 0 M0 0 C-63.58 0, -127.17 0, -173.31 0 M-173.31 0 C-164.71 -83.5, -156.1 -167, -151.26 -213.94 M-173.31 0 C-166.91 -62.13, -160.51 -124.25, -151.26 -213.94 M-151.26 -213.94 C-112.53 -195.74, -73.8 -177.55, -18.82 -151.72 M-151.26 -213.94 C-122.76 -200.55, -94.27 -187.16, -18.82 -151.72 M-18.82 -151.72 C-11.63 -93.76, -4.44 -35.8, 0 0 M-18.82 -151.72 C-13.7 -110.45, -8.58 -69.17, 0 0" stroke="#000000" stroke-width="1" fill="none"></path></g></g><mask></mask><g stroke-linecap="round"><g transform="translate(1089.838157242148 491.52817414705555) rotate(0 -86.65644819683803 -106.9678206846113)"><path d="M0 0 C-44.32 0, -88.64 0, -173.31 0 M0 0 C-62.97 0, -125.95 0, -173.31 0 M-173.31 0 C-167.16 -59.7, -161.01 -119.39, -151.26 -213.94 M-173.31 0 C-168.57 -46.06, -163.82 -92.11, -151.26 -213.94 M-151.26 -213.94 C-104.58 -192.01, -57.9 -170.08, -18.82 -151.72 M-151.26 -213.94 C-115.5 -197.14, -79.75 -180.34, -18.82 -151.72 M-18.82 -151.72 C-14.61 -117.76, -10.39 -83.8, 0 0 M-18.82 -151.72 C-13.02 -105, -7.23 -58.27, 0 0" stroke="#000000" stroke-width="1" fill="none"></path></g></g><mask></mask><g stroke-linecap="round"><g transform="translate(358.8082908038996 197.9713280683411) rotate(0 -107.49785459939972 0.740823510600876)"><path d="M0 0 C-20.99 35.54, -41.99 71.07, -77.76 131.63 M0 0 C-19.02 32.2, -38.05 64.4, -77.76 131.63 M-77.76 131.63 C-114.64 103.19, -151.51 74.75, -215 25.78 M-77.76 131.63 C-130.62 90.86, -183.48 50.09, -215 25.78 M-215 25.78 C-165.44 -26.39, -115.88 -78.57, -66.87 -130.15 M-215 25.78 C-167.24 -24.49, -119.49 -74.76, -66.87 -130.15 M-66.87 -130.15 C-45.64 -88.82, -24.41 -47.5, 0 0 M-66.87 -130.15 C-45.76 -89.06, -24.65 -47.98, 0 0" stroke="#000000" stroke-width="1" fill="none"></path></g></g><mask></mask><g stroke-linecap="round"><g transform="translate(192.00856462747151 944.6738538693978) rotate(0 69.75999980693882 -44.02919511213918)"><path d="M0 0 C-4.94 -44.49, -9.89 -88.97, -16.89 -151.95 M0 0 C-6.44 -57.94, -12.88 -115.87, -16.89 -151.95 M-16.89 -151.95 C45.52 -151.16, 107.93 -150.36, 156.41 -149.75 M-16.89 -151.95 C32.94 -151.32, 82.77 -150.68, 156.41 -149.75 M156.41 -149.75 C150.38 -97.72, 144.35 -45.7, 131.64 63.89 M156.41 -149.75 C149.19 -87.51, 141.98 -25.27, 131.64 63.89 M131.64 63.89 C96.97 47.06, 62.29 30.23, 0 0 M131.64 63.89 C81.91 39.76, 32.18 15.62, 0 0" stroke="#000000" stroke-width="1" fill="none"></path></g></g><mask></mask><g stroke-linecap="round"><g transform="translate(846.3795076274714 963.3291148693968) rotate(0 69.75999980693769 -44.02919511213918)"><path d="M0 0 C-6.19 -55.71, -12.38 -111.41, -16.89 -151.95 M0 0 C-3.7 -33.25, -7.39 -66.5, -16.89 -151.95 M-16.89 -151.95 C19.55 -151.49, 56 -151.02, 156.41 -149.75 M-16.89 -151.95 C45.56 -151.16, 108.01 -150.36, 156.41 -149.75 M156.41 -149.75 C148.81 -84.2, 141.21 -18.65, 131.64 63.89 M156.41 -149.75 C150.08 -95.18, 143.76 -40.62, 131.64 63.89 M131.64 63.89 C86.24 41.86, 40.83 19.82, 0 0 M131.64 63.89 C101.07 49.06, 70.5 34.22, 0 0" stroke="#000000" stroke-width="1" fill="none"></path></g></g><mask></mask><g stroke-linecap="round"><g transform="translate(551.9761252963949 257.8062065640054) rotate(0 2.2986819381237638 109.16018461724457)"><path d="M0 0 C51.69 -21.35, 103.39 -42.71, 131.91 -54.49 M0 0 C32.31 -13.35, 64.62 -26.69, 131.91 -54.49 M131.91 -54.49 C137.65 12.49, 143.39 79.46, 154.64 210.7 M131.91 -54.49 C137.51 10.89, 143.12 76.27, 154.64 210.7 M154.64 210.7 C120.78 223.32, 86.92 235.93, -12.06 272.81 M154.64 210.7 C97.96 231.82, 41.29 252.93, -12.06 272.81 M-12.06 272.81 C-42.11 258.7, -72.15 244.58, -144.51 210.6 M-12.06 272.81 C-41.87 258.81, -71.67 244.81, -144.51 210.6 M-144.51 210.6 C-146.51 207.59, -148.52 204.59, -150.04 202.32 M-144.51 210.6 C-146.45 207.68, -148.4 204.77, -150.04 202.32 M-150.04 202.32 C-90.95 122.64, -31.87 42.97, 0 0 M-150.04 202.32 C-115.07 155.15, -80.09 107.99, 0 0" stroke="#000000" stroke-width="1" fill="none"></path></g></g><mask></mask><g stroke-linecap="round"><g transform="translate(1071.017499923562 339.8049929956999) rotate(0 -50.591844431840855 -164.90249649784994)"><path d="M0 0 C-28.75 -13.51, -57.51 -27.01, -132.44 -62.21 M0 0 C-33.56 -15.76, -67.11 -31.53, -132.44 -62.21 M-132.44 -62.21 C-167.17 -114.14, -201.9 -166.07, -284 -288.85 M-132.44 -62.21 C-181.42 -135.45, -230.39 -208.68, -284 -288.85 M-284 -288.85 C-282.52 -297.85, -281.04 -306.85, -277.27 -329.8 M-284 -288.85 C-281.66 -303.1, -279.32 -317.35, -277.27 -329.8 M-277.27 -329.8 C-116.71 -329.8, 43.85 -329.8, 182.82 -329.8 M-277.27 -329.8 C-129.68 -329.8, 17.9 -329.8, 182.82 -329.8 M182.82 -329.8 C182.82 -267.71, 182.82 -205.61, 182.82 -68.11 M182.82 -329.8 C182.82 -230.73, 182.82 -131.65, 182.82 -68.11 M182.82 -68.11 C131.34 -48.93, 79.87 -29.76, 0 0 M182.82 -68.11 C139.52 -51.98, 96.22 -35.85, 0 0" stroke="#000000" stroke-width="1" fill="none"></path></g></g><mask></mask><g stroke-linecap="round"><g transform="translate(787.0151296423978 50.95181640257715) rotate(0 -244.173068857006 82.95128687942554)"><path d="M0 0 C-26.66 39.39, -53.32 78.78, -103.13 152.37 M0 0 C-29.65 43.8, -59.3 87.61, -103.13 152.37 M-103.13 152.37 C-129.82 163.39, -156.5 174.41, -235.04 206.85 M-103.13 152.37 C-154.7 173.67, -206.28 194.97, -235.04 206.85 M-235.04 206.85 C-300.05 186.72, -365.05 166.58, -428.21 147.02 M-235.04 206.85 C-311.79 183.08, -388.55 159.3, -428.21 147.02 M-428.21 147.02 C-442.45 119.3, -456.69 91.58, -495.08 16.87 M-428.21 147.02 C-445.42 113.53, -462.62 80.03, -495.08 16.87 M-495.08 16.87 C-494.1 2.35, -493.11 -12.16, -491.17 -40.95 M-495.08 16.87 C-493.73 -3.15, -492.37 -23.16, -491.17 -40.95 M-491.17 -40.95 C-352.53 -40.95, -213.9 -40.95, 6.73 -40.95 M-491.17 -40.95 C-355.22 -40.95, -219.27 -40.95, 6.73 -40.95 M6.73 -40.95 C4.23 -25.72, 1.73 -10.5, 0 0 M6.73 -40.95 C4.11 -24.97, 1.48 -8.98, 0 0" stroke="#000000" stroke-width="1" fill="none"></path></g></g><mask></mask><g stroke-linecap="round"><g transform="translate(10 1009.859438733203) rotate(0 207.70530598220103 44.98203707649327)"><path d="M0 0 C44.26 -15.85, 88.52 -31.7, 182.01 -65.19 M0 0 C53.58 -19.19, 107.16 -38.38, 182.01 -65.19 M182.01 -65.19 C224.81 -44.41, 267.61 -23.64, 313.65 -1.29 M182.01 -65.19 C209.58 -51.8, 237.15 -38.42, 313.65 -1.29 M313.65 -1.29 C340.65 40.22, 367.66 81.74, 415.41 155.15 M313.65 -1.29 C345.64 47.89, 377.63 97.07, 415.41 155.15 M415.41 155.15 C301.87 155.15, 188.33 155.15, 0 155.15 M415.41 155.15 C297.27 155.15, 179.13 155.15, 0 155.15 M0 155.15 C0 114.9, 0 74.65, 0 0 M0 155.15 C0 119.76, 0 84.37, 0 0" stroke="#000000" stroke-width="1" fill="none"></path></g></g><mask></mask><g stroke-linecap="round"><g transform="translate(584.7045998853923 1057.0468579891374) rotate(0 217.08116022029117 7.122248320558356)"><path d="M0 0 C64.64 -23.15, 129.29 -46.3, 261.67 -93.72 M0 0 C86.92 -31.13, 173.85 -62.26, 261.67 -93.72 M261.67 -93.72 C290.35 -79.8, 319.03 -65.88, 393.31 -29.83 M261.67 -93.72 C300.97 -74.65, 340.27 -55.57, 393.31 -29.83 M393.31 -29.83 C419.82 10.92, 446.33 51.67, 482.94 107.96 M393.31 -29.83 C411.55 -1.79, 429.79 26.25, 482.94 107.96 M482.94 107.96 C308.03 107.96, 133.11 107.96, -48.78 107.96 M482.94 107.96 C348.19 107.96, 213.45 107.96, -48.78 107.96 M-48.78 107.96 C-31.96 70.74, -15.14 33.51, 0 0 M-48.78 107.96 C-34.8 77.02, -20.82 46.07, 0 0" stroke="#000000" stroke-width="1" fill="none"></path></g></g><mask></mask><g stroke-linecap="round"><g transform="translate(739.2294082418625 725.2576975785289) rotate(0 -64.67704785254546 -107.58261324746422)"><path d="M0 0 C-34.08 15.81, -68.17 31.62, -89.64 41.59 M0 0 C-19.37 8.99, -38.74 17.97, -89.64 41.59 M-89.64 41.59 C-125.47 8.26, -161.3 -25.07, -180.5 -42.92 M-89.64 41.59 C-118.08 15.14, -146.52 -11.31, -180.5 -42.92 M-180.5 -42.92 C-187.42 -98.74, -194.34 -154.56, -199.32 -194.64 M-180.5 -42.92 C-186.68 -92.77, -192.86 -142.62, -199.32 -194.64 M-199.32 -194.64 C-141.44 -216.21, -83.55 -237.77, -32.61 -256.75 M-199.32 -194.64 C-159.46 -209.49, -119.61 -224.34, -32.61 -256.75 M-32.61 -256.75 C1.67 -216.83, 35.96 -176.91, 69.96 -137.32 M-32.61 -256.75 C-6.86 -226.77, 18.89 -196.78, 69.96 -137.32 M69.96 -137.32 C46.2 -90.67, 22.43 -44.02, 0 0 M69.96 -137.32 C49.09 -96.35, 28.21 -55.37, 0 0" stroke="#000000" stroke-width="1" fill="none"></path></g></g><mask></mask><g stroke-linecap="round"><g transform="translate(1089.838157242148 491.528174147056) rotate(0 72.58868339015498 -33.64751241865065)"><path d="M0 0 C-7.34 -59.19, -14.69 -118.39, -18.82 -151.72 M0 0 C-6.07 -48.92, -12.14 -97.84, -18.82 -151.72 M-18.82 -151.72 C24.92 -168.02, 68.66 -184.32, 164 -219.83 M-18.82 -151.72 C33.34 -171.16, 85.5 -190.59, 164 -219.83 M164 -219.83 C164 -103.87, 164 12.09, 164 152.54 M164 -219.83 C164 -93.98, 164 31.88, 164 152.54 M164 152.54 C120.21 111.81, 76.42 71.08, 0 0 M164 152.54 C114.57 106.56, 65.14 60.59, 0 0" stroke="#000000" stroke-width="1" fill="none"></path></g></g><mask></mask><g stroke-linecap="round"><g transform="translate(551.9761252963949 257.8062065640054) rotate(0 -135.46555601866157 71.24112071692207)"><path d="M0 0 C-38.57 52.01, -77.14 104.02, -150.04 202.32 M0 0 C-52.57 70.89, -105.15 141.78, -150.04 202.32 M-150.04 202.32 C-170.8 197.16, -191.56 191.99, -253.53 176.58 M-150.04 202.32 C-186.44 193.27, -222.84 184.21, -253.53 176.58 M-253.53 176.58 C-257.55 152.37, -261.57 128.16, -270.93 71.8 M-253.53 176.58 C-258.26 148.08, -263 119.58, -270.93 71.8 M-270.93 71.8 C-255.13 45.05, -239.33 18.31, -193.17 -59.83 M-270.93 71.8 C-247.78 32.61, -224.63 -6.58, -193.17 -59.83 M-193.17 -59.83 C-124.94 -38.7, -56.71 -17.57, 0 0 M-193.17 -59.83 C-138.91 -43.03, -84.65 -26.22, 0 0" stroke="#000000" stroke-width="1" fill="none"></path></g></g><mask></mask><g stroke-linecap="round"><g transform="translate(10 1009.859438733203) rotate(0 91.00428231373576 -187.3411589159257)"><path d="M0 0 C0 -78.3, 0 -156.59, 0 -374.68 M0 0 C0 -81.14, 0 -162.28, 0 -374.68 M0 -374.68 C45.03 -331.71, 90.07 -288.75, 165.12 -217.14 M0 -374.68 C39.42 -337.07, 78.84 -299.46, 165.12 -217.14 M165.12 -217.14 C169.22 -180.22, 173.33 -143.31, 182.01 -65.19 M165.12 -217.14 C170.91 -165, 176.71 -112.85, 182.01 -65.19 M182.01 -65.19 C137.42 -49.22, 92.84 -33.25, 0 0 M182.01 -65.19 C142.23 -50.94, 102.46 -36.7, 0 0" stroke="#000000" stroke-width="1" fill="none"></path></g></g><mask></mask><g stroke-linecap="round"><g transform="translate(584.7045998853923 1057.0468579891374) rotate(0 130.83745387103954 -165.89458020530446)"><path d="M0 0 C2.01 -42.68, 4.03 -85.35, 8.44 -178.76 M0 0 C2.43 -51.41, 4.85 -102.83, 8.44 -178.76 M8.44 -178.76 C24.88 -211.22, 41.32 -243.68, 64.88 -290.2 M8.44 -178.76 C29.78 -220.9, 51.12 -263.04, 64.88 -290.2 M64.88 -290.2 C84.59 -299.35, 104.3 -308.49, 154.52 -331.79 M64.88 -290.2 C83.1 -298.65, 101.31 -307.1, 154.52 -331.79 M154.52 -331.79 C185.04 -302.67, 215.56 -273.55, 244.79 -245.67 M154.52 -331.79 C176.35 -310.96, 198.18 -290.13, 244.79 -245.67 M244.79 -245.67 C250.81 -191.51, 256.83 -137.35, 261.67 -93.72 M244.79 -245.67 C249.84 -200.15, 254.9 -154.64, 261.67 -93.72 M261.67 -93.72 C167.37 -59.94, 73.07 -26.17, 0 0 M261.67 -93.72 C188.37 -67.46, 115.07 -41.21, 0 0" stroke="#000000" stroke-width="1" fill="none"></path></g></g><mask></mask><g stroke-linecap="round"><g transform="translate(649.5857634849431 766.8429385896495) rotate(0 -144.0488899471302 13.4692656151542)"><path d="M0 0 C-20.64 40.76, -41.29 81.52, -56.44 111.44 M0 0 C-13.6 26.85, -27.2 53.7, -56.44 111.44 M-56.44 111.44 C-143.52 75.14, -230.61 38.84, -288.1 14.88 M-56.44 111.44 C-127.72 81.73, -199 52.02, -288.1 14.88 M-288.1 14.88 C-283.45 -19.62, -278.8 -54.12, -276.42 -71.8 M-288.1 14.88 C-285.2 -6.64, -282.3 -28.16, -276.42 -71.8 M-276.42 -71.8 C-273.67 -74.65, -270.92 -77.51, -264.17 -84.51 M-276.42 -71.8 C-271.88 -76.51, -267.34 -81.21, -264.17 -84.51 M-264.17 -84.51 C-205.06 -84.51, -145.96 -84.51, -90.85 -84.51 M-264.17 -84.51 C-229.25 -84.51, -194.33 -84.51, -90.85 -84.51 M-90.85 -84.51 C-63.51 -59.07, -36.16 -33.64, 0 0 M-90.85 -84.51 C-62.38 -58.02, -33.9 -31.53, 0 0" stroke="#000000" stroke-width="1" fill="none"></path></g></g><mask></mask><g stroke-linecap="round"><g transform="translate(1094.7271735749832 720.6745624340285) rotate(0 -54.226466805026575 -114.57319414348649)"><path d="M0 0 C-84.66 -43.2, -169.32 -86.39, -267.56 -136.52 M0 0 C-91.17 -46.52, -182.34 -93.04, -267.56 -136.52 M-267.56 -136.52 C-232.07 -173.31, -196.58 -210.1, -178.2 -229.15 M-267.56 -136.52 C-245.76 -159.11, -223.96 -181.71, -178.2 -229.15 M-178.2 -229.15 C-115.3 -229.15, -52.41 -229.15, -4.89 -229.15 M-178.2 -229.15 C-123.64 -229.15, -69.08 -229.15, -4.89 -229.15 M-4.89 -229.15 C31.4 -195.39, 67.7 -161.63, 159.11 -76.61 M-4.89 -229.15 C49.55 -178.51, 103.98 -127.88, 159.11 -76.61 M159.11 -76.61 C159.11 -63.78, 159.11 -50.95, 159.11 -32.28 M159.11 -76.61 C159.11 -63.84, 159.11 -51.08, 159.11 -32.28 M159.11 -32.28 C99.91 -20.27, 40.71 -8.26, 0 0 M159.11 -32.28 C101.63 -20.62, 44.16 -8.96, 0 0" stroke="#000000" stroke-width="1" fill="none"></path></g></g><mask></mask><g stroke-linecap="round"><g transform="translate(143.81258160510015 223.75156583348803) rotate(0 10.410582709517712 175.74128450554235)"><path d="M0 0 C53.81 41.51, 107.63 83.02, 137.23 105.85 M0 0 C37.96 29.28, 75.91 58.55, 137.23 105.85 M137.23 105.85 C141.06 128.91, 144.89 151.96, 154.63 210.64 M137.23 105.85 C141.8 133.34, 146.36 160.82, 154.63 210.64 M154.63 210.64 C94.23 243.04, 33.82 275.45, -89.11 341.4 M154.63 210.64 C98.35 240.83, 42.07 271.02, -89.11 341.4 M-89.11 341.4 C-102.76 344.48, -116.41 347.56, -133.81 351.48 M-89.11 341.4 C-102.98 344.53, -116.84 347.66, -133.81 351.48 M-133.81 351.48 C-133.81 273.43, -133.81 195.37, -133.81 19.72 M-133.81 351.48 C-133.81 249, -133.81 146.52, -133.81 19.72 M-133.81 19.72 C-106.29 15.67, -78.76 11.61, 0 0 M-133.81 19.72 C-106.51 15.7, -79.21 11.68, 0 0" stroke="#000000" stroke-width="1" fill="none"></path></g></g><mask></mask><g stroke-linecap="round"><g transform="translate(361.4879835906827 781.7199360972802) rotate(0 -169.90515506542533 -101.67919886379718)"><path d="M0 0 C-3.45 3.48, -6.89 6.96, -13.07 13.21 M0 0 C-4.57 4.61, -9.13 9.23, -13.07 13.21 M-13.07 13.21 C-53.96 12.69, -94.85 12.17, -186.37 11 M-13.07 13.21 C-76.15 12.41, -139.22 11.6, -186.37 11 M-186.37 11 C-233.58 -34.04, -280.79 -79.09, -351.49 -146.54 M-186.37 11 C-246.32 -46.2, -306.28 -103.41, -351.49 -146.54 M-351.49 -146.54 C-351.49 -168.72, -351.49 -190.89, -351.49 -206.49 M-351.49 -146.54 C-351.49 -166.03, -351.49 -185.51, -351.49 -206.49 M-351.49 -206.49 C-340.52 -208.96, -329.56 -211.43, -306.78 -216.57 M-351.49 -206.49 C-335.32 -210.13, -319.16 -213.78, -306.78 -216.57 M-306.78 -216.57 C-226.68 -183.89, -146.57 -151.22, 11.68 -86.68 M-306.78 -216.57 C-231.45 -185.84, -156.12 -155.12, 11.68 -86.68 M11.68 -86.68 C8.27 -61.4, 4.87 -36.12, 0 0 M11.68 -86.68 C8.35 -62, 5.03 -37.31, 0 0" stroke="#000000" stroke-width="1" fill="none"></path></g></g><mask></mask><g stroke-linecap="round"><g transform="translate(1094.7271735749832 720.674562434029) rotate(0 -177.74888266656035 -21.803704768093894)"><path d="M0 0 C-29.44 29.75, -58.87 59.49, -91.94 92.91 M0 0 C-24.97 25.23, -49.94 50.46, -91.94 92.91 M-91.94 92.91 C-133.36 92.38, -174.77 91.85, -265.24 90.7 M-91.94 92.91 C-149.12 92.18, -206.29 91.45, -265.24 90.7 M-265.24 90.7 C-293.28 63.94, -321.33 37.18, -355.5 4.58 M-265.24 90.7 C-301.05 56.54, -336.86 22.37, -355.5 4.58 M-355.5 4.58 C-333.28 -39.03, -311.06 -82.64, -285.53 -132.74 M-355.5 4.58 C-334.03 -37.56, -312.56 -79.7, -285.53 -132.74 M-285.53 -132.74 C-281.54 -133.58, -277.54 -134.42, -267.56 -136.52 M-285.53 -132.74 C-281.09 -133.67, -276.65 -134.61, -267.56 -136.52 M-267.56 -136.52 C-166.27 -84.84, -64.98 -33.15, 0 0 M-267.56 -136.52 C-161.24 -82.27, -54.92 -28.02, 0 0" stroke="#000000" stroke-width="1" fill="none"></path></g></g><mask></mask><g stroke-linecap="round" transform="translate(294.78016170947694 578.7401199032063) rotate(0 17.231829877734526 16.560999440612477)"><path d="M19.77 -0.1 C23.23 0.07, 27.36 2.79, 29.75 5.43 C32.15 8.07, 33.96 12.23, 34.15 15.76 C34.34 19.28, 33.13 23.84, 30.87 26.6 C28.62 29.36, 24.17 31.5, 20.61 32.34 C17.06 33.18, 12.8 33.27, 9.57 31.63 C6.33 29.99, 2.6 25.89, 1.22 22.5 C-0.16 19.11, 0.17 14.6, 1.29 11.29 C2.41 7.97, 4.84 4.45, 7.95 2.61 C11.07 0.76, 17.9 0.54, 19.99 0.2 C22.09 -0.14, 20.5 0.25, 20.54 0.56 M20.95 0.48 C24.33 1.04, 28.55 3.78, 30.73 6.6 C32.91 9.42, 34.1 14.02, 34.04 17.4 C33.97 20.77, 32.63 24.34, 30.32 26.85 C28.02 29.35, 23.82 31.79, 20.21 32.44 C16.6 33.09, 12.02 32.56, 8.68 30.77 C5.33 28.97, 1.32 25.13, 0.17 21.65 C-0.98 18.17, 0.38 13.19, 1.75 9.87 C3.12 6.55, 5.23 3.33, 8.38 1.71 C11.52 0.1, 18.65 0.39, 20.62 0.2 C22.59 0.01, 20.21 0.25, 20.2 0.6" stroke="none" stroke-width="0" fill="#69db7c"></path><path d="M13.71 0.72 C17.02 -0.12, 22.09 0.43, 25.38 2.14 C28.68 3.84, 32.12 7.62, 33.48 10.95 C34.85 14.29, 34.8 18.86, 33.59 22.16 C32.38 25.46, 29.42 29.04, 26.24 30.78 C23.05 32.52, 18.13 33.08, 14.46 32.6 C10.79 32.12, 6.58 30.48, 4.22 27.92 C1.85 25.37, 0.32 20.93, 0.29 17.29 C0.26 13.64, 1.69 8.89, 4.05 6.06 C6.4 3.23, 12.64 1.3, 14.41 0.33 C16.19 -0.65, 14.67 -0.05, 14.69 0.21 M18.11 -0.4 C21.59 -0.31, 26.21 2.32, 28.86 4.88 C31.51 7.44, 33.52 11.43, 34.02 14.96 C34.52 18.48, 34.01 23.18, 31.88 26.04 C29.74 28.89, 24.73 31.26, 21.21 32.06 C17.69 32.87, 14.12 32.2, 10.77 30.88 C7.41 29.56, 2.71 27.31, 1.1 24.12 C-0.52 20.94, 0.1 15.4, 1.09 11.77 C2.09 8.14, 4.14 4.18, 7.06 2.34 C9.99 0.5, 16.84 1.08, 18.65 0.7 C20.46 0.33, 17.97 -0.01, 17.92 0.09" stroke="#1e1e1e" stroke-width="8" fill="none"></path></g><g stroke-linecap="round" transform="translate(825.8855757094766 387.9305029032064) rotate(0 17.231829877734526 16.560999440612477)"><path d="M13.56 0.55 C17.02 -0.27, 22.27 0.54, 25.6 2.17 C28.93 3.79, 32.15 7.01, 33.53 10.31 C34.92 13.6, 35.11 18.5, 33.93 21.94 C32.75 25.38, 29.75 29.18, 26.46 30.97 C23.16 32.76, 17.97 33.32, 14.19 32.68 C10.4 32.05, 6.11 29.83, 3.76 27.18 C1.41 24.54, 0.07 20.27, 0.09 16.81 C0.11 13.36, 1.39 9.25, 3.89 6.45 C6.39 3.64, 12.97 0.96, 15.09 -0.01 C17.21 -0.98, 16.65 0.35, 16.61 0.61 M20.64 -0.15 C24.23 0.23, 28.76 2.71, 31.13 5.58 C33.49 8.46, 34.88 13.49, 34.84 17.1 C34.8 20.7, 33.25 24.55, 30.89 27.19 C28.53 29.82, 24.55 32.31, 20.69 32.9 C16.83 33.5, 10.96 32.56, 7.75 30.77 C4.53 28.98, 2.44 25.59, 1.4 22.15 C0.36 18.72, 0.28 13.54, 1.51 10.17 C2.74 6.8, 5.53 3.56, 8.81 1.94 C12.08 0.33, 19.19 0.8, 21.14 0.48 C23.09 0.16, 20.63 -0.15, 20.49 0.03" stroke="none" stroke-width="0" fill="#69db7c"></path><path d="M16.84 0.37 C20.34 0.16, 25.83 1.89, 28.77 4.18 C31.71 6.47, 33.97 10.63, 34.48 14.1 C34.99 17.58, 33.83 22.07, 31.85 25.04 C29.87 28.02, 26.05 30.75, 22.6 31.94 C19.16 33.13, 14.53 33.39, 11.17 32.19 C7.8 30.99, 4.21 27.76, 2.4 24.73 C0.6 21.71, -0.25 17.49, 0.33 14.03 C0.91 10.56, 3.04 6.22, 5.9 3.92 C8.76 1.62, 15.31 0.8, 17.46 0.21 C19.62 -0.37, 18.73 0.19, 18.84 0.41 M15.17 -0.63 C18.78 -1.17, 24.34 0.89, 27.37 2.94 C30.39 5, 32.44 8.19, 33.31 11.71 C34.19 15.24, 34.05 20.69, 32.61 24.1 C31.17 27.51, 28.07 30.86, 24.68 32.17 C21.29 33.49, 15.96 32.93, 12.27 31.99 C8.59 31.04, 4.72 29.22, 2.57 26.5 C0.43 23.78, -1.1 19.23, -0.61 15.66 C-0.12 12.1, 2.87 7.78, 5.52 5.12 C8.17 2.47, 13.49 0.63, 15.3 -0.26 C17.11 -1.15, 16.17 -0.51, 16.38 -0.2" stroke="#1e1e1e" stroke-width="8" fill="none"></path></g><g stroke-linecap="round" transform="translate(121.6131846092876 93.43900055938752) rotate(37.64418058248804 17.231829877734526 16.560999440612477)"><path d="M15.05 -0.33 C18.48 -0.84, 24.02 0.64, 27.1 2.74 C30.18 4.85, 32.55 8.9, 33.54 12.3 C34.53 15.7, 34.49 19.92, 33.04 23.15 C31.58 26.38, 28.08 30.18, 24.82 31.69 C21.57 33.2, 17.02 33.17, 13.51 32.2 C10 31.23, 6.05 28.6, 3.76 25.87 C1.47 23.15, -0.36 19.31, -0.24 15.84 C-0.11 12.38, 1.87 7.77, 4.51 5.09 C7.15 2.41, 13.53 0.61, 15.58 -0.24 C17.63 -1.09, 16.75 -0.4, 16.79 -0.03 M14.25 -0.33 C17.65 -1, 22.91 0.21, 26.08 2.15 C29.25 4.08, 31.97 7.91, 33.28 11.28 C34.59 14.65, 35.13 19, 33.93 22.35 C32.74 25.69, 29.41 29.59, 26.12 31.35 C22.82 33.11, 17.91 33.57, 14.17 32.92 C10.43 32.27, 5.9 30.36, 3.65 27.43 C1.4 24.5, 0.46 18.97, 0.65 15.31 C0.84 11.65, 2.44 7.87, 4.79 5.46 C7.14 3.06, 13.14 1.61, 14.76 0.89 C16.38 0.16, 14.52 1.03, 14.51 1.11" stroke="none" stroke-width="0" fill="#69db7c"></path><path d="M15.3 0.39 C18.67 -0.18, 23.18 0.98, 26.2 2.9 C29.23 4.81, 32.32 8.63, 33.45 11.87 C34.58 15.11, 34.27 19.08, 32.97 22.34 C31.68 25.6, 28.95 29.71, 25.67 31.41 C22.39 33.1, 17.04 33.32, 13.3 32.5 C9.56 31.68, 5.47 29.27, 3.22 26.48 C0.98 23.69, -0.44 19.3, -0.16 15.75 C0.12 12.2, 2.35 7.73, 4.9 5.19 C7.45 2.65, 13.32 1.31, 15.15 0.5 C16.97 -0.3, 15.81 0.21, 15.85 0.36 M14.71 0.22 C18.18 -0.42, 22.77 0.98, 25.92 2.71 C29.07 4.45, 32.37 7.47, 33.61 10.63 C34.84 13.79, 34.62 18.41, 33.35 21.7 C32.07 24.98, 29.03 28.43, 25.97 30.33 C22.92 32.24, 18.56 33.68, 15.01 33.11 C11.45 32.54, 7.04 29.62, 4.66 26.91 C2.28 24.2, 0.93 20.2, 0.72 16.84 C0.52 13.49, 1.14 9.59, 3.43 6.8 C5.72 4, 12.73 1.07, 14.47 0.07 C16.21 -0.93, 13.79 0.42, 13.89 0.78" stroke="#1e1e1e" stroke-width="8" fill="none"></path></g><g stroke-linecap="round" transform="translate(403.48111294022874 866.3301312234814) rotate(180.728737705086 17.231829877734526 16.560999440612477)"><path d="M15.99 -0.32 C19.47 -0.84, 24.97 0.79, 28 2.95 C31.04 5.11, 33.47 9.02, 34.18 12.62 C34.88 16.21, 33.95 21.25, 32.23 24.52 C30.51 27.79, 27.25 30.86, 23.84 32.25 C20.43 33.64, 15.25 34.01, 11.79 32.85 C8.33 31.69, 5.07 28.29, 3.07 25.3 C1.07 22.31, -0.55 18.36, -0.22 14.89 C0.12 11.43, 2.24 6.92, 5.08 4.51 C7.91 2.11, 14.61 1.19, 16.77 0.46 C18.93 -0.27, 18.05 -0.11, 18.04 0.11 M20.14 -0.14 C23.44 0.35, 28.19 3.14, 30.5 6.07 C32.81 9, 34.21 13.75, 34.01 17.44 C33.81 21.14, 31.6 25.54, 29.31 28.24 C27.02 30.95, 23.96 33.4, 20.29 33.68 C16.63 33.97, 10.65 32, 7.33 29.95 C4.01 27.89, 1.41 24.67, 0.37 21.35 C-0.68 18.03, -0.4 13.33, 1.04 10.01 C2.48 6.68, 5.81 2.89, 9.01 1.4 C12.2 -0.09, 18.3 1.12, 20.19 1.08 C22.08 1.04, 20.27 1.09, 20.33 1.15" stroke="none" stroke-width="0" fill="#69db7c"></path><path d="M15.87 -0.01 C19.37 -0.49, 24.91 0.89, 27.87 2.94 C30.83 4.99, 32.76 8.73, 33.62 12.28 C34.48 15.83, 34.56 21.07, 33 24.24 C31.44 27.4, 27.72 29.84, 24.25 31.27 C20.78 32.7, 15.67 33.73, 12.17 32.82 C8.68 31.91, 5.36 28.77, 3.27 25.81 C1.19 22.85, -0.62 18.59, -0.34 15.05 C-0.06 11.5, 2.11 6.99, 4.94 4.53 C7.78 2.07, 14.59 1.02, 16.68 0.3 C18.77 -0.42, 17.39 0.03, 17.46 0.2 M19.88 0.27 C23.39 0.66, 27.26 3.13, 29.75 5.68 C32.24 8.23, 34.57 12.12, 34.81 15.55 C35.05 18.99, 33.46 23.45, 31.19 26.3 C28.92 29.14, 24.86 31.9, 21.17 32.63 C17.47 33.35, 12.42 32.14, 9.01 30.65 C5.61 29.16, 2.05 26.77, 0.74 23.7 C-0.57 20.63, -0.05 15.76, 1.18 12.22 C2.41 8.69, 5.09 4.47, 8.13 2.47 C11.16 0.48, 17.46 0.48, 19.38 0.23 C21.31 -0.03, 19.79 0.69, 19.67 0.94" stroke="#1e1e1e" stroke-width="8" fill="none"></path></g><g stroke-linecap="round" transform="translate(1057.8520559402282 884.9853922234809) rotate(180.728737705086 17.231829877734526 16.560999440612477)"><path d="M17.72 -0.19 C21.23 -0.47, 25.2 1.42, 27.89 3.75 C30.58 6.07, 33.22 10.33, 33.87 13.78 C34.51 17.23, 33.5 21.41, 31.77 24.44 C30.04 27.47, 26.84 30.71, 23.49 31.95 C20.15 33.18, 15.31 33.1, 11.71 31.85 C8.11 30.59, 3.81 27.41, 1.9 24.43 C-0.02 21.44, -0.56 17.38, 0.22 13.93 C1 10.49, 3.62 6.04, 6.57 3.75 C9.53 1.47, 16.12 0.74, 17.96 0.24 C19.8 -0.26, 17.66 0.48, 17.61 0.74 M19.98 -0.23 C23.49 0.11, 27.55 2.58, 30.08 5.31 C32.61 8.04, 35.01 12.57, 35.16 16.12 C35.31 19.67, 33.57 23.76, 30.99 26.61 C28.4 29.45, 23.43 32.4, 19.67 33.2 C15.92 34, 11.68 33.36, 8.46 31.4 C5.23 29.45, 1.47 25, 0.34 21.47 C-0.78 17.94, 0.26 13.54, 1.71 10.23 C3.17 6.91, 5.9 3.16, 9.07 1.61 C12.24 0.05, 18.97 1.18, 20.73 0.91 C22.49 0.65, 19.8 -0.15, 19.63 0" stroke="none" stroke-width="0" fill="#69db7c"></path><path d="M13.28 0.62 C16.64 -0.39, 21.28 0.21, 24.62 1.74 C27.97 3.28, 31.8 6.57, 33.34 9.84 C34.87 13.11, 34.98 17.97, 33.85 21.37 C32.71 24.77, 29.62 28.22, 26.53 30.24 C23.45 32.25, 19.06 33.84, 15.36 33.47 C11.65 33.1, 6.8 30.67, 4.29 28.01 C1.77 25.36, 0.5 21.2, 0.28 17.56 C0.06 13.91, 0.74 9.06, 2.97 6.15 C5.2 3.24, 11.69 1.01, 13.66 0.09 C15.63 -0.83, 14.74 0.33, 14.79 0.63 M18.02 -0.66 C21.57 -0.71, 25.88 2.32, 28.54 4.75 C31.2 7.18, 33.46 10.51, 33.96 13.94 C34.45 17.37, 33.41 22.33, 31.53 25.34 C29.65 28.34, 26.16 30.84, 22.68 31.99 C19.2 33.13, 14.12 33.35, 10.63 32.2 C7.15 31.06, 3.59 28.35, 1.78 25.11 C-0.04 21.87, -1.1 16.44, -0.25 12.76 C0.6 9.07, 3.93 5.08, 6.89 2.99 C9.85 0.91, 15.72 0.57, 17.52 0.22 C19.33 -0.13, 17.61 0.65, 17.72 0.91" stroke="#1e1e1e" stroke-width="8" fill="none"></path></g><g stroke-linecap="round" transform="translate(444.2774847094779 584.1194139032066) rotate(0 30.760285631567058 27.985028743848716)"><path d="M45.73 2.83 C51.48 5.06, 57.86 11.58, 60.24 17.39 C62.63 23.2, 62.18 31.97, 60.05 37.69 C57.93 43.4, 53.18 48.59, 47.5 51.67 C41.81 54.76, 32.54 57.01, 25.94 56.22 C19.35 55.43, 12.15 51.55, 7.91 46.94 C3.67 42.32, 0.76 34.47, 0.5 28.54 C0.24 22.62, 2.45 15.96, 6.35 11.39 C10.25 6.81, 17.07 2.35, 23.89 1.1 C30.71 -0.15, 43.34 3.12, 47.27 3.9 C51.19 4.69, 47.85 5.38, 47.44 5.81 M28.62 0.22 C35.03 -0.17, 44.52 2.96, 49.65 6.3 C54.78 9.64, 58.14 14.56, 59.39 20.26 C60.64 25.96, 59.94 34.9, 57.15 40.5 C54.37 46.1, 48.73 51.74, 42.67 53.87 C36.61 56, 27.08 55.01, 20.79 53.29 C14.5 51.57, 8.43 48.27, 4.92 43.56 C1.41 38.85, -1.17 30.78, -0.29 25.02 C0.59 19.26, 5.47 13.14, 10.19 8.99 C14.9 4.85, 24.82 1.7, 28.01 0.14 C31.19 -1.42, 29.09 -0.73, 29.27 -0.36" stroke="none" stroke-width="0" fill="#69db7c"></path><path d="M34.75 0.67 C40.88 0.88, 48.28 4.1, 52.68 8.36 C57.08 12.61, 60.64 20.1, 61.17 26.2 C61.7 32.31, 59.61 40.15, 55.86 45.01 C52.11 49.88, 45.07 54.18, 38.65 55.37 C32.23 56.57, 23.49 55.01, 17.32 52.2 C11.15 49.4, 4.22 43.98, 1.63 38.55 C-0.97 33.12, -0.16 25.17, 1.74 19.63 C3.64 14.08, 6.6 8.32, 13.02 5.29 C19.44 2.26, 34.98 1.71, 40.24 1.44 C45.49 1.17, 44.71 3.11, 44.54 3.68 M28.64 1.17 C34.92 0.74, 44.5 2.84, 49.65 5.96 C54.8 9.08, 58.03 14.18, 59.53 19.88 C61.04 25.57, 61.34 34.51, 58.66 40.13 C55.98 45.75, 49.37 51.22, 43.47 53.61 C37.56 56.01, 29.55 56.08, 23.23 54.5 C16.92 52.93, 9.43 49.27, 5.59 44.15 C1.75 39.03, -0.51 29.98, 0.2 23.79 C0.9 17.6, 5.1 11.12, 9.82 7.01 C14.54 2.9, 25.61 0.19, 28.54 -0.86 C31.47 -1.92, 27.16 -0.05, 27.42 0.67" stroke="#1e1e1e" stroke-width="8" fill="none"></path></g><g stroke-linecap="round" transform="translate(975.3828987094771 393.3097969032067) rotate(0 30.760285631567058 27.985028743848716)"><path d="M21.2 1.49 C27.03 -0.5, 35.92 -0.04, 41.88 2.24 C47.84 4.53, 53.76 9.92, 56.93 15.22 C60.09 20.52, 61.93 28.4, 60.87 34.04 C59.8 39.69, 55.72 45.58, 50.54 49.08 C45.37 52.59, 36.55 55.04, 29.82 55.08 C23.1 55.12, 15.1 53.08, 10.19 49.31 C5.29 45.54, 1.25 38.4, 0.39 32.46 C-0.47 26.52, 1.35 18.78, 5.04 13.68 C8.72 8.58, 19.09 4.11, 22.51 1.86 C25.93 -0.39, 25.44 -0.23, 25.56 0.19 M28.24 1.11 C34.37 0.52, 42.7 2.75, 48.22 6.38 C53.73 10.02, 59.72 16.96, 61.32 22.92 C62.91 28.87, 60.86 37.18, 57.77 42.1 C54.68 47.02, 48.78 50.18, 42.78 52.43 C36.78 54.69, 28.02 57.05, 21.77 55.64 C15.52 54.24, 9.04 49.19, 5.29 44.01 C1.53 38.83, -1.46 30.39, -0.77 24.54 C-0.08 18.68, 4.4 12.93, 9.45 8.87 C14.5 4.82, 26.42 1.53, 29.51 0.2 C32.59 -1.12, 28.14 0.58, 27.97 0.92" stroke="none" stroke-width="0" fill="#69db7c"></path><path d="M44.57 3.5 C50.38 5.83, 56.45 11.56, 59.22 16.77 C61.99 21.98, 62.95 29.2, 61.19 34.74 C59.43 40.28, 54.25 46.53, 48.65 50.01 C43.05 53.49, 34.18 55.95, 27.59 55.61 C21 55.27, 13.71 52.15, 9.11 47.96 C4.51 43.77, 0.43 36.58, -0.02 30.46 C-0.48 24.35, 2.55 16.35, 6.39 11.28 C10.23 6.21, 16.12 1.05, 23.03 0.03 C29.95 -1, 43.32 3.85, 47.9 5.13 C52.47 6.41, 50.89 7.46, 50.5 7.69 M17.36 2.54 C22.86 0.01, 33.21 -1.6, 39.52 0.04 C45.83 1.68, 51.44 7.04, 55.22 12.36 C58.99 17.68, 62.57 26.05, 62.18 31.94 C61.78 37.82, 58 43.83, 52.85 47.67 C47.71 51.51, 37.88 54.76, 31.29 54.97 C24.7 55.19, 18.18 52.29, 13.31 48.97 C8.45 45.65, 3.64 40.86, 2.1 35.07 C0.55 29.27, 1.38 19.5, 4.05 14.19 C6.72 8.89, 15.82 4.96, 18.11 3.24 C20.4 1.52, 17.54 3.56, 17.81 3.86" stroke="#1e1e1e" stroke-width="8" fill="none"></path></g><g stroke-linecap="round" transform="translate(226.90889697043713 194.88911924456193) rotate(37.64418058248804 30.760285631567058 27.985028743848716)"><path d="M43.81 3.58 C49.7 5.87, 56.08 11.07, 58.94 16.51 C61.79 21.94, 62.85 30.36, 60.93 36.18 C59.01 41.99, 52.94 47.99, 47.39 51.38 C41.84 54.77, 34.29 57.1, 27.63 56.53 C20.97 55.97, 12.18 52.58, 7.43 47.99 C2.67 43.39, -0.81 35.19, -0.9 28.97 C-0.99 22.74, 2.79 15.43, 6.9 10.63 C11 5.84, 17.21 1.16, 23.74 0.2 C30.26 -0.76, 42.11 4.05, 46.05 4.89 C49.99 5.74, 47.48 5.1, 47.4 5.26 M29.72 -0.47 C36.01 -0.77, 44.64 1.71, 49.82 5.87 C55 10.03, 59.67 18.23, 60.82 24.49 C61.96 30.76, 59.87 38.32, 56.69 43.44 C53.5 48.56, 47.72 53.41, 41.7 55.21 C35.68 57, 26.62 56.2, 20.58 54.22 C14.53 52.23, 9 48.34, 5.41 43.3 C1.81 38.25, -1.9 30.08, -0.99 23.96 C-0.08 17.83, 5.32 10.64, 10.84 6.54 C16.37 2.44, 28.64 0.46, 32.15 -0.64 C35.67 -1.75, 32.33 -0.57, 31.95 -0.09" stroke="none" stroke-width="0" fill="#69db7c"></path><path d="M39.27 0.61 C45.63 1.54, 52.92 6.73, 56.74 11.64 C60.56 16.55, 63.07 23.9, 62.2 30.05 C61.33 36.21, 56.28 44.38, 51.55 48.58 C46.81 52.78, 40.27 54.99, 33.77 55.23 C27.27 55.47, 18.08 53.44, 12.53 50.04 C6.99 46.64, 2.19 40.32, 0.52 34.81 C-1.15 29.3, -0.29 22.43, 2.51 16.99 C5.31 11.54, 10.77 4.75, 17.3 2.16 C23.83 -0.42, 37.48 1.42, 41.7 1.48 C45.92 1.54, 43.05 2.18, 42.63 2.51 M28.93 0.61 C35.55 -0.2, 45.15 2.68, 50.43 6.13 C55.71 9.58, 59.42 15.58, 60.62 21.31 C61.81 27.03, 60.7 34.89, 57.58 40.47 C54.47 46.04, 47.83 52.24, 41.94 54.78 C36.06 57.32, 28.56 57.39, 22.25 55.72 C15.93 54.04, 7.71 50.06, 4.06 44.73 C0.4 39.4, -0.86 29.79, 0.32 23.75 C1.5 17.71, 6.42 12.51, 11.13 8.5 C15.85 4.48, 25.58 0.75, 28.63 -0.32 C31.68 -1.39, 29.22 1.3, 29.42 2.07" stroke="#1e1e1e" stroke-width="8" fill="none"></path></g><g stroke-linecap="round" transform="translate(227.1537781333259 836.0306895700248) rotate(180.728737705086 30.760285631567058 27.985028743848716)"><path d="M43.65 3.66 C49.17 6.02, 55.42 11.75, 58.12 16.99 C60.82 22.23, 61.4 29.42, 59.84 35.09 C58.28 40.76, 53.99 47.69, 48.74 51.01 C43.49 54.33, 34.86 55.53, 28.32 55.02 C21.77 54.51, 14.27 52.26, 9.47 47.95 C4.67 43.64, -0.01 35.37, -0.48 29.15 C-0.95 22.94, 2.65 15.46, 6.66 10.64 C10.66 5.81, 16.54 1.1, 23.56 0.19 C30.58 -0.72, 44.34 4.1, 48.79 5.17 C53.24 6.25, 50.62 6.19, 50.24 6.64 M44.42 2.73 C50.09 5.22, 56.07 11.39, 58.74 16.84 C61.42 22.29, 62.28 29.37, 60.49 35.44 C58.7 41.5, 53.47 50.1, 48 53.22 C42.53 56.35, 34.58 55.45, 27.66 54.17 C20.73 52.9, 11.15 49.91, 6.44 45.59 C1.73 41.28, -0.53 34.16, -0.6 28.27 C-0.67 22.38, 2.01 15.09, 6.03 10.25 C10.06 5.42, 16.76 0.55, 23.57 -0.74 C30.37 -2.03, 43.11 1.72, 46.86 2.51 C50.61 3.29, 46.73 3.22, 46.05 3.96" stroke="none" stroke-width="0" fill="#69db7c"></path><path d="M42.73 3.14 C48.53 5, 54.77 9.32, 57.66 14.61 C60.55 19.91, 61.34 28.96, 60.05 34.94 C58.77 40.92, 55.27 47.08, 49.96 50.49 C44.66 53.91, 34.8 55.66, 28.22 55.44 C21.64 55.22, 15.12 53.32, 10.47 49.16 C5.82 45, 1.13 36.67, 0.31 30.48 C-0.51 24.28, 1.98 16.85, 5.54 11.98 C9.1 7.1, 14.72 2.48, 21.66 1.23 C28.6 -0.02, 42.57 3.42, 47.21 4.46 C51.85 5.5, 49.97 7.08, 49.5 7.49 M28.04 -0.13 C34.58 -1.08, 43.55 2.12, 48.87 5.63 C54.19 9.15, 58.41 15.26, 59.96 20.96 C61.52 26.66, 60.88 34.56, 58.19 39.82 C55.51 45.09, 49.93 50.23, 43.87 52.57 C37.81 54.92, 27.94 55.14, 21.83 53.89 C15.72 52.63, 10.64 49.67, 7.21 45.07 C3.77 40.46, 1.03 32.38, 1.24 26.26 C1.45 20.14, 4.03 12.6, 8.48 8.35 C12.93 4.1, 24.58 2.2, 27.97 0.75 C31.35 -0.69, 28.79 -0.63, 28.79 -0.33" stroke="#1e1e1e" stroke-width="8" fill="none"></path></g><g stroke-linecap="round" transform="translate(881.5247211333258 854.6859505700243) rotate(180.728737705086 30.760285631567058 27.985028743848716)"><path d="M16.42 2.12 C21.65 -1.04, 30.85 -1.36, 37.34 0.02 C43.83 1.41, 51.51 5.39, 55.38 10.43 C59.26 15.48, 61 24.04, 60.58 30.29 C60.16 36.54, 57.29 43.81, 52.87 47.92 C48.44 52.04, 40.6 54.43, 34.01 55 C27.41 55.57, 18.63 54.37, 13.29 51.36 C7.95 48.35, 3.8 42.53, 1.96 36.91 C0.12 31.29, -0.75 23.61, 2.28 17.63 C5.3 11.65, 16.55 3.7, 20.09 1.03 C23.63 -1.64, 23.36 0.88, 23.51 1.58 M19.58 0.74 C25.26 -1.13, 34.11 0.74, 40.26 3.21 C46.41 5.67, 53.27 10.68, 56.5 15.53 C59.73 20.37, 60.57 26.62, 59.64 32.28 C58.7 37.94, 55.57 45.77, 50.88 49.5 C46.19 53.23, 38.4 54.48, 31.49 54.64 C24.57 54.81, 14.76 54.04, 9.38 50.47 C4.01 46.91, 0.28 39.24, -0.75 33.24 C-1.78 27.25, -0.59 20.01, 3.18 14.52 C6.95 9.03, 19.14 2.47, 21.88 0.3 C24.61 -1.86, 19.68 0.65, 19.61 1.55" stroke="none" stroke-width="0" fill="#69db7c"></path><path d="M20.41 0.95 C26.06 -1.28, 34.91 -0.06, 40.98 2.13 C47.05 4.32, 53.48 9.03, 56.83 14.08 C60.19 19.13, 62.17 26.5, 61.08 32.43 C59.99 38.37, 55.16 45.89, 50.3 49.69 C45.44 53.49, 38.39 55.18, 31.91 55.25 C25.43 55.31, 16.64 53.93, 11.44 50.07 C6.24 46.21, 2.11 38.13, 0.71 32.07 C-0.68 26.02, -0.28 18.74, 3.08 13.73 C6.43 8.71, 17.54 4.09, 20.84 1.97 C24.15 -0.15, 22.71 0.65, 22.92 1.01 M22.23 0.52 C28.37 -1.37, 39.57 -0.3, 45.63 2.29 C51.68 4.88, 56.1 10.44, 58.57 16.04 C61.04 21.65, 62.36 30.13, 60.47 35.92 C58.57 41.71, 52.62 47.58, 47.18 50.79 C41.73 54, 34.01 55.98, 27.78 55.19 C21.55 54.41, 14.57 50.18, 9.79 46.06 C5.01 41.93, -0.08 36.29, -0.9 30.44 C-1.73 24.6, 0.69 15.92, 4.84 10.98 C8.99 6.04, 20.65 2.27, 23.99 0.82 C27.33 -0.62, 24.77 1.91, 24.86 2.31" stroke="#1e1e1e" stroke-width="8" fill="none"></path></g><g stroke-linecap="round" transform="translate(530.4499097094781 400.67047090320716) rotate(0 30.760285631567058 27.985028743848716)"><path d="M37.97 1.77 C43.95 2.84, 51.45 7.06, 55.5 11.92 C59.54 16.78, 62.74 25.01, 62.23 30.93 C61.73 36.84, 57.14 43.21, 52.47 47.39 C47.79 51.58, 40.65 55.36, 34.19 56.04 C27.73 56.72, 19.23 55, 13.69 51.5 C8.15 48, 2.61 41.04, 0.93 35.05 C-0.74 29.06, 0.77 20.9, 3.63 15.56 C6.5 10.23, 11.5 5.28, 18.13 3.02 C24.75 0.76, 38.35 1.67, 43.39 2 C48.42 2.33, 48.52 4.49, 48.35 4.99 M23.4 1.21 C29.63 -0.67, 39.14 -0.95, 44.8 1.44 C50.46 3.83, 54.81 9.84, 57.36 15.52 C59.92 21.2, 61.68 29.75, 60.14 35.53 C58.61 41.31, 53.82 46.81, 48.16 50.19 C42.5 53.57, 32.71 56.34, 26.2 55.8 C19.68 55.26, 13.33 51.2, 9.06 46.97 C4.78 42.74, 0.85 36.5, 0.56 30.41 C0.26 24.32, 3.52 15.35, 7.31 10.43 C11.11 5.52, 20.81 2.46, 23.33 0.91 C25.84 -0.63, 22.38 0.74, 22.41 1.15" stroke="none" stroke-width="0" fill="#69db7c"></path><path d="M35.01 -0.35 C41.15 -0.1, 48.39 4.05, 52.76 8.62 C57.12 13.19, 60.73 20.88, 61.19 27.07 C61.64 33.27, 59.41 41.02, 55.51 45.8 C51.61 50.58, 44.35 54.71, 37.77 55.76 C31.19 56.81, 21.99 54.82, 16.03 52.08 C10.08 49.33, 4.52 44.84, 2.04 39.29 C-0.44 33.75, -0.97 24.56, 1.16 18.8 C3.29 13.05, 8.37 7.76, 14.8 4.77 C21.23 1.79, 34.87 1.08, 39.75 0.88 C44.63 0.68, 44.08 3.1, 44.06 3.58 M35.65 0.93 C42.21 1.11, 49.77 3.5, 53.83 7.82 C57.9 12.14, 59.83 20.63, 60.05 26.85 C60.26 33.07, 58.83 40.23, 55.1 45.14 C51.37 50.05, 44.12 54.96, 37.67 56.32 C31.23 57.68, 22.19 56.2, 16.42 53.3 C10.64 50.4, 5.74 44.44, 3.04 38.91 C0.33 33.38, -1.52 25.89, 0.18 20.13 C1.89 14.36, 7.68 7.86, 13.25 4.32 C18.82 0.77, 30.07 -0.74, 33.61 -1.13 C37.15 -1.53, 34.32 1.5, 34.51 1.96" stroke="#1e1e1e" stroke-width="8" fill="none"></path></g><g stroke-linecap="round" transform="translate(1061.5553237094778 209.86085390320727) rotate(0 30.760285631567058 27.985028743848716)"><path d="M28.64 0.21 C35.07 -0.73, 43.83 1.18, 49.31 4.68 C54.78 8.17, 59.83 15.18, 61.47 21.18 C63.11 27.19, 62.29 35.38, 59.14 40.7 C55.99 46.02, 48.88 50.83, 42.58 53.12 C36.28 55.41, 27.52 56.03, 21.32 54.44 C15.12 52.85, 8.9 48.37, 5.39 43.58 C1.87 38.78, -0.46 31.67, 0.22 25.66 C0.91 19.65, 4.33 11.71, 9.51 7.52 C14.7 3.32, 27.71 1.72, 31.33 0.5 C34.96 -0.72, 31.3 -0.15, 31.28 0.22 M27.28 -0.73 C33.48 -1.68, 41.93 1.47, 47.58 4.71 C53.23 7.95, 58.97 13.11, 61.18 18.69 C63.38 24.28, 63.65 32.58, 60.81 38.22 C57.97 43.87, 50.02 49.64, 44.14 52.56 C38.26 55.48, 31.64 57.08, 25.52 55.72 C19.41 54.36, 11.72 49.21, 7.46 44.41 C3.2 39.62, -0.31 32.71, -0.05 26.94 C0.22 21.18, 4.66 14.46, 9.06 9.82 C13.46 5.19, 23.44 0.75, 26.37 -0.88 C29.3 -2.51, 26.67 -0.53, 26.62 0.05" stroke="none" stroke-width="0" fill="#69db7c"></path><path d="M41.38 1.99 C47.68 3.47, 54.33 9.04, 57.54 14.11 C60.74 19.19, 61.84 26.71, 60.62 32.45 C59.39 38.19, 55.07 44.6, 50.19 48.55 C45.3 52.49, 37.69 55.92, 31.3 56.12 C24.91 56.32, 16.93 53.38, 11.84 49.75 C6.74 46.11, 2.18 40.16, 0.73 34.33 C-0.72 28.5, 0.17 20.11, 3.15 14.77 C6.12 9.44, 11.18 4.09, 18.59 2.34 C26.01 0.59, 41.95 3.26, 47.63 4.27 C53.3 5.29, 53.06 8.17, 52.63 8.42 M35.83 0.11 C42.1 0.64, 48.54 3.54, 52.75 8.25 C56.97 12.95, 60.72 21.92, 61.14 28.33 C61.55 34.73, 59.45 42.33, 55.25 46.66 C51.04 51, 42.63 53.21, 35.91 54.36 C29.19 55.51, 20.81 56.04, 14.94 53.55 C9.07 51.05, 2.78 45.02, 0.7 39.37 C-1.39 33.72, 0.26 25.62, 2.44 19.63 C4.62 13.63, 8.09 6.81, 13.78 3.4 C19.46 -0.01, 32.73 -0.37, 36.53 -0.83 C40.32 -1.29, 36.74 -0.22, 36.54 0.66" stroke="#1e1e1e" stroke-width="8" fill="none"></path></g><g stroke-linecap="round" transform="translate(407.184380982344 102.2610922631427) rotate(37.64418058248804 30.760285631567058 27.985028743848716)"><path d="M18.09 2.61 C23.6 0.1, 31.69 0.13, 37.99 1.63 C44.29 3.12, 51.98 6.71, 55.88 11.56 C59.78 16.41, 61.79 24.87, 61.39 30.73 C60.98 36.59, 57.93 42.69, 53.46 46.72 C48.99 50.75, 41.35 54.05, 34.57 54.9 C27.79 55.74, 18.45 55.04, 12.78 51.79 C7.11 48.55, 2.31 41.43, 0.55 35.43 C-1.2 29.42, -1.67 21.67, 2.24 15.79 C6.15 9.9, 19.59 2.54, 24 0.1 C28.41 -2.34, 28.82 0.56, 28.7 1.14 M21.11 0.59 C27.04 -1.32, 35.55 -0.37, 41.95 1.93 C48.34 4.23, 56.1 8.96, 59.49 14.39 C62.87 19.82, 63.79 28.47, 62.27 34.49 C60.75 40.51, 55.86 46.74, 50.36 50.53 C44.86 54.31, 35.79 57.77, 29.27 57.2 C22.74 56.64, 15.91 51.41, 11.21 47.12 C6.5 42.83, 2.11 36.92, 1.05 31.46 C-0.02 25.99, 1.51 19.15, 4.83 14.33 C8.14 9.5, 18.23 4.74, 20.94 2.51 C23.66 0.28, 20.95 0.49, 21.12 0.95" stroke="none" stroke-width="0" fill="#69db7c"></path><path d="M22.01 1.79 C27.72 -0.05, 37 1.08, 43 3.26 C49 5.44, 54.94 9.56, 58 14.9 C61.05 20.23, 62.98 29.38, 61.33 35.26 C59.69 41.14, 53.73 46.81, 48.12 50.17 C42.51 53.52, 34.22 55.81, 27.69 55.39 C21.17 54.97, 13.43 51.83, 8.99 47.65 C4.55 43.46, 1.74 36.04, 1.06 30.28 C0.38 24.52, 0.59 18.09, 4.89 13.07 C9.18 8.06, 22.45 2.38, 26.84 0.18 C31.23 -2.02, 31.3 -0.58, 31.25 -0.13 M20 3.18 C25.52 0.76, 34.88 -0.26, 40.99 1.33 C47.1 2.91, 53.3 7.72, 56.63 12.69 C59.97 17.66, 61.76 25.05, 61.03 31.16 C60.3 37.26, 56.99 45.34, 52.25 49.31 C47.51 53.29, 39.11 54.89, 32.58 55.01 C26.06 55.13, 18.58 53.36, 13.11 50.03 C7.63 46.7, 1.15 41, -0.26 35.03 C-1.68 29.07, 1.41 19.7, 4.63 14.24 C7.85 8.78, 16.31 4.14, 19.06 2.28 C21.81 0.43, 20.62 2.89, 21.12 3.1" stroke="#1e1e1e" stroke-width="8" fill="none"></path></g><g stroke-linecap="round" transform="translate(138.65512230527384 1018.3688080061463) rotate(180.728737705086 30.760285631567058 27.985028743848716)"><path d="M43.84 1.55 C49.91 3.53, 55.92 9.42, 58.6 15.06 C61.29 20.71, 61.6 29.36, 59.96 35.41 C58.33 41.46, 54.12 47.81, 48.8 51.37 C43.48 54.94, 34.5 57.43, 28.06 56.82 C21.62 56.21, 14.91 51.88, 10.15 47.72 C5.39 43.56, 0.48 37.69, -0.5 31.85 C-1.47 26, 0.65 17.62, 4.3 12.66 C7.96 7.69, 13.95 3.37, 21.43 2.06 C28.92 0.76, 44.06 3.52, 49.23 4.85 C54.39 6.18, 52.68 9.41, 52.44 10.03 M25.19 -0.27 C31.39 -1.28, 40.1 1.13, 45.63 4.5 C51.17 7.87, 55.85 14.14, 58.39 19.95 C60.93 25.76, 63.25 34.16, 60.9 39.36 C58.54 44.56, 50.41 48.55, 44.27 51.13 C38.13 53.71, 30.36 55.88, 24.05 54.86 C17.75 53.85, 10.53 49.74, 6.47 45.02 C2.4 40.3, -0.27 32.19, -0.32 26.54 C-0.36 20.89, 1.96 15.34, 6.17 11.13 C10.39 6.91, 21.66 3.17, 24.96 1.27 C28.27 -0.63, 25.61 -0.72, 26.02 -0.27" stroke="none" stroke-width="0" fill="#69db7c"></path><path d="M33.54 -0.47 C39.77 -0.58, 46.5 2.68, 51.24 7.01 C55.97 11.35, 61.06 19.61, 61.95 25.53 C62.83 31.45, 60.38 37.53, 56.55 42.53 C52.73 47.53, 45.23 53.67, 39.01 55.53 C32.79 57.4, 25.34 56.15, 19.23 53.73 C13.12 51.32, 5.53 46.44, 2.35 41.04 C-0.84 35.63, -1.58 27.14, 0.11 21.31 C1.8 15.49, 5.98 9.51, 12.48 6.07 C18.98 2.63, 33.71 1.24, 39.12 0.69 C44.52 0.13, 45.05 2.27, 44.92 2.74 M16.92 3.59 C22.33 0.64, 32.31 -0.84, 38.83 0.38 C45.36 1.6, 52.26 6.01, 56.07 10.89 C59.88 15.77, 62.35 23.81, 61.72 29.67 C61.09 35.54, 57.11 41.5, 52.3 46.1 C47.49 50.7, 39.18 56.23, 32.87 57.27 C26.57 58.32, 19.65 56.02, 14.45 52.39 C9.24 48.75, 3.63 41.39, 1.65 35.47 C-0.33 29.55, -0.12 22.15, 2.57 16.88 C5.26 11.6, 15.5 6.1, 17.81 3.83 C20.12 1.57, 16.37 2.93, 16.44 3.28" stroke="#1e1e1e" stroke-width="8" fill="none"></path></g><g stroke-linecap="round" transform="translate(793.0260653052742 1037.0240690061457) rotate(180.728737705086 30.760285631567058 27.985028743848716)"><path d="M40 1.24 C45.78 2.86, 53.12 8.7, 56.52 13.77 C59.92 18.83, 61.22 25.77, 60.41 31.61 C59.6 37.45, 56.4 44.83, 51.66 48.81 C46.93 52.78, 38.85 55.44, 31.99 55.46 C25.13 55.47, 15.77 52.52, 10.51 48.91 C5.25 45.3, 1.41 39.59, 0.43 33.79 C-0.54 27.99, 1.34 19.37, 4.67 14.12 C8.01 8.87, 14.37 4.17, 20.46 2.27 C26.56 0.38, 37.48 2.59, 41.24 2.75 C45.01 2.91, 42.98 3.03, 43.05 3.22 M21.9 -0.39 C28.19 -2.24, 38.77 -1.01, 45.1 1.51 C51.42 4.03, 57.44 9.03, 59.85 14.75 C62.27 20.46, 61.52 29.59, 59.59 35.79 C57.67 42, 53.79 48.84, 48.32 51.97 C42.86 55.09, 33.16 55.43, 26.83 54.55 C20.5 53.66, 14.66 50.86, 10.33 46.67 C6 42.47, 1.52 34.93, 0.85 29.36 C0.19 23.8, 2.9 18.21, 6.34 13.28 C9.77 8.35, 18.79 1.77, 21.46 -0.21 C24.12 -2.2, 21.74 0.48, 22.33 1.35" stroke="none" stroke-width="0" fill="#69db7c"></path><path d="M36.33 0.51 C42.64 1.21, 51.26 5.55, 55.5 10.29 C59.74 15.03, 62.11 22.94, 61.76 28.94 C61.41 34.94, 57.8 41.69, 53.42 46.3 C49.03 50.92, 42.06 55.68, 35.45 56.63 C28.84 57.58, 19.32 55.3, 13.75 52 C8.18 48.71, 4.11 42.75, 2.03 36.85 C-0.05 30.95, -1.04 22.25, 1.27 16.58 C3.57 10.91, 9.53 5.4, 15.87 2.82 C22.21 0.24, 35.36 1.29, 39.29 1.11 C43.23 0.93, 39.69 1.41, 39.47 1.76 M33.79 1.32 C39.84 1.72, 47.81 4.03, 52.29 8.2 C56.77 12.36, 60.13 20.35, 60.68 26.3 C61.24 32.25, 59.46 39.02, 55.61 43.91 C51.77 48.8, 44.11 53.88, 37.61 55.64 C31.11 57.4, 22.65 57.32, 16.62 54.44 C10.59 51.56, 3.88 44.25, 1.43 38.35 C-1.01 32.45, -0.02 24.56, 1.95 19.03 C3.91 13.5, 7.89 8.13, 13.24 5.18 C18.6 2.23, 30.47 2.01, 34.09 1.31 C37.71 0.61, 35.08 0.87, 34.97 0.96" stroke="#1e1e1e" stroke-width="8" fill="none"></path></g><g stroke-linecap="round" transform="translate(591.9704817094776 565.7986849032061) rotate(0 30.760285631567058 27.985028743848716)"><path d="M42.54 1.47 C48.51 3.39, 54.55 9.88, 57.74 15.14 C60.92 20.41, 62.95 27.2, 61.65 33.05 C60.35 38.9, 55.13 46.34, 49.94 50.23 C44.76 54.12, 36.99 56.59, 30.52 56.38 C24.06 56.18, 16.23 52.85, 11.15 49 C6.07 45.16, 1.31 39.09, 0.05 33.29 C-1.21 27.49, 0.1 19.53, 3.59 14.2 C7.07 8.86, 13.5 2.68, 20.97 1.27 C28.44 -0.13, 42.92 4.13, 48.42 5.76 C53.92 7.39, 54.21 10.79, 53.98 11.03 M22.22 1.84 C27.96 -0.42, 35.69 -1.41, 41.52 0.8 C47.35 3.02, 54.03 9.54, 57.21 15.15 C60.4 20.76, 62.13 28.85, 60.63 34.48 C59.14 40.12, 53.52 45.31, 48.25 48.94 C42.98 52.57, 35.54 56.3, 29.03 56.28 C22.52 56.27, 13.92 52.78, 9.19 48.86 C4.45 44.95, 1.49 38.82, 0.6 32.8 C-0.29 26.79, 0.29 18.2, 3.84 12.77 C7.39 7.35, 18.93 2.16, 21.92 0.24 C24.91 -1.68, 21.69 0.45, 21.79 1.27" stroke="none" stroke-width="0" fill="#69db7c"></path><path d="M33.15 -0.4 C39.33 -0.33, 47.6 3.68, 52.4 8.08 C57.19 12.48, 61.22 19.95, 61.95 26 C62.67 32.05, 60.58 39.64, 56.75 44.37 C52.91 49.09, 45.63 52.94, 38.96 54.35 C32.28 55.77, 22.65 55.34, 16.69 52.85 C10.72 50.36, 5.93 44.65, 3.17 39.39 C0.42 34.13, -1.59 26.98, 0.15 21.27 C1.89 15.55, 7.16 8.45, 13.62 5.08 C20.07 1.7, 33.77 1.14, 38.89 1.02 C44 0.89, 44.4 3.82, 44.29 4.32 M19.21 2.88 C24.62 -0.14, 32.14 -1.86, 38.39 -0.28 C44.64 1.29, 52.84 7.08, 56.71 12.32 C60.58 17.56, 62.24 25.23, 61.62 31.16 C61 37.1, 57.76 43.7, 53 47.92 C48.24 52.15, 39.79 56.29, 33.04 56.52 C26.29 56.75, 17.79 53.11, 12.49 49.32 C7.18 45.52, 2.77 39.54, 1.2 33.75 C-0.38 27.96, 0.39 19.81, 3.04 14.58 C5.7 9.35, 14.33 4.23, 17.14 2.38 C19.95 0.52, 19.72 3.21, 19.93 3.47" stroke="#1e1e1e" stroke-width="8" fill="none"></path></g><g stroke-linecap="round" transform="translate(1123.0758957094772 374.9890679032062) rotate(0 30.760285631567058 27.985028743848716)"><path d="M18.33 2.85 C23.69 0.34, 32.17 0.21, 38.47 1.91 C44.77 3.61, 52.25 8.33, 56.13 13.05 C60.01 17.77, 62.48 24.54, 61.74 30.23 C61.01 35.92, 56.59 42.88, 51.72 47.19 C46.86 51.49, 39.04 55.48, 32.55 56.07 C26.05 56.66, 17.89 54.24, 12.73 50.71 C7.58 47.18, 3.26 40.55, 1.6 34.88 C-0.06 29.21, -0.51 22.39, 2.8 16.68 C6.1 10.96, 17.96 3.05, 21.42 0.61 C24.87 -1.83, 23.44 1.5, 23.51 2.04 M33.28 0.95 C39.8 1.28, 49.09 5.55, 53.72 10.02 C58.35 14.5, 60.78 22.22, 61.06 27.78 C61.35 33.34, 59.29 38.67, 55.42 43.39 C51.55 48.11, 44.2 54.37, 37.84 56.1 C31.48 57.83, 23.33 56.61, 17.27 53.76 C11.22 50.92, 4.24 44.43, 1.52 39.02 C-1.2 33.61, -1.15 27.02, 0.97 21.31 C3.09 15.6, 8.87 8.24, 14.23 4.77 C19.59 1.31, 29.93 1.28, 33.13 0.51 C36.34 -0.26, 33.38 -0.11, 33.44 0.15" stroke="none" stroke-width="0" fill="#69db7c"></path><path d="M18.08 3.26 C23.56 0.25, 32.88 -0.92, 39.22 0.33 C45.56 1.59, 52.5 5.87, 56.13 10.8 C59.76 15.74, 61.56 23.78, 61.02 29.95 C60.47 36.13, 57.42 43.52, 52.85 47.85 C48.27 52.19, 40.01 55.53, 33.56 55.96 C27.1 56.39, 19.48 54.02, 14.1 50.45 C8.72 46.88, 3.09 40.12, 1.27 34.54 C-0.55 28.96, -0.92 22.61, 3.18 16.99 C7.28 11.37, 20.71 3.6, 25.88 0.84 C31.04 -1.91, 34.24 0.01, 34.18 0.44 M17.21 1.58 C22.69 -1.33, 30.47 -1.28, 37.04 0.49 C43.62 2.27, 52.39 7.41, 56.64 12.22 C60.89 17.02, 63.37 23.6, 62.54 29.33 C61.71 35.05, 56.29 42.4, 51.67 46.59 C47.06 50.78, 41.01 53.59, 34.85 54.47 C28.69 55.35, 20.22 55.21, 14.71 51.87 C9.21 48.54, 3.94 40.18, 1.84 34.45 C-0.26 28.71, -0.3 22.55, 2.11 17.46 C4.51 12.37, 13.71 6.2, 16.28 3.88 C18.84 1.55, 16.84 3.47, 17.48 3.52" stroke="#1e1e1e" stroke-width="8" fill="none"></path></g><g stroke-linecap="round" transform="translate(355.04450096864275 270.58679068793367) rotate(37.64418058248804 30.760285631567058 27.985028743848716)"><path d="M20.9 0.96 C26.97 -1.26, 36.65 -0.25, 42.77 2.02 C48.89 4.3, 54.5 9.22, 57.61 14.6 C60.72 19.99, 62.88 28.31, 61.44 34.33 C60.01 40.36, 54.42 47.25, 49.02 50.76 C43.61 54.27, 35.32 55.81, 29 55.41 C22.69 55.01, 15.9 52.35, 11.12 48.38 C6.34 44.4, 1.5 37.27, 0.31 31.58 C-0.89 25.89, 0.38 19.39, 3.95 14.24 C7.53 9.09, 18.29 2.95, 21.76 0.68 C25.23 -1.59, 24.49 0.24, 24.76 0.64 M19.39 1.09 C25.26 -0.91, 34.69 0.66, 40.88 3.04 C47.08 5.42, 53.15 10.25, 56.58 15.35 C60.01 20.44, 62.4 27.97, 61.46 33.62 C60.53 39.27, 55.84 45.3, 50.96 49.24 C46.09 53.18, 39.08 57.08, 32.2 57.25 C25.32 57.43, 14.98 54.37, 9.67 50.32 C4.37 46.27, 1.09 39.11, 0.39 32.97 C-0.32 26.83, 1.98 18.8, 5.47 13.49 C8.96 8.18, 18.98 3.05, 21.31 1.1 C23.63 -0.86, 19.24 1.33, 19.43 1.74" stroke="none" stroke-width="0" fill="#69db7c"></path><path d="M44.62 2.31 C50.5 4.41, 57.01 10.19, 59.5 15.82 C61.99 21.45, 61.33 30.34, 59.54 36.1 C57.74 41.85, 54.06 47.18, 48.71 50.34 C43.36 53.49, 34.15 55.53, 27.43 55.03 C20.72 54.53, 13.03 51.32, 8.41 47.35 C3.78 43.38, 0.25 37.19, -0.3 31.2 C-0.86 25.21, 1.09 16.47, 5.1 11.41 C9.11 6.35, 16.86 2.14, 23.74 0.84 C30.63 -0.45, 42.39 2.93, 46.4 3.63 C50.41 4.33, 48.07 4.74, 47.8 5.06 M45.95 3.59 C51.72 5.71, 56.72 11.34, 58.98 16.75 C61.25 22.15, 61.62 30.05, 59.55 36.02 C57.49 41.98, 51.96 49.07, 46.6 52.52 C41.24 55.97, 33.95 57.38, 27.4 56.71 C20.86 56.04, 11.85 53.2, 7.31 48.5 C2.76 43.81, 0.09 34.61, 0.15 28.54 C0.2 22.47, 3.73 16.76, 7.61 12.06 C11.49 7.36, 17.17 1.61, 23.41 0.35 C29.65 -0.9, 41.44 3.74, 45.05 4.52 C48.66 5.31, 45.53 4.97, 45.07 5.04" stroke="#1e1e1e" stroke-width="8" fill="none"></path></g><g stroke-linecap="round" transform="translate(79.23971436843294 852.4714989932047) rotate(180.728737705086 30.760285631567058 27.985028743848716)"><path d="M19.27 2.05 C25.04 -0.52, 34.16 -1, 40.64 0.93 C47.12 2.85, 54.61 8.45, 58.16 13.61 C61.72 18.77, 63.06 25.84, 61.96 31.89 C60.86 37.93, 56.84 46, 51.59 49.9 C46.33 53.8, 37.03 55.48, 30.41 55.28 C23.79 55.08, 16.82 52.52, 11.86 48.71 C6.9 44.9, 1.8 38.08, 0.65 32.39 C-0.51 26.71, 0.22 20.11, 4.95 14.59 C9.67 9.07, 23.3 1.28, 29 -0.75 C34.71 -2.78, 38.9 1.86, 39.16 2.4 M16.33 2.09 C22.01 -0.91, 31.71 -2.43, 38.42 -0.66 C45.13 1.1, 52.52 7.87, 56.6 12.67 C60.68 17.47, 63.7 22.54, 62.9 28.13 C62.11 33.73, 56.71 41.73, 51.84 46.26 C46.97 50.79, 40.15 54.53, 33.71 55.33 C27.27 56.12, 18.78 54.48, 13.2 51.04 C7.62 47.6, 1.78 40.53, 0.24 34.7 C-1.31 28.86, 1.01 21.28, 3.95 16.01 C6.89 10.73, 15.86 4.96, 17.88 3.05 C19.9 1.14, 15.84 3.93, 16.06 4.57" stroke="none" stroke-width="0" fill="#69db7c"></path><path d="M23.35 0.02 C29.27 -1.65, 38.01 0.82, 44.09 3.69 C50.17 6.56, 57.28 11.89, 59.81 17.22 C62.34 22.56, 61.2 29.88, 59.27 35.71 C57.33 41.54, 53.57 49.01, 48.2 52.2 C42.83 55.4, 33.63 55.85, 27.06 54.87 C20.49 53.89, 13.33 50.55, 8.8 46.31 C4.27 42.07, 0.23 35.22, -0.1 29.43 C-0.44 23.64, 1.83 16.33, 6.8 11.56 C11.76 6.79, 24.96 2.5, 29.71 0.82 C34.46 -0.87, 35.28 1.3, 35.31 1.48 M40.98 2.1 C46.94 3.64, 53.14 8.63, 56.42 13.64 C59.69 18.64, 61.52 26.39, 60.65 32.14 C59.77 37.89, 56.19 44.36, 51.17 48.12 C46.16 51.89, 36.89 54.3, 30.57 54.75 C24.26 55.2, 18.08 54.26, 13.29 50.84 C8.5 47.42, 3.49 40.25, 1.82 34.24 C0.16 28.23, 0.35 20.07, 3.28 14.8 C6.22 9.54, 13.1 5.07, 19.42 2.66 C25.75 0.25, 37.8 0.53, 41.22 0.35 C44.65 0.17, 40.21 1.01, 39.98 1.57" stroke="#1e1e1e" stroke-width="8" fill="none"></path></g><g stroke-linecap="round" transform="translate(733.6106573684324 871.1267599932041) rotate(180.728737705086 30.760285631567058 27.985028743848716)"><path d="M43.11 1.8 C49.05 3.86, 55.8 9.5, 58.55 15.17 C61.31 20.83, 61.37 29.7, 59.66 35.77 C57.95 41.84, 53.58 48.36, 48.29 51.59 C43 54.81, 34.54 55.74, 27.92 55.13 C21.29 54.51, 13.06 51.84, 8.53 47.9 C4.01 43.95, 1.32 37.33, 0.76 31.47 C0.21 25.62, 1.5 17.98, 5.2 12.76 C8.89 7.54, 15.85 1.6, 22.93 0.17 C30.01 -1.26, 43.17 2.99, 47.68 4.2 C52.19 5.4, 50.52 7.08, 50.01 7.38 M22.41 2.13 C28.41 0.84, 37.7 1.94, 43.58 4.27 C49.46 6.59, 54.82 10.81, 57.7 16.1 C60.57 21.38, 62.33 30.31, 60.83 35.97 C59.32 41.64, 54.51 46.59, 48.66 50.1 C42.82 53.61, 32.67 57.41, 25.75 57.04 C18.84 56.66, 11.63 52.3, 7.15 47.85 C2.68 43.39, -1.13 36.64, -1.08 30.32 C-1.03 24, 3.5 14.94, 7.44 9.92 C11.39 4.9, 19.87 1.37, 22.59 0.18 C25.31 -1.02, 23.22 2.34, 23.76 2.76" stroke="none" stroke-width="0" fill="#69db7c"></path><path d="M29.28 0.54 C35.38 0.1, 43.75 2.49, 49 6.02 C54.25 9.54, 59.33 15.8, 60.77 21.68 C62.22 27.55, 60.54 36.03, 57.66 41.27 C54.78 46.51, 49.47 50.78, 43.5 53.1 C37.53 55.43, 28.24 57.04, 21.83 55.2 C15.42 53.37, 8.8 47.3, 5.05 42.08 C1.29 36.87, -1.42 29.61, -0.68 23.93 C0.06 18.25, 3.78 12.05, 9.49 7.99 C15.19 3.93, 28.95 0.69, 33.55 -0.43 C38.16 -1.54, 37.25 0.72, 37.1 1.31 M38.27 -0.04 C44.63 0.7, 50.68 5.13, 54.58 9.96 C58.49 14.78, 61.96 22.89, 61.71 28.93 C61.46 34.96, 57.43 41.8, 53.07 46.16 C48.72 50.52, 41.78 54.36, 35.57 55.09 C29.36 55.82, 21.66 53.49, 15.83 50.54 C9.99 47.59, 3.02 42.97, 0.56 37.41 C-1.91 31.84, -1.65 22.85, 1.04 17.17 C3.73 11.49, 10.5 5.94, 16.71 3.34 C22.91 0.74, 34.84 2.01, 38.26 1.6 C41.68 1.19, 37.71 0.58, 37.23 0.87" stroke="#1e1e1e" stroke-width="8" fill="none"></path></g><g stroke-linecap="round" transform="translate(444.277484709477 724.5861109032069) rotate(0 30.760285631567058 27.985028743848716)"><path d="M34.77 0.41 C41.25 0.83, 50.06 5.59, 54.49 9.99 C58.91 14.39, 61.16 20.91, 61.33 26.82 C61.5 32.73, 59.48 40.62, 55.51 45.46 C51.54 50.3, 44.06 54.72, 37.49 55.86 C30.92 57, 21.83 55.35, 16.08 52.32 C10.34 49.28, 5.38 43.1, 3.04 37.65 C0.71 32.2, 0.2 25.27, 2.07 19.6 C3.94 13.93, 7.4 6.61, 14.24 3.63 C21.09 0.65, 37.31 1.29, 43.16 1.73 C49.01 2.18, 49.66 5.9, 49.33 6.32 M25.65 -0.86 C31.46 -2.5, 38.71 -0.58, 44.32 2.56 C49.93 5.7, 56.71 12.36, 59.31 17.98 C61.91 23.59, 62.3 30.58, 59.92 36.25 C57.55 41.92, 50.68 48.87, 45.05 52 C39.43 55.14, 32.37 55.98, 26.19 55.09 C20 54.19, 12.06 51.29, 7.94 46.64 C3.83 41.99, 1.65 33.24, 1.5 27.19 C1.35 21.14, 3.28 14.84, 7.04 10.35 C10.8 5.86, 21.11 1.83, 24.05 0.25 C26.99 -1.34, 24.19 0.57, 24.66 0.83" stroke="none" stroke-width="0" fill="#69db7c"></path><path d="M34.34 -0.06 C40.47 0.53, 48.64 5.02, 53.21 9.66 C57.77 14.3, 61.36 21.8, 61.7 27.79 C62.04 33.78, 59.42 41.13, 55.24 45.58 C51.05 50.04, 43.13 53.23, 36.6 54.5 C30.08 55.76, 21.83 55.98, 16.08 53.17 C10.34 50.37, 4.42 43.22, 2.11 37.65 C-0.2 32.08, 0.15 25.37, 2.21 19.77 C4.27 14.17, 8.16 7.08, 14.46 4.04 C20.77 1, 34.85 1.58, 40.06 1.5 C45.27 1.43, 45.82 3.3, 45.72 3.58 M30.45 -1.09 C36.27 -1.68, 43.38 2.4, 48.42 6.35 C53.46 10.31, 59.11 16.64, 60.68 22.64 C62.25 28.64, 61 37.05, 57.84 42.34 C54.69 47.64, 47.77 52.36, 41.74 54.39 C35.71 56.43, 28.06 56.46, 21.67 54.56 C15.28 52.66, 7.08 48.14, 3.4 43 C-0.29 37.87, -1.45 29.94, -0.45 23.72 C0.55 17.51, 4.34 9.47, 9.4 5.72 C14.47 1.97, 26.42 2.29, 29.94 1.21 C33.46 0.13, 30.69 -1.28, 30.54 -0.76" stroke="#1e1e1e" stroke-width="8" fill="none"></path></g><g stroke-linecap="round" transform="translate(975.3828987094771 533.776493903207) rotate(0 30.760285631567058 27.985028743848716)"><path d="M38.8 0.17 C45.11 1.2, 52.71 6.53, 56.61 11.59 C60.51 16.65, 62.94 24.59, 62.2 30.51 C61.45 36.43, 57.01 42.95, 52.12 47.1 C47.24 51.25, 39.31 54.75, 32.89 55.41 C26.46 56.07, 18.85 54.29, 13.56 51.08 C8.28 47.88, 2.98 42.01, 1.18 36.19 C-0.61 30.37, -0.05 21.63, 2.81 16.14 C5.67 10.65, 12.33 5.79, 18.37 3.25 C24.4 0.71, 35.11 1.08, 39.03 0.89 C42.95 0.71, 41.96 1.59, 41.9 2.13 M22.51 1.82 C28.41 -0.09, 37.83 -0.43, 44.01 1.81 C50.19 4.05, 57.02 9.85, 59.59 15.25 C62.16 20.66, 61 28.35, 59.43 34.25 C57.86 40.15, 55.09 47.19, 50.18 50.64 C45.26 54.09, 36.68 55.35, 29.94 54.93 C23.2 54.52, 14.46 52, 9.74 48.15 C5.01 44.29, 2.35 37.89, 1.58 31.79 C0.81 25.69, 1.7 16.8, 5.12 11.57 C8.53 6.34, 19.37 2.13, 22.07 0.42 C24.78 -1.3, 21.38 0.47, 21.34 1.27" stroke="none" stroke-width="0" fill="#69db7c"></path><path d="M42.29 2.58 C48.04 4.25, 54.13 9.65, 57.08 14.7 C60.04 19.75, 61.22 27.02, 60.02 32.88 C58.82 38.74, 54.82 46.04, 49.9 49.87 C44.98 53.7, 37.03 55.83, 30.5 55.83 C23.97 55.84, 15.85 53.79, 10.73 49.91 C5.61 46.03, 1.01 38.54, -0.2 32.55 C-1.41 26.57, -0.12 19.16, 3.47 14 C7.06 8.84, 14.63 3.57, 21.33 1.59 C28.03 -0.38, 39.88 1.96, 43.66 2.14 C47.43 2.32, 44.21 2.36, 43.98 2.68 M15.99 1.54 C21.32 -1.11, 31.03 -0.15, 37.72 1.69 C44.41 3.53, 52.3 8.05, 56.13 12.56 C59.95 17.07, 61.36 22.77, 60.67 28.75 C59.99 34.72, 56.67 43.68, 52.01 48.41 C47.35 53.14, 38.98 56.52, 32.72 57.11 C26.46 57.7, 19.86 55.6, 14.43 51.94 C9 48.29, 1.93 41.24, 0.13 35.17 C-1.67 29.1, 0.6 20.95, 3.63 15.53 C6.65 10.11, 15.95 4.45, 18.3 2.65 C20.64 0.84, 17.85 4.43, 17.7 4.72" stroke="#1e1e1e" stroke-width="8" fill="none"></path></g><g stroke-linecap="round" transform="translate(141.11803101248506 306.1133085393119) rotate(37.64418058248804 30.760285631567058 27.985028743848716)"><path d="M17.6 3.22 C23.07 0.53, 32.72 -0.73, 39.14 0.85 C45.56 2.44, 52.29 7.91, 56.12 12.74 C59.96 17.58, 62.63 24.14, 62.13 29.86 C61.63 35.58, 58.06 42.59, 53.12 47.06 C48.19 51.52, 39.35 56.03, 32.54 56.64 C25.72 57.24, 17.61 54.41, 12.26 50.69 C6.91 46.97, 1.82 40.26, 0.42 34.33 C-0.97 28.39, 0.76 20.41, 3.91 15.09 C7.06 9.77, 16.49 4.62, 19.32 2.43 C22.15 0.23, 20.75 1.67, 20.89 1.89 M20.01 1.32 C26.11 -0.9, 36.59 -1.14, 43.11 1.1 C49.62 3.33, 55.98 9.32, 59.11 14.73 C62.25 20.13, 63.41 27.5, 61.91 33.54 C60.41 39.58, 55.16 47.45, 50.11 50.95 C45.06 54.44, 38.04 54.83, 31.6 54.52 C25.15 54.2, 16.65 52.49, 11.44 49.05 C6.24 45.61, 1.65 39.58, 0.36 33.88 C-0.93 28.18, 0.43 20.41, 3.71 14.87 C6.98 9.34, 17.24 2.61, 20.01 0.69 C22.78 -1.22, 20.2 2.95, 20.33 3.39" stroke="none" stroke-width="0" fill="#69db7c"></path><path d="M37.5 1.56 C43.67 2.26, 50.87 5.63, 54.99 10.38 C59.11 15.13, 62.63 23.99, 62.22 30.04 C61.8 36.09, 57.27 42.48, 52.49 46.69 C47.7 50.89, 39.99 54.57, 33.5 55.28 C27 55.99, 18.73 54.26, 13.51 50.95 C8.3 47.65, 4.1 41, 2.19 35.46 C0.29 29.92, -0.36 23.13, 2.09 17.7 C4.54 12.28, 10.11 5.61, 16.89 2.93 C23.66 0.25, 37.78 1.27, 42.76 1.63 C47.73 1.98, 47.01 4.36, 46.73 5.06 M29.79 -0.07 C35.88 -1.01, 43.91 1.58, 49.04 5.08 C54.17 8.57, 58.9 14.86, 60.59 20.88 C62.28 26.9, 62 35.86, 59.18 41.19 C56.35 46.51, 49.64 50.57, 43.63 52.84 C37.62 55.11, 29.71 56.2, 23.11 54.82 C16.5 53.44, 7.67 49.68, 4.01 44.55 C0.35 39.42, 0.26 30.16, 1.17 24.03 C2.09 17.9, 4.57 11.66, 9.5 7.76 C14.42 3.87, 27.18 2.01, 30.73 0.64 C34.27 -0.73, 31.1 -1.05, 30.77 -0.45" stroke="#1e1e1e" stroke-width="8" fill="none"></path></g><g stroke-linecap="round" transform="translate(228.94030795144045 695.57535404553) rotate(180.728737705086 30.760285631567058 27.985028743848716)"><path d="M20.66 1.19 C26.17 -0.8, 34.6 0.29, 40.7 2.59 C46.8 4.89, 53.98 9.76, 57.23 14.97 C60.49 20.18, 61.28 28.2, 60.24 33.87 C59.21 39.53, 56.08 45.15, 51.03 48.95 C45.98 52.76, 36.77 56.6, 29.94 56.69 C23.11 56.78, 15.08 53.33, 10.06 49.49 C5.04 45.65, 0.73 39.66, -0.18 33.65 C-1.08 27.64, 0.96 18.82, 4.63 13.44 C8.3 8.05, 18.31 3.23, 21.86 1.34 C25.41 -0.56, 25.71 1.81, 25.92 2.05 M19.74 2.12 C25.39 0.2, 33.7 0.71, 40.24 2.98 C46.78 5.25, 55.77 10.92, 58.98 15.75 C62.19 20.57, 61.11 26.37, 59.49 31.92 C57.87 37.47, 54.22 45.15, 49.28 49.05 C44.35 52.95, 36.39 55.47, 29.9 55.32 C23.42 55.17, 15.5 51.7, 10.36 48.13 C5.23 44.57, 0.25 39.5, -0.9 33.91 C-2.06 28.32, -0.16 20.18, 3.44 14.59 C7.04 9, 17.62 2.33, 20.7 0.39 C23.78 -1.55, 21.53 2.24, 21.92 2.95" stroke="none" stroke-width="0" fill="#69db7c"></path><path d="M28.75 -0.64 C34.94 -1.04, 44.77 2.9, 50.13 6.52 C55.5 10.13, 59.7 15.2, 60.94 21.05 C62.17 26.91, 60.49 36.16, 57.54 41.64 C54.59 47.12, 49.39 51.67, 43.24 53.93 C37.08 56.2, 27.13 57.07, 20.6 55.23 C14.07 53.38, 7.45 47.92, 4.07 42.86 C0.68 37.8, -0.78 30.85, 0.28 24.89 C1.35 18.93, 4.96 11.34, 10.45 7.08 C15.93 2.83, 28.98 0.44, 33.2 -0.62 C37.41 -1.69, 36.05 -0.01, 35.74 0.67 M34.22 -0.32 C40.61 -0.38, 48.45 3.36, 53.03 7.65 C57.6 11.94, 61.3 19.56, 61.67 25.42 C62.05 31.28, 59.31 37.63, 55.28 42.81 C51.24 47.99, 43.6 54.55, 37.48 56.49 C31.35 58.44, 24.22 57.32, 18.52 54.48 C12.83 51.64, 6.21 45.06, 3.3 39.46 C0.38 33.86, -0.73 26.47, 1.01 20.89 C2.76 15.32, 8.53 9.48, 13.78 6 C19.02 2.52, 29.25 0.82, 32.47 0.02 C35.69 -0.78, 33.03 0.49, 33.1 1.2" stroke="#1e1e1e" stroke-width="8" fill="none"></path></g><g stroke-linecap="round" transform="translate(883.3112509514399 714.2306150455295) rotate(180.728737705086 30.760285631567058 27.985028743848716)"><path d="M24.4 0.54 C30.52 -0.95, 39.15 -0.17, 45.15 2.7 C51.15 5.57, 57.82 12.06, 60.4 17.74 C62.98 23.42, 63.09 31.17, 60.64 36.77 C58.18 42.37, 51.49 48.11, 45.66 51.35 C39.83 54.59, 31.89 57.09, 25.64 56.21 C19.39 55.32, 12.32 50.61, 8.14 46.03 C3.96 41.46, 0.91 34.59, 0.57 28.75 C0.23 22.91, 0.53 15.72, 6.12 11 C11.71 6.28, 27.94 1.94, 34.13 0.45 C40.33 -1.03, 43.45 1.74, 43.3 2.08 M22.01 0.48 C28.14 -1.73, 37.11 -1.95, 42.89 0.46 C48.68 2.87, 53.71 9.3, 56.7 14.93 C59.69 20.57, 62.14 28.73, 60.84 34.29 C59.55 39.86, 53.77 44.91, 48.91 48.33 C44.04 51.75, 37.88 54.86, 31.64 54.81 C25.39 54.77, 16.49 51.57, 11.42 48.07 C6.35 44.56, 2.61 39.71, 1.22 33.78 C-0.18 27.85, -0.09 17.89, 3.05 12.5 C6.19 7.1, 16.85 2.91, 20.06 1.41 C23.26 -0.1, 22.17 3.08, 22.3 3.46" stroke="none" stroke-width="0" fill="#69db7c"></path><path d="M37.04 0.04 C43.44 0.77, 50.81 5.64, 54.86 10.29 C58.9 14.95, 61.38 21.83, 61.3 27.98 C61.23 34.13, 58.83 42.55, 54.44 47.21 C50.04 51.86, 41.44 55.05, 34.95 55.89 C28.46 56.73, 21.22 55.5, 15.52 52.23 C9.82 48.95, 3.07 42.02, 0.74 36.25 C-1.58 30.47, -1.04 23, 1.57 17.58 C4.17 12.16, 9.89 6.4, 16.37 3.72 C22.86 1.03, 35.68 1.54, 40.45 1.47 C45.23 1.4, 45.08 2.77, 45.03 3.3 M16.93 2.31 C22.34 -0.61, 31.27 -0.37, 37.76 1.11 C44.24 2.59, 51.99 6.27, 55.84 11.2 C59.7 16.14, 61.53 24.43, 60.9 30.73 C60.27 37.02, 56.8 44.94, 52.06 48.97 C47.32 53, 38.78 54.74, 32.44 54.89 C26.11 55.03, 19.31 53.01, 14.02 49.83 C8.74 46.66, 2.59 41.23, 0.73 35.84 C-1.13 30.44, -0.13 22.96, 2.84 17.48 C5.81 12, 16.12 5.51, 18.57 2.94 C21.02 0.37, 17.5 1.93, 17.56 2.07" stroke="#1e1e1e" stroke-width="8" fill="none"></path></g></svg>