<svg xmlns="http://www.w3.org/2000/svg" viewBox="100 60 500 450"><path d="M563.9 229.44V77.77c0-6.441-5.219-11.668-11.668-11.668h-151.67c-3.098 0-6.063 1.23-8.25 3.418l-252.79 252.79c-4.559 4.559-4.559 11.941 0 16.496l151.67 151.67a11.636 11.636 0 0 0 8.25 3.418c2.984 0 5.969-1.14 8.25-3.418l48.582-48.57c20.082 31.219 55.047 51.988 94.844 51.988 62.184 0 112.78-50.598 112.78-112.78 0-39.797-20.781-74.773-52-94.848l48.582-48.582a11.683 11.683 0 0 0 3.414-8.246zm-23.336 151.68c0 49.32-40.125 89.449-89.449 89.449-49.32 0-89.445-40.125-89.445-89.449 0-49.32 40.125-89.445 89.445-89.445 49.324 0 89.449 40.125 89.449 89.445zm0-156.51-50.723 50.723c-12.098-4.441-25.109-6.996-38.727-6.996-62.184 0-112.78 50.598-112.78 112.78 0 13.625 2.55 26.625 6.996 38.727l-45.887 45.89-135.17-135.17 241.12-241.12h135.17zm-64.176-34.043c20.371 0 36.945-16.578 36.945-36.949s-16.574-36.945-36.945-36.945-36.949 16.578-36.949 36.949c0 20.367 16.578 36.945 36.949 36.945zm0-50.562c7.508 0 13.613 6.106 13.613 13.613 0 7.508-6.106 13.613-13.613 13.613-7.508 0-13.613-6.106-13.613-13.613-.004-7.508 6.102-13.613 13.613-13.613zm-25.285 178.9c6.45 0 11.668 5.219 11.668 11.668v38.887l38.898-.004c6.45 0 11.668 5.219 11.668 11.668 0 6.45-5.219 11.668-11.668 11.668h-38.898v38.883c0 6.45-5.219 11.668-11.668 11.668a11.661 11.661 0 0 1-11.668-11.668v-38.887h-38.887c-6.45 0-11.668-5.219-11.668-11.668s5.219-11.668 11.668-11.668h38.887v-38.887c.004-6.445 5.223-11.66 11.668-11.66z"/></svg>